M48
;DRILL file {KiCad (5.0.2)-1} date 19/03/2019 13:08:46
;FORMAT={-:-/ absolute / inch / decimal}
FMAT,2
INCH,TZ
T1C0.0157
T2C0.0315
T3C0.0374
T4C0.0394
T5C0.0400
T6C0.0472
T7C0.0512
%
G90
G05
T1
X4.6Y-5.425
X4.6Y-5.475
X4.6Y-5.525
X4.6Y-5.575
X4.6Y-5.625
X5.4035Y-4.0846
X5.4035Y-4.124
X5.4035Y-4.1634
X5.4035Y-4.2028
X5.4035Y-4.2421
X5.4035Y-4.2815
X5.4035Y-4.3209
X5.4035Y-4.3602
X5.4035Y-4.3996
X5.4035Y-4.439
X5.4035Y-4.5866
X5.4035Y-4.626
X5.4035Y-4.6654
X5.4035Y-4.7047
X5.4035Y-4.7441
X5.4035Y-4.9213
X5.4035Y-4.9606
X5.4035Y-5.
X5.4035Y-5.0394
X5.4035Y-5.0787
X5.4035Y-5.2461
X5.4035Y-5.2854
X5.4035Y-5.3248
X5.4035Y-5.3642
X5.4035Y-5.4035
X5.4429Y-4.0846
X5.4429Y-4.124
X5.4429Y-4.1634
X5.4429Y-4.2028
X5.4429Y-4.2421
X5.4429Y-4.2815
X5.4429Y-4.3209
X5.4429Y-4.3602
X5.4429Y-4.3996
X5.4429Y-4.439
X5.4429Y-4.5866
X5.4429Y-4.626
X5.4429Y-4.6654
X5.4429Y-4.7047
X5.4429Y-4.7441
X5.4429Y-4.9213
X5.4429Y-4.9606
X5.4429Y-5.
X5.4429Y-5.0394
X5.4429Y-5.0787
X5.4429Y-5.2461
X5.4429Y-5.2854
X5.4429Y-5.3248
X5.4429Y-5.3642
X5.4429Y-5.4035
X5.475Y-3.275
X5.4823Y-4.0846
X5.4823Y-4.124
X5.4823Y-4.1634
X5.4823Y-4.2028
X5.4823Y-4.2421
X5.4823Y-4.2815
X5.4823Y-4.3209
X5.4823Y-4.3602
X5.4823Y-4.3996
X5.4823Y-4.439
X5.4823Y-4.5866
X5.4823Y-4.626
X5.4823Y-4.6654
X5.4823Y-4.7047
X5.4823Y-4.7441
X5.4823Y-4.9213
X5.4823Y-4.9606
X5.4823Y-5.
X5.4823Y-5.0394
X5.4823Y-5.0787
X5.4823Y-5.2461
X5.4823Y-5.2854
X5.4823Y-5.3248
X5.4823Y-5.3642
X5.4823Y-5.4035
X5.5217Y-4.0846
X5.5217Y-4.124
X5.5217Y-4.1634
X5.5217Y-4.2028
X5.5217Y-4.2421
X5.5217Y-4.2815
X5.5217Y-4.3209
X5.5217Y-4.3602
X5.5217Y-4.3996
X5.5217Y-4.439
X5.5217Y-4.5866
X5.5217Y-4.626
X5.5217Y-4.6654
X5.5217Y-4.7047
X5.5217Y-4.7441
X5.5217Y-4.9213
X5.5217Y-4.9606
X5.5217Y-5.
X5.5217Y-5.0394
X5.5217Y-5.0787
X5.5217Y-5.2461
X5.5217Y-5.2854
X5.5217Y-5.3248
X5.5217Y-5.3642
X5.5217Y-5.4035
X5.561Y-4.0846
X5.561Y-4.124
X5.561Y-4.1634
X5.561Y-4.2028
X5.561Y-4.2421
X5.561Y-4.2815
X5.561Y-4.3209
X5.561Y-4.3602
X5.561Y-4.3996
X5.561Y-4.439
X5.561Y-4.5866
X5.561Y-4.626
X5.561Y-4.6654
X5.561Y-4.7047
X5.561Y-4.7441
X5.561Y-4.9213
X5.561Y-4.9606
X5.561Y-5.
X5.561Y-5.0394
X5.561Y-5.0787
X5.561Y-5.2461
X5.561Y-5.2854
X5.561Y-5.3248
X5.561Y-5.3642
X5.561Y-5.4035
X5.6Y-3.475
X5.6Y-3.325
X5.6004Y-4.0846
X5.6004Y-4.124
X5.6004Y-4.1634
X5.6004Y-4.2028
X5.6004Y-4.2421
X5.6004Y-4.2815
X5.6004Y-4.3209
X5.6004Y-4.3602
X5.6004Y-4.3996
X5.6004Y-4.439
X5.6004Y-4.5866
X5.6004Y-4.626
X5.6004Y-4.6654
X5.6004Y-4.7047
X5.6004Y-4.7441
X5.6004Y-4.9213
X5.6004Y-4.9606
X5.6004Y-5.
X5.6004Y-5.0394
X5.6004Y-5.0787
X5.6004Y-5.2461
X5.6004Y-5.2854
X5.6004Y-5.3248
X5.6004Y-5.3642
X5.6004Y-5.4035
X5.6398Y-4.0846
X5.6398Y-4.124
X5.6398Y-4.1634
X5.6398Y-4.2028
X5.6398Y-4.2421
X5.6398Y-4.2815
X5.6398Y-4.3209
X5.6398Y-4.3602
X5.6398Y-4.3996
X5.6398Y-4.439
X5.6791Y-4.0846
X5.6791Y-4.124
X5.6791Y-4.1634
X5.6791Y-4.2028
X5.6791Y-4.2421
X5.6791Y-4.2815
X5.6791Y-4.3209
X5.6791Y-4.3602
X5.6791Y-4.3996
X5.6791Y-4.439
X5.7185Y-4.0846
X5.7185Y-4.124
X5.7185Y-4.1634
X5.7185Y-4.2028
X5.7185Y-4.2421
X5.7185Y-4.2815
X5.7185Y-4.3209
X5.7185Y-4.3602
X5.7185Y-4.3996
X5.7185Y-4.439
X5.73Y-4.5365
X5.73Y-4.5759
X5.73Y-4.6153
X5.73Y-4.9116
X5.73Y-4.951
X5.73Y-5.2352
X5.73Y-5.2746
X5.77Y-4.5365
X5.77Y-4.5759
X5.77Y-4.6153
X5.77Y-4.9116
X5.77Y-4.951
X5.77Y-5.2352
X5.77Y-5.2746
X6.Y-5.75
X6.075Y-3.275
X6.75Y-4.775
X7.138Y-4.2
X7.138Y-4.4
X7.3Y-3.275
T2
X5.5Y-3.55
X5.5787Y-3.55
X5.7963Y-3.55
X5.875Y-3.55
X6.15Y-4.45
X6.2474Y-4.5474
X5.1963Y-3.55
X5.275Y-3.55
X6.1Y-3.55
X6.1787Y-3.55
X6.15Y-4.8
X6.2196Y-4.8696
T3
X6.85Y-4.0016
X6.85Y-4.1
X6.85Y-4.1984
X6.6016Y-2.32
X6.7Y-2.32
X6.7984Y-2.32
X6.8969Y-2.32
X6.85Y-4.4016
X6.85Y-4.5
X6.85Y-4.5984
X6.55Y-4.4031
X6.55Y-4.5016
X6.55Y-4.6
X6.45Y-4.85
X6.5484Y-4.85
X6.6469Y-4.85
X6.7453Y-4.85
X6.8437Y-4.85
X6.9421Y-4.85
X7.0406Y-4.85
X7.139Y-4.85
X7.2374Y-4.85
X4.8016Y-2.32
X4.9Y-2.32
X4.9984Y-2.32
X5.0969Y-2.32
X7.2016Y-2.32
X7.3Y-2.32
X7.3984Y-2.32
X7.4969Y-2.32
X5.4016Y-2.32
X5.5Y-2.32
X5.5984Y-2.32
X5.6969Y-2.32
X6.55Y-4.0016
X6.55Y-4.1
X6.55Y-4.1984
X6.85Y-3.6031
X6.85Y-3.7016
X6.85Y-3.8
X6.0016Y-2.32
X6.1Y-2.32
X6.1984Y-2.32
X6.2969Y-2.32
X6.55Y-3.6016
X6.55Y-3.7
X6.55Y-3.7984
T4
X4.9Y-3.
X4.9Y-3.1
X4.9Y-3.2
X5.Y-3.
X5.Y-3.1
X5.Y-3.2
X7.5Y-5.75
X7.5Y-5.85
X7.5Y-5.95
X7.2Y-5.1
X7.2Y-5.1984
X7.25Y-5.75
X7.25Y-5.85
X7.25Y-5.95
X6.1Y-5.05
X6.1Y-5.15
X6.1Y-5.25
X7.Y-2.5
X7.Y-2.6
X7.Y-2.7
X7.Y-2.8
X7.Y-2.9
X7.Y-3.
X7.Y-3.1
X7.Y-3.2
X5.3Y-2.5
X5.3Y-2.6
X5.3Y-2.7
X5.3Y-2.8
X5.3Y-2.9
X5.3Y-3.
X5.3Y-3.1
X5.3Y-3.2
X6.1Y-3.
X6.1Y-3.1
X6.1Y-3.2
X6.2Y-3.
X6.2Y-3.1
X6.2Y-3.2
X4.7Y-5.8
X4.8Y-5.8
X4.9Y-5.8
X5.Y-5.8
X5.1Y-5.8
X5.2Y-5.8
X5.1516Y-3.8
X5.25Y-3.8
X5.9Y-2.5
X5.9Y-2.6
X5.9Y-2.7
X5.9Y-2.8
X5.9Y-2.9
X5.9Y-3.
X5.9Y-3.1
X5.9Y-3.2
X7.3Y-3.7
X7.3Y-3.8
X7.3Y-3.9
X7.3Y-4.
X6.0516Y-3.8
X6.15Y-3.8
X7.6Y-5.3
X7.6Y-5.4
X7.6Y-5.5
X7.6Y-5.6
X5.2Y-2.5
X5.2Y-2.6
X5.2Y-2.7
X5.2Y-2.8
X5.2Y-2.9
X5.2Y-3.
X5.2Y-3.1
X5.2Y-3.2
X6.4Y-2.5
X6.4Y-2.6
X6.4Y-2.7
X6.4Y-2.8
X6.4Y-2.9
X6.4Y-3.
X6.4Y-3.1
X6.4Y-3.2
X4.8Y-3.3
X4.8Y-3.4
X4.8Y-3.5
X4.8Y-3.6
X4.8Y-3.7
X4.8Y-3.8
X4.8Y-3.9
X4.8Y-4.
X4.8Y-4.1
X4.8Y-4.2
X4.8Y-4.3
X4.8Y-4.4
X4.8Y-4.5
X4.8Y-4.6
X4.8Y-4.7
X4.8Y-4.8
X4.8Y-4.9
X4.8Y-5.
X4.8Y-5.1
X4.8Y-5.2
X4.8Y-5.3
X4.8Y-5.4
X4.8Y-5.5
X4.8Y-5.6
X4.9Y-3.3
X4.9Y-3.4
X4.9Y-3.5
X4.9Y-3.6
X4.9Y-3.7
X4.9Y-3.8
X4.9Y-3.9
X4.9Y-4.
X4.9Y-4.1
X4.9Y-4.2
X4.9Y-4.3
X4.9Y-4.4
X4.9Y-4.5
X4.9Y-4.6
X4.9Y-4.7
X4.9Y-4.8
X4.9Y-4.9
X4.9Y-5.
X4.9Y-5.1
X4.9Y-5.2
X4.9Y-5.3
X4.9Y-5.4
X4.9Y-5.5
X4.9Y-5.6
X5.4Y-5.95
X5.4Y-6.05
X5.5Y-5.95
X5.5Y-6.05
X5.6Y-5.95
X5.6Y-6.05
X5.7Y-5.95
X5.7Y-6.05
X5.8Y-5.95
X5.8Y-6.05
X5.9Y-5.95
X5.9Y-6.05
X6.Y-5.95
X6.Y-6.05
X6.1Y-5.95
X6.1Y-6.05
X6.2Y-5.95
X6.2Y-6.05
X6.3Y-5.95
X6.3Y-6.05
X6.4Y-5.95
X6.4Y-6.05
X6.5Y-5.95
X6.5Y-6.05
X6.6Y-5.95
X6.6Y-6.05
X6.7Y-5.95
X6.7Y-6.05
X6.8Y-5.95
X6.8Y-6.05
X6.9Y-5.95
X6.9Y-6.05
X7.4Y-5.75
X7.4Y-5.85
X7.4Y-5.95
X6.5Y-2.5
X6.5Y-2.6
X6.5Y-2.7
X6.5Y-2.8
X6.5Y-2.9
X6.5Y-3.
X6.5Y-3.1
X6.5Y-3.2
X7.1Y-2.5
X7.1Y-2.6
X7.1Y-2.7
X7.1Y-2.8
X7.1Y-2.9
X7.1Y-3.
X7.1Y-3.1
X7.1Y-3.2
X5.8Y-2.5
X5.8Y-2.6
X5.8Y-2.7
X5.8Y-2.8
X5.8Y-2.9
X5.8Y-3.
X5.8Y-3.1
X5.8Y-3.2
X5.5Y-3.
X5.5Y-3.1
X5.5Y-3.2
X5.6Y-3.
X5.6Y-3.1
X5.6Y-3.2
X7.1Y-5.75
X7.1Y-5.85
X7.1Y-5.95
X5.7516Y-3.8
X5.85Y-3.8
X7.6Y-4.
X7.6Y-4.1
X7.6Y-4.2
X7.6Y-4.3
X6.3Y-5.1
X6.3Y-5.1984
X7.3Y-3.
X7.3Y-3.1
X7.3Y-3.2
X7.4Y-3.
X7.4Y-3.1
X7.4Y-3.2
X4.7Y-2.5
X4.7Y-2.6
X4.7Y-2.7
X4.7Y-2.8
X4.7Y-2.9
X4.7Y-3.
X4.7Y-3.1
X4.7Y-3.2
X7.15Y-5.6
X7.25Y-5.6
X6.6Y-5.1
X6.6Y-5.1984
X5.4516Y-3.8
X5.55Y-3.8
X4.7Y-5.9
X4.8Y-5.9
X4.9Y-5.9
X5.Y-5.9
X5.1Y-5.9
X5.2Y-5.9
X7.4Y-3.3
X7.4Y-3.4
X7.4Y-3.5
X7.4Y-3.6
X7.4Y-3.7
X7.4Y-3.8
X7.4Y-3.9
X7.4Y-4.
X7.4Y-4.1
X7.4Y-4.2
X7.4Y-4.3
X7.4Y-4.4
X7.4Y-4.5
X7.4Y-4.6
X7.4Y-4.7
X7.4Y-4.8
X7.4Y-4.9
X7.4Y-5.
X7.4Y-5.1
X7.4Y-5.2
X7.4Y-5.3
X7.4Y-5.4
X7.4Y-5.5
X7.4Y-5.6
X7.5Y-3.3
X7.5Y-3.4
X7.5Y-3.5
X7.5Y-3.6
X7.5Y-3.7
X7.5Y-3.8
X7.5Y-3.9
X7.5Y-4.
X7.5Y-4.1
X7.5Y-4.2
X7.5Y-4.3
X7.5Y-4.4
X7.5Y-4.5
X7.5Y-4.6
X7.5Y-4.7
X7.5Y-4.8
X7.5Y-4.9
X7.5Y-5.
X7.5Y-5.1
X7.5Y-5.2
X7.5Y-5.3
X7.5Y-5.4
X7.5Y-5.5
X7.5Y-5.6
X7.6Y-2.5
X7.6Y-2.6
X7.6Y-2.7
X7.6Y-2.8
X7.6Y-2.9
X7.6Y-3.
X7.6Y-3.1
X7.6Y-3.2
X6.7Y-3.
X6.7Y-3.1
X6.7Y-3.2
X6.8Y-3.
X6.8Y-3.1
X6.8Y-3.2
X6.9Y-5.1
X6.9Y-5.1984
T5
X6.4Y-5.65
X6.4Y-5.75
X6.5Y-5.65
X6.5Y-5.75
X6.6Y-5.65
X6.6Y-5.75
X6.7Y-5.65
X6.7Y-5.75
X6.8Y-5.65
X6.8Y-5.75
X5.5Y-5.65
X5.5Y-5.75
X5.6Y-5.65
X5.6Y-5.75
X5.7Y-5.65
X5.7Y-5.75
X5.8Y-5.65
X5.8Y-5.75
X5.9Y-5.65
X5.9Y-5.75
T6
X5.2Y-5.2278
X5.2Y-5.3656
X5.2Y-4.9522
X5.2Y-5.09
T7
X5.2Y-4.5598
X5.2Y-4.7567
X6.15Y-4.05
X6.2892Y-4.1892
X5.2Y-4.1661
X5.2Y-4.363
T0
M30
