G04 #@! TF.GenerationSoftware,KiCad,Pcbnew,(5.0.2)-1*
G04 #@! TF.CreationDate,2019-03-19T13:08:56+03:00*
G04 #@! TF.ProjectId,STM32F407VET6,53544d33-3246-4343-9037-564554362e6b,rev?*
G04 #@! TF.SameCoordinates,Original*
G04 #@! TF.FileFunction,Copper,L1,Top*
G04 #@! TF.FilePolarity,Positive*
%FSLAX46Y46*%
G04 Gerber Fmt 4.6, Leading zero omitted, Abs format (unit mm)*
G04 Created by KiCad (PCBNEW (5.0.2)-1) date 19/03/2019 13:08:56*
%MOMM*%
%LPD*%
G01*
G04 APERTURE LIST*
G04 #@! TA.AperFunction,ComponentPad*
%ADD10C,2.600000*%
G04 #@! TD*
G04 #@! TA.AperFunction,Conductor*
%ADD11C,0.100000*%
G04 #@! TD*
G04 #@! TA.AperFunction,ComponentPad*
%ADD12C,1.700000*%
G04 #@! TD*
G04 #@! TA.AperFunction,ComponentPad*
%ADD13O,2.000000X1.700000*%
G04 #@! TD*
G04 #@! TA.AperFunction,ComponentPad*
%ADD14O,1.700000X1.700000*%
G04 #@! TD*
G04 #@! TA.AperFunction,SMDPad,CuDef*
%ADD15C,0.875000*%
G04 #@! TD*
G04 #@! TA.AperFunction,ComponentPad*
%ADD16C,1.600000*%
G04 #@! TD*
G04 #@! TA.AperFunction,SMDPad,CuDef*
%ADD17R,0.800000X0.900000*%
G04 #@! TD*
G04 #@! TA.AperFunction,SMDPad,CuDef*
%ADD18R,2.200000X1.200000*%
G04 #@! TD*
G04 #@! TA.AperFunction,SMDPad,CuDef*
%ADD19R,6.400000X5.800000*%
G04 #@! TD*
G04 #@! TA.AperFunction,ComponentPad*
%ADD20C,2.300000*%
G04 #@! TD*
G04 #@! TA.AperFunction,ComponentPad*
%ADD21R,1.727200X1.727200*%
G04 #@! TD*
G04 #@! TA.AperFunction,ComponentPad*
%ADD22O,1.727200X1.727200*%
G04 #@! TD*
G04 #@! TA.AperFunction,SMDPad,CuDef*
%ADD23R,0.650000X1.060000*%
G04 #@! TD*
G04 #@! TA.AperFunction,SMDPad,CuDef*
%ADD24R,9.400000X10.800000*%
G04 #@! TD*
G04 #@! TA.AperFunction,SMDPad,CuDef*
%ADD25R,4.600000X1.100000*%
G04 #@! TD*
G04 #@! TA.AperFunction,ComponentPad*
%ADD26O,1.700000X1.950000*%
G04 #@! TD*
G04 #@! TA.AperFunction,SMDPad,CuDef*
%ADD27C,1.900000*%
G04 #@! TD*
G04 #@! TA.AperFunction,ComponentPad*
%ADD28R,1.700000X1.700000*%
G04 #@! TD*
G04 #@! TA.AperFunction,SMDPad,CuDef*
%ADD29R,0.600000X1.550000*%
G04 #@! TD*
G04 #@! TA.AperFunction,ComponentPad*
%ADD30O,1.700000X2.000000*%
G04 #@! TD*
G04 #@! TA.AperFunction,ComponentPad*
%ADD31O,1.950000X1.700000*%
G04 #@! TD*
G04 #@! TA.AperFunction,ComponentPad*
%ADD32C,2.500000*%
G04 #@! TD*
G04 #@! TA.AperFunction,ViaPad*
%ADD33C,0.800000*%
G04 #@! TD*
G04 #@! TA.AperFunction,Conductor*
%ADD34C,1.000000*%
G04 #@! TD*
G04 #@! TA.AperFunction,Conductor*
%ADD35C,0.500000*%
G04 #@! TD*
G04 #@! TA.AperFunction,Conductor*
%ADD36C,0.300000*%
G04 #@! TD*
G04 #@! TA.AperFunction,Conductor*
%ADD37C,0.800000*%
G04 #@! TD*
G04 #@! TA.AperFunction,Conductor*
%ADD38C,2.000000*%
G04 #@! TD*
G04 #@! TA.AperFunction,Conductor*
%ADD39C,0.254000*%
G04 #@! TD*
G04 APERTURE END LIST*
D10*
G04 #@! TO.P,L1,1*
G04 #@! TO.N,Net-(D1-Pad1)*
X159745534Y-106405534D03*
G04 #@! TO.P,L1,2*
G04 #@! TO.N,5V*
X156210000Y-102870000D03*
G04 #@! TD*
D11*
G04 #@! TO.N,Net-(J10-Pad1)*
G04 #@! TO.C,J43*
G36*
X160794504Y-128691204D02*
X160818773Y-128694804D01*
X160842571Y-128700765D01*
X160865671Y-128709030D01*
X160887849Y-128719520D01*
X160908893Y-128732133D01*
X160928598Y-128746747D01*
X160946777Y-128763223D01*
X160963253Y-128781402D01*
X160977867Y-128801107D01*
X160990480Y-128822151D01*
X161000970Y-128844329D01*
X161009235Y-128867429D01*
X161015196Y-128891227D01*
X161018796Y-128915496D01*
X161020000Y-128940000D01*
X161020000Y-130140000D01*
X161018796Y-130164504D01*
X161015196Y-130188773D01*
X161009235Y-130212571D01*
X161000970Y-130235671D01*
X160990480Y-130257849D01*
X160977867Y-130278893D01*
X160963253Y-130298598D01*
X160946777Y-130316777D01*
X160928598Y-130333253D01*
X160908893Y-130347867D01*
X160887849Y-130360480D01*
X160865671Y-130370970D01*
X160842571Y-130379235D01*
X160818773Y-130385196D01*
X160794504Y-130388796D01*
X160770000Y-130390000D01*
X159270000Y-130390000D01*
X159245496Y-130388796D01*
X159221227Y-130385196D01*
X159197429Y-130379235D01*
X159174329Y-130370970D01*
X159152151Y-130360480D01*
X159131107Y-130347867D01*
X159111402Y-130333253D01*
X159093223Y-130316777D01*
X159076747Y-130298598D01*
X159062133Y-130278893D01*
X159049520Y-130257849D01*
X159039030Y-130235671D01*
X159030765Y-130212571D01*
X159024804Y-130188773D01*
X159021204Y-130164504D01*
X159020000Y-130140000D01*
X159020000Y-128940000D01*
X159021204Y-128915496D01*
X159024804Y-128891227D01*
X159030765Y-128867429D01*
X159039030Y-128844329D01*
X159049520Y-128822151D01*
X159062133Y-128801107D01*
X159076747Y-128781402D01*
X159093223Y-128763223D01*
X159111402Y-128746747D01*
X159131107Y-128732133D01*
X159152151Y-128719520D01*
X159174329Y-128709030D01*
X159197429Y-128700765D01*
X159221227Y-128694804D01*
X159245496Y-128691204D01*
X159270000Y-128690000D01*
X160770000Y-128690000D01*
X160794504Y-128691204D01*
X160794504Y-128691204D01*
G37*
D12*
G04 #@! TD*
G04 #@! TO.P,J43,1*
G04 #@! TO.N,Net-(J10-Pad1)*
X160020000Y-129540000D03*
D13*
G04 #@! TO.P,J43,2*
G04 #@! TO.N,Net-(J43-Pad2)*
X160020000Y-132040000D03*
G04 #@! TD*
D14*
G04 #@! TO.P,J52,3*
G04 #@! TO.N,GND*
X187960000Y-151130000D03*
G04 #@! TO.P,J52,2*
G04 #@! TO.N,Net-(J51-Pad2)*
X187960000Y-148590000D03*
D12*
G04 #@! TO.P,J52,1*
G04 #@! TO.N,PWM1*
X187960000Y-146050000D03*
G04 #@! TD*
G04 #@! TO.P,J30,1*
G04 #@! TO.N,3V3*
X187960000Y-83820000D03*
D14*
G04 #@! TO.P,J30,2*
X190500000Y-83820000D03*
G04 #@! TO.P,J30,3*
X187960000Y-86360000D03*
G04 #@! TO.P,J30,4*
X190500000Y-86360000D03*
G04 #@! TO.P,J30,5*
G04 #@! TO.N,GND*
X187960000Y-88900000D03*
G04 #@! TO.P,J30,6*
G04 #@! TO.N,Net-(J30-Pad6)*
X190500000Y-88900000D03*
G04 #@! TO.P,J30,7*
G04 #@! TO.N,GND*
X187960000Y-91440000D03*
G04 #@! TO.P,J30,8*
X190500000Y-91440000D03*
G04 #@! TO.P,J30,9*
X187960000Y-93980000D03*
G04 #@! TO.P,J30,10*
X190500000Y-93980000D03*
G04 #@! TO.P,J30,11*
G04 #@! TO.N,E1_Dir*
X187960000Y-96520000D03*
G04 #@! TO.P,J30,12*
G04 #@! TO.N,E1_Step*
X190500000Y-96520000D03*
G04 #@! TO.P,J30,13*
G04 #@! TO.N,E0_En*
X187960000Y-99060000D03*
G04 #@! TO.P,J30,14*
G04 #@! TO.N,E1_En*
X190500000Y-99060000D03*
G04 #@! TO.P,J30,15*
G04 #@! TO.N,SDA*
X187960000Y-101600000D03*
G04 #@! TO.P,J30,16*
G04 #@! TO.N,SCL*
X190500000Y-101600000D03*
G04 #@! TO.P,J30,17*
G04 #@! TO.N,Net-(J30-Pad17)*
X187960000Y-104140000D03*
G04 #@! TO.P,J30,18*
G04 #@! TO.N,Net-(J30-Pad18)*
X190500000Y-104140000D03*
G04 #@! TO.P,J30,19*
G04 #@! TO.N,E0_Step*
X187960000Y-106680000D03*
G04 #@! TO.P,J30,20*
G04 #@! TO.N,Z_En*
X190500000Y-106680000D03*
G04 #@! TO.P,J30,21*
G04 #@! TO.N,Z_Step*
X187960000Y-109220000D03*
G04 #@! TO.P,J30,22*
G04 #@! TO.N,Net-(J30-Pad22)*
X190500000Y-109220000D03*
G04 #@! TO.P,J30,23*
G04 #@! TO.N,Z_Dir*
X187960000Y-111760000D03*
G04 #@! TO.P,J30,24*
G04 #@! TO.N,SDIO_CMD*
X190500000Y-111760000D03*
G04 #@! TO.P,J30,25*
G04 #@! TO.N,Net-(J30-Pad25)*
X187960000Y-114300000D03*
G04 #@! TO.P,J30,26*
G04 #@! TO.N,E0_Dir*
X190500000Y-114300000D03*
G04 #@! TO.P,J30,27*
G04 #@! TO.N,SDIO_SCK*
X187960000Y-116840000D03*
G04 #@! TO.P,J30,28*
G04 #@! TO.N,SDIO_D3*
X190500000Y-116840000D03*
G04 #@! TO.P,J30,29*
G04 #@! TO.N,SDIO_D2*
X187960000Y-119380000D03*
G04 #@! TO.P,J30,30*
G04 #@! TO.N,X+*
X190500000Y-119380000D03*
G04 #@! TO.P,J30,31*
G04 #@! TO.N,USB_DM*
X187960000Y-121920000D03*
G04 #@! TO.P,J30,32*
G04 #@! TO.N,USB_DP*
X190500000Y-121920000D03*
G04 #@! TO.P,J30,33*
G04 #@! TO.N,RX*
X187960000Y-124460000D03*
G04 #@! TO.P,J30,34*
G04 #@! TO.N,TX*
X190500000Y-124460000D03*
G04 #@! TO.P,J30,35*
G04 #@! TO.N,SDIO_DET*
X187960000Y-127000000D03*
G04 #@! TO.P,J30,36*
G04 #@! TO.N,SDIO_D1*
X190500000Y-127000000D03*
G04 #@! TO.P,J30,37*
G04 #@! TO.N,SDIO_D0*
X187960000Y-129540000D03*
G04 #@! TO.P,J30,38*
G04 #@! TO.N,PWM2*
X190500000Y-129540000D03*
G04 #@! TO.P,J30,39*
G04 #@! TO.N,PWM1*
X187960000Y-132080000D03*
G04 #@! TO.P,J30,40*
G04 #@! TO.N,Z+*
X190500000Y-132080000D03*
G04 #@! TO.P,J30,41*
G04 #@! TO.N,Z-*
X187960000Y-134620000D03*
G04 #@! TO.P,J30,42*
G04 #@! TO.N,Net-(J30-Pad42)*
X190500000Y-134620000D03*
G04 #@! TO.P,J30,43*
G04 #@! TO.N,Y+*
X187960000Y-137160000D03*
G04 #@! TO.P,J30,44*
G04 #@! TO.N,PD11*
X190500000Y-137160000D03*
G04 #@! TO.P,J30,45*
G04 #@! TO.N,Net-(J30-Pad45)*
X187960000Y-139700000D03*
G04 #@! TO.P,J30,46*
G04 #@! TO.N,Net-(J30-Pad46)*
X190500000Y-139700000D03*
G04 #@! TO.P,J30,47*
G04 #@! TO.N,Net-(J30-Pad47)*
X187960000Y-142240000D03*
G04 #@! TO.P,J30,48*
G04 #@! TO.N,Net-(J30-Pad48)*
X190500000Y-142240000D03*
G04 #@! TD*
D11*
G04 #@! TO.N,T0*
G04 #@! TO.C,R1*
G36*
X129817691Y-90521053D02*
X129838926Y-90524203D01*
X129859750Y-90529419D01*
X129879962Y-90536651D01*
X129899368Y-90545830D01*
X129917781Y-90556866D01*
X129935024Y-90569654D01*
X129950930Y-90584070D01*
X129965346Y-90599976D01*
X129978134Y-90617219D01*
X129989170Y-90635632D01*
X129998349Y-90655038D01*
X130005581Y-90675250D01*
X130010797Y-90696074D01*
X130013947Y-90717309D01*
X130015000Y-90738750D01*
X130015000Y-91176250D01*
X130013947Y-91197691D01*
X130010797Y-91218926D01*
X130005581Y-91239750D01*
X129998349Y-91259962D01*
X129989170Y-91279368D01*
X129978134Y-91297781D01*
X129965346Y-91315024D01*
X129950930Y-91330930D01*
X129935024Y-91345346D01*
X129917781Y-91358134D01*
X129899368Y-91369170D01*
X129879962Y-91378349D01*
X129859750Y-91385581D01*
X129838926Y-91390797D01*
X129817691Y-91393947D01*
X129796250Y-91395000D01*
X129283750Y-91395000D01*
X129262309Y-91393947D01*
X129241074Y-91390797D01*
X129220250Y-91385581D01*
X129200038Y-91378349D01*
X129180632Y-91369170D01*
X129162219Y-91358134D01*
X129144976Y-91345346D01*
X129129070Y-91330930D01*
X129114654Y-91315024D01*
X129101866Y-91297781D01*
X129090830Y-91279368D01*
X129081651Y-91259962D01*
X129074419Y-91239750D01*
X129069203Y-91218926D01*
X129066053Y-91197691D01*
X129065000Y-91176250D01*
X129065000Y-90738750D01*
X129066053Y-90717309D01*
X129069203Y-90696074D01*
X129074419Y-90675250D01*
X129081651Y-90655038D01*
X129090830Y-90635632D01*
X129101866Y-90617219D01*
X129114654Y-90599976D01*
X129129070Y-90584070D01*
X129144976Y-90569654D01*
X129162219Y-90556866D01*
X129180632Y-90545830D01*
X129200038Y-90536651D01*
X129220250Y-90529419D01*
X129241074Y-90524203D01*
X129262309Y-90521053D01*
X129283750Y-90520000D01*
X129796250Y-90520000D01*
X129817691Y-90521053D01*
X129817691Y-90521053D01*
G37*
D15*
G04 #@! TD*
G04 #@! TO.P,R1,2*
G04 #@! TO.N,T0*
X129540000Y-90957500D03*
D11*
G04 #@! TO.N,3V3*
G04 #@! TO.C,R1*
G36*
X129817691Y-88946053D02*
X129838926Y-88949203D01*
X129859750Y-88954419D01*
X129879962Y-88961651D01*
X129899368Y-88970830D01*
X129917781Y-88981866D01*
X129935024Y-88994654D01*
X129950930Y-89009070D01*
X129965346Y-89024976D01*
X129978134Y-89042219D01*
X129989170Y-89060632D01*
X129998349Y-89080038D01*
X130005581Y-89100250D01*
X130010797Y-89121074D01*
X130013947Y-89142309D01*
X130015000Y-89163750D01*
X130015000Y-89601250D01*
X130013947Y-89622691D01*
X130010797Y-89643926D01*
X130005581Y-89664750D01*
X129998349Y-89684962D01*
X129989170Y-89704368D01*
X129978134Y-89722781D01*
X129965346Y-89740024D01*
X129950930Y-89755930D01*
X129935024Y-89770346D01*
X129917781Y-89783134D01*
X129899368Y-89794170D01*
X129879962Y-89803349D01*
X129859750Y-89810581D01*
X129838926Y-89815797D01*
X129817691Y-89818947D01*
X129796250Y-89820000D01*
X129283750Y-89820000D01*
X129262309Y-89818947D01*
X129241074Y-89815797D01*
X129220250Y-89810581D01*
X129200038Y-89803349D01*
X129180632Y-89794170D01*
X129162219Y-89783134D01*
X129144976Y-89770346D01*
X129129070Y-89755930D01*
X129114654Y-89740024D01*
X129101866Y-89722781D01*
X129090830Y-89704368D01*
X129081651Y-89684962D01*
X129074419Y-89664750D01*
X129069203Y-89643926D01*
X129066053Y-89622691D01*
X129065000Y-89601250D01*
X129065000Y-89163750D01*
X129066053Y-89142309D01*
X129069203Y-89121074D01*
X129074419Y-89100250D01*
X129081651Y-89080038D01*
X129090830Y-89060632D01*
X129101866Y-89042219D01*
X129114654Y-89024976D01*
X129129070Y-89009070D01*
X129144976Y-88994654D01*
X129162219Y-88981866D01*
X129180632Y-88970830D01*
X129200038Y-88961651D01*
X129220250Y-88954419D01*
X129241074Y-88949203D01*
X129262309Y-88946053D01*
X129283750Y-88945000D01*
X129796250Y-88945000D01*
X129817691Y-88946053D01*
X129817691Y-88946053D01*
G37*
D15*
G04 #@! TD*
G04 #@! TO.P,R1,1*
G04 #@! TO.N,3V3*
X129540000Y-89382500D03*
D11*
G04 #@! TO.N,TB*
G04 #@! TO.C,R3*
G36*
X145057691Y-90521053D02*
X145078926Y-90524203D01*
X145099750Y-90529419D01*
X145119962Y-90536651D01*
X145139368Y-90545830D01*
X145157781Y-90556866D01*
X145175024Y-90569654D01*
X145190930Y-90584070D01*
X145205346Y-90599976D01*
X145218134Y-90617219D01*
X145229170Y-90635632D01*
X145238349Y-90655038D01*
X145245581Y-90675250D01*
X145250797Y-90696074D01*
X145253947Y-90717309D01*
X145255000Y-90738750D01*
X145255000Y-91176250D01*
X145253947Y-91197691D01*
X145250797Y-91218926D01*
X145245581Y-91239750D01*
X145238349Y-91259962D01*
X145229170Y-91279368D01*
X145218134Y-91297781D01*
X145205346Y-91315024D01*
X145190930Y-91330930D01*
X145175024Y-91345346D01*
X145157781Y-91358134D01*
X145139368Y-91369170D01*
X145119962Y-91378349D01*
X145099750Y-91385581D01*
X145078926Y-91390797D01*
X145057691Y-91393947D01*
X145036250Y-91395000D01*
X144523750Y-91395000D01*
X144502309Y-91393947D01*
X144481074Y-91390797D01*
X144460250Y-91385581D01*
X144440038Y-91378349D01*
X144420632Y-91369170D01*
X144402219Y-91358134D01*
X144384976Y-91345346D01*
X144369070Y-91330930D01*
X144354654Y-91315024D01*
X144341866Y-91297781D01*
X144330830Y-91279368D01*
X144321651Y-91259962D01*
X144314419Y-91239750D01*
X144309203Y-91218926D01*
X144306053Y-91197691D01*
X144305000Y-91176250D01*
X144305000Y-90738750D01*
X144306053Y-90717309D01*
X144309203Y-90696074D01*
X144314419Y-90675250D01*
X144321651Y-90655038D01*
X144330830Y-90635632D01*
X144341866Y-90617219D01*
X144354654Y-90599976D01*
X144369070Y-90584070D01*
X144384976Y-90569654D01*
X144402219Y-90556866D01*
X144420632Y-90545830D01*
X144440038Y-90536651D01*
X144460250Y-90529419D01*
X144481074Y-90524203D01*
X144502309Y-90521053D01*
X144523750Y-90520000D01*
X145036250Y-90520000D01*
X145057691Y-90521053D01*
X145057691Y-90521053D01*
G37*
D15*
G04 #@! TD*
G04 #@! TO.P,R3,2*
G04 #@! TO.N,TB*
X144780000Y-90957500D03*
D11*
G04 #@! TO.N,3V3*
G04 #@! TO.C,R3*
G36*
X145057691Y-88946053D02*
X145078926Y-88949203D01*
X145099750Y-88954419D01*
X145119962Y-88961651D01*
X145139368Y-88970830D01*
X145157781Y-88981866D01*
X145175024Y-88994654D01*
X145190930Y-89009070D01*
X145205346Y-89024976D01*
X145218134Y-89042219D01*
X145229170Y-89060632D01*
X145238349Y-89080038D01*
X145245581Y-89100250D01*
X145250797Y-89121074D01*
X145253947Y-89142309D01*
X145255000Y-89163750D01*
X145255000Y-89601250D01*
X145253947Y-89622691D01*
X145250797Y-89643926D01*
X145245581Y-89664750D01*
X145238349Y-89684962D01*
X145229170Y-89704368D01*
X145218134Y-89722781D01*
X145205346Y-89740024D01*
X145190930Y-89755930D01*
X145175024Y-89770346D01*
X145157781Y-89783134D01*
X145139368Y-89794170D01*
X145119962Y-89803349D01*
X145099750Y-89810581D01*
X145078926Y-89815797D01*
X145057691Y-89818947D01*
X145036250Y-89820000D01*
X144523750Y-89820000D01*
X144502309Y-89818947D01*
X144481074Y-89815797D01*
X144460250Y-89810581D01*
X144440038Y-89803349D01*
X144420632Y-89794170D01*
X144402219Y-89783134D01*
X144384976Y-89770346D01*
X144369070Y-89755930D01*
X144354654Y-89740024D01*
X144341866Y-89722781D01*
X144330830Y-89704368D01*
X144321651Y-89684962D01*
X144314419Y-89664750D01*
X144309203Y-89643926D01*
X144306053Y-89622691D01*
X144305000Y-89601250D01*
X144305000Y-89163750D01*
X144306053Y-89142309D01*
X144309203Y-89121074D01*
X144314419Y-89100250D01*
X144321651Y-89080038D01*
X144330830Y-89060632D01*
X144341866Y-89042219D01*
X144354654Y-89024976D01*
X144369070Y-89009070D01*
X144384976Y-88994654D01*
X144402219Y-88981866D01*
X144420632Y-88970830D01*
X144440038Y-88961651D01*
X144460250Y-88954419D01*
X144481074Y-88949203D01*
X144502309Y-88946053D01*
X144523750Y-88945000D01*
X145036250Y-88945000D01*
X145057691Y-88946053D01*
X145057691Y-88946053D01*
G37*
D15*
G04 #@! TD*
G04 #@! TO.P,R3,1*
G04 #@! TO.N,3V3*
X144780000Y-89382500D03*
D11*
G04 #@! TO.N,TC*
G04 #@! TO.C,R4*
G36*
X152677691Y-90521053D02*
X152698926Y-90524203D01*
X152719750Y-90529419D01*
X152739962Y-90536651D01*
X152759368Y-90545830D01*
X152777781Y-90556866D01*
X152795024Y-90569654D01*
X152810930Y-90584070D01*
X152825346Y-90599976D01*
X152838134Y-90617219D01*
X152849170Y-90635632D01*
X152858349Y-90655038D01*
X152865581Y-90675250D01*
X152870797Y-90696074D01*
X152873947Y-90717309D01*
X152875000Y-90738750D01*
X152875000Y-91176250D01*
X152873947Y-91197691D01*
X152870797Y-91218926D01*
X152865581Y-91239750D01*
X152858349Y-91259962D01*
X152849170Y-91279368D01*
X152838134Y-91297781D01*
X152825346Y-91315024D01*
X152810930Y-91330930D01*
X152795024Y-91345346D01*
X152777781Y-91358134D01*
X152759368Y-91369170D01*
X152739962Y-91378349D01*
X152719750Y-91385581D01*
X152698926Y-91390797D01*
X152677691Y-91393947D01*
X152656250Y-91395000D01*
X152143750Y-91395000D01*
X152122309Y-91393947D01*
X152101074Y-91390797D01*
X152080250Y-91385581D01*
X152060038Y-91378349D01*
X152040632Y-91369170D01*
X152022219Y-91358134D01*
X152004976Y-91345346D01*
X151989070Y-91330930D01*
X151974654Y-91315024D01*
X151961866Y-91297781D01*
X151950830Y-91279368D01*
X151941651Y-91259962D01*
X151934419Y-91239750D01*
X151929203Y-91218926D01*
X151926053Y-91197691D01*
X151925000Y-91176250D01*
X151925000Y-90738750D01*
X151926053Y-90717309D01*
X151929203Y-90696074D01*
X151934419Y-90675250D01*
X151941651Y-90655038D01*
X151950830Y-90635632D01*
X151961866Y-90617219D01*
X151974654Y-90599976D01*
X151989070Y-90584070D01*
X152004976Y-90569654D01*
X152022219Y-90556866D01*
X152040632Y-90545830D01*
X152060038Y-90536651D01*
X152080250Y-90529419D01*
X152101074Y-90524203D01*
X152122309Y-90521053D01*
X152143750Y-90520000D01*
X152656250Y-90520000D01*
X152677691Y-90521053D01*
X152677691Y-90521053D01*
G37*
D15*
G04 #@! TD*
G04 #@! TO.P,R4,2*
G04 #@! TO.N,TC*
X152400000Y-90957500D03*
D11*
G04 #@! TO.N,3V3*
G04 #@! TO.C,R4*
G36*
X152677691Y-88946053D02*
X152698926Y-88949203D01*
X152719750Y-88954419D01*
X152739962Y-88961651D01*
X152759368Y-88970830D01*
X152777781Y-88981866D01*
X152795024Y-88994654D01*
X152810930Y-89009070D01*
X152825346Y-89024976D01*
X152838134Y-89042219D01*
X152849170Y-89060632D01*
X152858349Y-89080038D01*
X152865581Y-89100250D01*
X152870797Y-89121074D01*
X152873947Y-89142309D01*
X152875000Y-89163750D01*
X152875000Y-89601250D01*
X152873947Y-89622691D01*
X152870797Y-89643926D01*
X152865581Y-89664750D01*
X152858349Y-89684962D01*
X152849170Y-89704368D01*
X152838134Y-89722781D01*
X152825346Y-89740024D01*
X152810930Y-89755930D01*
X152795024Y-89770346D01*
X152777781Y-89783134D01*
X152759368Y-89794170D01*
X152739962Y-89803349D01*
X152719750Y-89810581D01*
X152698926Y-89815797D01*
X152677691Y-89818947D01*
X152656250Y-89820000D01*
X152143750Y-89820000D01*
X152122309Y-89818947D01*
X152101074Y-89815797D01*
X152080250Y-89810581D01*
X152060038Y-89803349D01*
X152040632Y-89794170D01*
X152022219Y-89783134D01*
X152004976Y-89770346D01*
X151989070Y-89755930D01*
X151974654Y-89740024D01*
X151961866Y-89722781D01*
X151950830Y-89704368D01*
X151941651Y-89684962D01*
X151934419Y-89664750D01*
X151929203Y-89643926D01*
X151926053Y-89622691D01*
X151925000Y-89601250D01*
X151925000Y-89163750D01*
X151926053Y-89142309D01*
X151929203Y-89121074D01*
X151934419Y-89100250D01*
X151941651Y-89080038D01*
X151950830Y-89060632D01*
X151961866Y-89042219D01*
X151974654Y-89024976D01*
X151989070Y-89009070D01*
X152004976Y-88994654D01*
X152022219Y-88981866D01*
X152040632Y-88970830D01*
X152060038Y-88961651D01*
X152080250Y-88954419D01*
X152101074Y-88949203D01*
X152122309Y-88946053D01*
X152143750Y-88945000D01*
X152656250Y-88945000D01*
X152677691Y-88946053D01*
X152677691Y-88946053D01*
G37*
D15*
G04 #@! TD*
G04 #@! TO.P,R4,1*
G04 #@! TO.N,3V3*
X152400000Y-89382500D03*
D11*
G04 #@! TO.N,T1*
G04 #@! TO.C,R2*
G36*
X137437691Y-90521053D02*
X137458926Y-90524203D01*
X137479750Y-90529419D01*
X137499962Y-90536651D01*
X137519368Y-90545830D01*
X137537781Y-90556866D01*
X137555024Y-90569654D01*
X137570930Y-90584070D01*
X137585346Y-90599976D01*
X137598134Y-90617219D01*
X137609170Y-90635632D01*
X137618349Y-90655038D01*
X137625581Y-90675250D01*
X137630797Y-90696074D01*
X137633947Y-90717309D01*
X137635000Y-90738750D01*
X137635000Y-91176250D01*
X137633947Y-91197691D01*
X137630797Y-91218926D01*
X137625581Y-91239750D01*
X137618349Y-91259962D01*
X137609170Y-91279368D01*
X137598134Y-91297781D01*
X137585346Y-91315024D01*
X137570930Y-91330930D01*
X137555024Y-91345346D01*
X137537781Y-91358134D01*
X137519368Y-91369170D01*
X137499962Y-91378349D01*
X137479750Y-91385581D01*
X137458926Y-91390797D01*
X137437691Y-91393947D01*
X137416250Y-91395000D01*
X136903750Y-91395000D01*
X136882309Y-91393947D01*
X136861074Y-91390797D01*
X136840250Y-91385581D01*
X136820038Y-91378349D01*
X136800632Y-91369170D01*
X136782219Y-91358134D01*
X136764976Y-91345346D01*
X136749070Y-91330930D01*
X136734654Y-91315024D01*
X136721866Y-91297781D01*
X136710830Y-91279368D01*
X136701651Y-91259962D01*
X136694419Y-91239750D01*
X136689203Y-91218926D01*
X136686053Y-91197691D01*
X136685000Y-91176250D01*
X136685000Y-90738750D01*
X136686053Y-90717309D01*
X136689203Y-90696074D01*
X136694419Y-90675250D01*
X136701651Y-90655038D01*
X136710830Y-90635632D01*
X136721866Y-90617219D01*
X136734654Y-90599976D01*
X136749070Y-90584070D01*
X136764976Y-90569654D01*
X136782219Y-90556866D01*
X136800632Y-90545830D01*
X136820038Y-90536651D01*
X136840250Y-90529419D01*
X136861074Y-90524203D01*
X136882309Y-90521053D01*
X136903750Y-90520000D01*
X137416250Y-90520000D01*
X137437691Y-90521053D01*
X137437691Y-90521053D01*
G37*
D15*
G04 #@! TD*
G04 #@! TO.P,R2,2*
G04 #@! TO.N,T1*
X137160000Y-90957500D03*
D11*
G04 #@! TO.N,3V3*
G04 #@! TO.C,R2*
G36*
X137437691Y-88946053D02*
X137458926Y-88949203D01*
X137479750Y-88954419D01*
X137499962Y-88961651D01*
X137519368Y-88970830D01*
X137537781Y-88981866D01*
X137555024Y-88994654D01*
X137570930Y-89009070D01*
X137585346Y-89024976D01*
X137598134Y-89042219D01*
X137609170Y-89060632D01*
X137618349Y-89080038D01*
X137625581Y-89100250D01*
X137630797Y-89121074D01*
X137633947Y-89142309D01*
X137635000Y-89163750D01*
X137635000Y-89601250D01*
X137633947Y-89622691D01*
X137630797Y-89643926D01*
X137625581Y-89664750D01*
X137618349Y-89684962D01*
X137609170Y-89704368D01*
X137598134Y-89722781D01*
X137585346Y-89740024D01*
X137570930Y-89755930D01*
X137555024Y-89770346D01*
X137537781Y-89783134D01*
X137519368Y-89794170D01*
X137499962Y-89803349D01*
X137479750Y-89810581D01*
X137458926Y-89815797D01*
X137437691Y-89818947D01*
X137416250Y-89820000D01*
X136903750Y-89820000D01*
X136882309Y-89818947D01*
X136861074Y-89815797D01*
X136840250Y-89810581D01*
X136820038Y-89803349D01*
X136800632Y-89794170D01*
X136782219Y-89783134D01*
X136764976Y-89770346D01*
X136749070Y-89755930D01*
X136734654Y-89740024D01*
X136721866Y-89722781D01*
X136710830Y-89704368D01*
X136701651Y-89684962D01*
X136694419Y-89664750D01*
X136689203Y-89643926D01*
X136686053Y-89622691D01*
X136685000Y-89601250D01*
X136685000Y-89163750D01*
X136686053Y-89142309D01*
X136689203Y-89121074D01*
X136694419Y-89100250D01*
X136701651Y-89080038D01*
X136710830Y-89060632D01*
X136721866Y-89042219D01*
X136734654Y-89024976D01*
X136749070Y-89009070D01*
X136764976Y-88994654D01*
X136782219Y-88981866D01*
X136800632Y-88970830D01*
X136820038Y-88961651D01*
X136840250Y-88954419D01*
X136861074Y-88949203D01*
X136882309Y-88946053D01*
X136903750Y-88945000D01*
X137416250Y-88945000D01*
X137437691Y-88946053D01*
X137437691Y-88946053D01*
G37*
D15*
G04 #@! TD*
G04 #@! TO.P,R2,1*
G04 #@! TO.N,3V3*
X137160000Y-89382500D03*
D16*
G04 #@! TO.P,C2,2*
G04 #@! TO.N,GND*
X141700000Y-90170000D03*
G04 #@! TO.P,C2,1*
G04 #@! TO.N,T1*
X139700000Y-90170000D03*
G04 #@! TD*
G04 #@! TO.P,C4,2*
G04 #@! TO.N,GND*
X156940000Y-90170000D03*
G04 #@! TO.P,C4,1*
G04 #@! TO.N,TC*
X154940000Y-90170000D03*
G04 #@! TD*
G04 #@! TO.P,C1,1*
G04 #@! TO.N,T0*
X131985000Y-90170000D03*
G04 #@! TO.P,C1,2*
G04 #@! TO.N,GND*
X133985000Y-90170000D03*
G04 #@! TD*
G04 #@! TO.P,C3,1*
G04 #@! TO.N,TB*
X147225000Y-90170000D03*
G04 #@! TO.P,C3,2*
G04 #@! TO.N,GND*
X149225000Y-90170000D03*
G04 #@! TD*
D11*
G04 #@! TO.N,Fan0*
G04 #@! TO.C,R16*
G36*
X156487691Y-138628553D02*
X156508926Y-138631703D01*
X156529750Y-138636919D01*
X156549962Y-138644151D01*
X156569368Y-138653330D01*
X156587781Y-138664366D01*
X156605024Y-138677154D01*
X156620930Y-138691570D01*
X156635346Y-138707476D01*
X156648134Y-138724719D01*
X156659170Y-138743132D01*
X156668349Y-138762538D01*
X156675581Y-138782750D01*
X156680797Y-138803574D01*
X156683947Y-138824809D01*
X156685000Y-138846250D01*
X156685000Y-139283750D01*
X156683947Y-139305191D01*
X156680797Y-139326426D01*
X156675581Y-139347250D01*
X156668349Y-139367462D01*
X156659170Y-139386868D01*
X156648134Y-139405281D01*
X156635346Y-139422524D01*
X156620930Y-139438430D01*
X156605024Y-139452846D01*
X156587781Y-139465634D01*
X156569368Y-139476670D01*
X156549962Y-139485849D01*
X156529750Y-139493081D01*
X156508926Y-139498297D01*
X156487691Y-139501447D01*
X156466250Y-139502500D01*
X155953750Y-139502500D01*
X155932309Y-139501447D01*
X155911074Y-139498297D01*
X155890250Y-139493081D01*
X155870038Y-139485849D01*
X155850632Y-139476670D01*
X155832219Y-139465634D01*
X155814976Y-139452846D01*
X155799070Y-139438430D01*
X155784654Y-139422524D01*
X155771866Y-139405281D01*
X155760830Y-139386868D01*
X155751651Y-139367462D01*
X155744419Y-139347250D01*
X155739203Y-139326426D01*
X155736053Y-139305191D01*
X155735000Y-139283750D01*
X155735000Y-138846250D01*
X155736053Y-138824809D01*
X155739203Y-138803574D01*
X155744419Y-138782750D01*
X155751651Y-138762538D01*
X155760830Y-138743132D01*
X155771866Y-138724719D01*
X155784654Y-138707476D01*
X155799070Y-138691570D01*
X155814976Y-138677154D01*
X155832219Y-138664366D01*
X155850632Y-138653330D01*
X155870038Y-138644151D01*
X155890250Y-138636919D01*
X155911074Y-138631703D01*
X155932309Y-138628553D01*
X155953750Y-138627500D01*
X156466250Y-138627500D01*
X156487691Y-138628553D01*
X156487691Y-138628553D01*
G37*
D15*
G04 #@! TD*
G04 #@! TO.P,R16,2*
G04 #@! TO.N,Fan0*
X156210000Y-139065000D03*
D11*
G04 #@! TO.N,Net-(Q7-Pad1)*
G04 #@! TO.C,R16*
G36*
X156487691Y-137053553D02*
X156508926Y-137056703D01*
X156529750Y-137061919D01*
X156549962Y-137069151D01*
X156569368Y-137078330D01*
X156587781Y-137089366D01*
X156605024Y-137102154D01*
X156620930Y-137116570D01*
X156635346Y-137132476D01*
X156648134Y-137149719D01*
X156659170Y-137168132D01*
X156668349Y-137187538D01*
X156675581Y-137207750D01*
X156680797Y-137228574D01*
X156683947Y-137249809D01*
X156685000Y-137271250D01*
X156685000Y-137708750D01*
X156683947Y-137730191D01*
X156680797Y-137751426D01*
X156675581Y-137772250D01*
X156668349Y-137792462D01*
X156659170Y-137811868D01*
X156648134Y-137830281D01*
X156635346Y-137847524D01*
X156620930Y-137863430D01*
X156605024Y-137877846D01*
X156587781Y-137890634D01*
X156569368Y-137901670D01*
X156549962Y-137910849D01*
X156529750Y-137918081D01*
X156508926Y-137923297D01*
X156487691Y-137926447D01*
X156466250Y-137927500D01*
X155953750Y-137927500D01*
X155932309Y-137926447D01*
X155911074Y-137923297D01*
X155890250Y-137918081D01*
X155870038Y-137910849D01*
X155850632Y-137901670D01*
X155832219Y-137890634D01*
X155814976Y-137877846D01*
X155799070Y-137863430D01*
X155784654Y-137847524D01*
X155771866Y-137830281D01*
X155760830Y-137811868D01*
X155751651Y-137792462D01*
X155744419Y-137772250D01*
X155739203Y-137751426D01*
X155736053Y-137730191D01*
X155735000Y-137708750D01*
X155735000Y-137271250D01*
X155736053Y-137249809D01*
X155739203Y-137228574D01*
X155744419Y-137207750D01*
X155751651Y-137187538D01*
X155760830Y-137168132D01*
X155771866Y-137149719D01*
X155784654Y-137132476D01*
X155799070Y-137116570D01*
X155814976Y-137102154D01*
X155832219Y-137089366D01*
X155850632Y-137078330D01*
X155870038Y-137069151D01*
X155890250Y-137061919D01*
X155911074Y-137056703D01*
X155932309Y-137053553D01*
X155953750Y-137052500D01*
X156466250Y-137052500D01*
X156487691Y-137053553D01*
X156487691Y-137053553D01*
G37*
D15*
G04 #@! TD*
G04 #@! TO.P,R16,1*
G04 #@! TO.N,Net-(Q7-Pad1)*
X156210000Y-137490000D03*
D11*
G04 #@! TO.N,Net-(Q7-Pad1)*
G04 #@! TO.C,R17*
G36*
X158482191Y-138591053D02*
X158503426Y-138594203D01*
X158524250Y-138599419D01*
X158544462Y-138606651D01*
X158563868Y-138615830D01*
X158582281Y-138626866D01*
X158599524Y-138639654D01*
X158615430Y-138654070D01*
X158629846Y-138669976D01*
X158642634Y-138687219D01*
X158653670Y-138705632D01*
X158662849Y-138725038D01*
X158670081Y-138745250D01*
X158675297Y-138766074D01*
X158678447Y-138787309D01*
X158679500Y-138808750D01*
X158679500Y-139321250D01*
X158678447Y-139342691D01*
X158675297Y-139363926D01*
X158670081Y-139384750D01*
X158662849Y-139404962D01*
X158653670Y-139424368D01*
X158642634Y-139442781D01*
X158629846Y-139460024D01*
X158615430Y-139475930D01*
X158599524Y-139490346D01*
X158582281Y-139503134D01*
X158563868Y-139514170D01*
X158544462Y-139523349D01*
X158524250Y-139530581D01*
X158503426Y-139535797D01*
X158482191Y-139538947D01*
X158460750Y-139540000D01*
X158023250Y-139540000D01*
X158001809Y-139538947D01*
X157980574Y-139535797D01*
X157959750Y-139530581D01*
X157939538Y-139523349D01*
X157920132Y-139514170D01*
X157901719Y-139503134D01*
X157884476Y-139490346D01*
X157868570Y-139475930D01*
X157854154Y-139460024D01*
X157841366Y-139442781D01*
X157830330Y-139424368D01*
X157821151Y-139404962D01*
X157813919Y-139384750D01*
X157808703Y-139363926D01*
X157805553Y-139342691D01*
X157804500Y-139321250D01*
X157804500Y-138808750D01*
X157805553Y-138787309D01*
X157808703Y-138766074D01*
X157813919Y-138745250D01*
X157821151Y-138725038D01*
X157830330Y-138705632D01*
X157841366Y-138687219D01*
X157854154Y-138669976D01*
X157868570Y-138654070D01*
X157884476Y-138639654D01*
X157901719Y-138626866D01*
X157920132Y-138615830D01*
X157939538Y-138606651D01*
X157959750Y-138599419D01*
X157980574Y-138594203D01*
X158001809Y-138591053D01*
X158023250Y-138590000D01*
X158460750Y-138590000D01*
X158482191Y-138591053D01*
X158482191Y-138591053D01*
G37*
D15*
G04 #@! TD*
G04 #@! TO.P,R17,2*
G04 #@! TO.N,Net-(Q7-Pad1)*
X158242000Y-139065000D03*
D11*
G04 #@! TO.N,GND*
G04 #@! TO.C,R17*
G36*
X160057191Y-138591053D02*
X160078426Y-138594203D01*
X160099250Y-138599419D01*
X160119462Y-138606651D01*
X160138868Y-138615830D01*
X160157281Y-138626866D01*
X160174524Y-138639654D01*
X160190430Y-138654070D01*
X160204846Y-138669976D01*
X160217634Y-138687219D01*
X160228670Y-138705632D01*
X160237849Y-138725038D01*
X160245081Y-138745250D01*
X160250297Y-138766074D01*
X160253447Y-138787309D01*
X160254500Y-138808750D01*
X160254500Y-139321250D01*
X160253447Y-139342691D01*
X160250297Y-139363926D01*
X160245081Y-139384750D01*
X160237849Y-139404962D01*
X160228670Y-139424368D01*
X160217634Y-139442781D01*
X160204846Y-139460024D01*
X160190430Y-139475930D01*
X160174524Y-139490346D01*
X160157281Y-139503134D01*
X160138868Y-139514170D01*
X160119462Y-139523349D01*
X160099250Y-139530581D01*
X160078426Y-139535797D01*
X160057191Y-139538947D01*
X160035750Y-139540000D01*
X159598250Y-139540000D01*
X159576809Y-139538947D01*
X159555574Y-139535797D01*
X159534750Y-139530581D01*
X159514538Y-139523349D01*
X159495132Y-139514170D01*
X159476719Y-139503134D01*
X159459476Y-139490346D01*
X159443570Y-139475930D01*
X159429154Y-139460024D01*
X159416366Y-139442781D01*
X159405330Y-139424368D01*
X159396151Y-139404962D01*
X159388919Y-139384750D01*
X159383703Y-139363926D01*
X159380553Y-139342691D01*
X159379500Y-139321250D01*
X159379500Y-138808750D01*
X159380553Y-138787309D01*
X159383703Y-138766074D01*
X159388919Y-138745250D01*
X159396151Y-138725038D01*
X159405330Y-138705632D01*
X159416366Y-138687219D01*
X159429154Y-138669976D01*
X159443570Y-138654070D01*
X159459476Y-138639654D01*
X159476719Y-138626866D01*
X159495132Y-138615830D01*
X159514538Y-138606651D01*
X159534750Y-138599419D01*
X159555574Y-138594203D01*
X159576809Y-138591053D01*
X159598250Y-138590000D01*
X160035750Y-138590000D01*
X160057191Y-138591053D01*
X160057191Y-138591053D01*
G37*
D15*
G04 #@! TD*
G04 #@! TO.P,R17,1*
G04 #@! TO.N,GND*
X159817000Y-139065000D03*
D11*
G04 #@! TO.N,GND*
G04 #@! TO.C,R15*
G36*
X167677191Y-138591053D02*
X167698426Y-138594203D01*
X167719250Y-138599419D01*
X167739462Y-138606651D01*
X167758868Y-138615830D01*
X167777281Y-138626866D01*
X167794524Y-138639654D01*
X167810430Y-138654070D01*
X167824846Y-138669976D01*
X167837634Y-138687219D01*
X167848670Y-138705632D01*
X167857849Y-138725038D01*
X167865081Y-138745250D01*
X167870297Y-138766074D01*
X167873447Y-138787309D01*
X167874500Y-138808750D01*
X167874500Y-139321250D01*
X167873447Y-139342691D01*
X167870297Y-139363926D01*
X167865081Y-139384750D01*
X167857849Y-139404962D01*
X167848670Y-139424368D01*
X167837634Y-139442781D01*
X167824846Y-139460024D01*
X167810430Y-139475930D01*
X167794524Y-139490346D01*
X167777281Y-139503134D01*
X167758868Y-139514170D01*
X167739462Y-139523349D01*
X167719250Y-139530581D01*
X167698426Y-139535797D01*
X167677191Y-139538947D01*
X167655750Y-139540000D01*
X167218250Y-139540000D01*
X167196809Y-139538947D01*
X167175574Y-139535797D01*
X167154750Y-139530581D01*
X167134538Y-139523349D01*
X167115132Y-139514170D01*
X167096719Y-139503134D01*
X167079476Y-139490346D01*
X167063570Y-139475930D01*
X167049154Y-139460024D01*
X167036366Y-139442781D01*
X167025330Y-139424368D01*
X167016151Y-139404962D01*
X167008919Y-139384750D01*
X167003703Y-139363926D01*
X167000553Y-139342691D01*
X166999500Y-139321250D01*
X166999500Y-138808750D01*
X167000553Y-138787309D01*
X167003703Y-138766074D01*
X167008919Y-138745250D01*
X167016151Y-138725038D01*
X167025330Y-138705632D01*
X167036366Y-138687219D01*
X167049154Y-138669976D01*
X167063570Y-138654070D01*
X167079476Y-138639654D01*
X167096719Y-138626866D01*
X167115132Y-138615830D01*
X167134538Y-138606651D01*
X167154750Y-138599419D01*
X167175574Y-138594203D01*
X167196809Y-138591053D01*
X167218250Y-138590000D01*
X167655750Y-138590000D01*
X167677191Y-138591053D01*
X167677191Y-138591053D01*
G37*
D15*
G04 #@! TD*
G04 #@! TO.P,R15,1*
G04 #@! TO.N,GND*
X167437000Y-139065000D03*
D11*
G04 #@! TO.N,Net-(Q6-Pad1)*
G04 #@! TO.C,R15*
G36*
X166102191Y-138591053D02*
X166123426Y-138594203D01*
X166144250Y-138599419D01*
X166164462Y-138606651D01*
X166183868Y-138615830D01*
X166202281Y-138626866D01*
X166219524Y-138639654D01*
X166235430Y-138654070D01*
X166249846Y-138669976D01*
X166262634Y-138687219D01*
X166273670Y-138705632D01*
X166282849Y-138725038D01*
X166290081Y-138745250D01*
X166295297Y-138766074D01*
X166298447Y-138787309D01*
X166299500Y-138808750D01*
X166299500Y-139321250D01*
X166298447Y-139342691D01*
X166295297Y-139363926D01*
X166290081Y-139384750D01*
X166282849Y-139404962D01*
X166273670Y-139424368D01*
X166262634Y-139442781D01*
X166249846Y-139460024D01*
X166235430Y-139475930D01*
X166219524Y-139490346D01*
X166202281Y-139503134D01*
X166183868Y-139514170D01*
X166164462Y-139523349D01*
X166144250Y-139530581D01*
X166123426Y-139535797D01*
X166102191Y-139538947D01*
X166080750Y-139540000D01*
X165643250Y-139540000D01*
X165621809Y-139538947D01*
X165600574Y-139535797D01*
X165579750Y-139530581D01*
X165559538Y-139523349D01*
X165540132Y-139514170D01*
X165521719Y-139503134D01*
X165504476Y-139490346D01*
X165488570Y-139475930D01*
X165474154Y-139460024D01*
X165461366Y-139442781D01*
X165450330Y-139424368D01*
X165441151Y-139404962D01*
X165433919Y-139384750D01*
X165428703Y-139363926D01*
X165425553Y-139342691D01*
X165424500Y-139321250D01*
X165424500Y-138808750D01*
X165425553Y-138787309D01*
X165428703Y-138766074D01*
X165433919Y-138745250D01*
X165441151Y-138725038D01*
X165450330Y-138705632D01*
X165461366Y-138687219D01*
X165474154Y-138669976D01*
X165488570Y-138654070D01*
X165504476Y-138639654D01*
X165521719Y-138626866D01*
X165540132Y-138615830D01*
X165559538Y-138606651D01*
X165579750Y-138599419D01*
X165600574Y-138594203D01*
X165621809Y-138591053D01*
X165643250Y-138590000D01*
X166080750Y-138590000D01*
X166102191Y-138591053D01*
X166102191Y-138591053D01*
G37*
D15*
G04 #@! TD*
G04 #@! TO.P,R15,2*
G04 #@! TO.N,Net-(Q6-Pad1)*
X165862000Y-139065000D03*
D11*
G04 #@! TO.N,GND*
G04 #@! TO.C,R11*
G36*
X182917191Y-138464053D02*
X182938426Y-138467203D01*
X182959250Y-138472419D01*
X182979462Y-138479651D01*
X182998868Y-138488830D01*
X183017281Y-138499866D01*
X183034524Y-138512654D01*
X183050430Y-138527070D01*
X183064846Y-138542976D01*
X183077634Y-138560219D01*
X183088670Y-138578632D01*
X183097849Y-138598038D01*
X183105081Y-138618250D01*
X183110297Y-138639074D01*
X183113447Y-138660309D01*
X183114500Y-138681750D01*
X183114500Y-139194250D01*
X183113447Y-139215691D01*
X183110297Y-139236926D01*
X183105081Y-139257750D01*
X183097849Y-139277962D01*
X183088670Y-139297368D01*
X183077634Y-139315781D01*
X183064846Y-139333024D01*
X183050430Y-139348930D01*
X183034524Y-139363346D01*
X183017281Y-139376134D01*
X182998868Y-139387170D01*
X182979462Y-139396349D01*
X182959250Y-139403581D01*
X182938426Y-139408797D01*
X182917191Y-139411947D01*
X182895750Y-139413000D01*
X182458250Y-139413000D01*
X182436809Y-139411947D01*
X182415574Y-139408797D01*
X182394750Y-139403581D01*
X182374538Y-139396349D01*
X182355132Y-139387170D01*
X182336719Y-139376134D01*
X182319476Y-139363346D01*
X182303570Y-139348930D01*
X182289154Y-139333024D01*
X182276366Y-139315781D01*
X182265330Y-139297368D01*
X182256151Y-139277962D01*
X182248919Y-139257750D01*
X182243703Y-139236926D01*
X182240553Y-139215691D01*
X182239500Y-139194250D01*
X182239500Y-138681750D01*
X182240553Y-138660309D01*
X182243703Y-138639074D01*
X182248919Y-138618250D01*
X182256151Y-138598038D01*
X182265330Y-138578632D01*
X182276366Y-138560219D01*
X182289154Y-138542976D01*
X182303570Y-138527070D01*
X182319476Y-138512654D01*
X182336719Y-138499866D01*
X182355132Y-138488830D01*
X182374538Y-138479651D01*
X182394750Y-138472419D01*
X182415574Y-138467203D01*
X182436809Y-138464053D01*
X182458250Y-138463000D01*
X182895750Y-138463000D01*
X182917191Y-138464053D01*
X182917191Y-138464053D01*
G37*
D15*
G04 #@! TD*
G04 #@! TO.P,R11,1*
G04 #@! TO.N,GND*
X182677000Y-138938000D03*
D11*
G04 #@! TO.N,Net-(Q4-Pad1)*
G04 #@! TO.C,R11*
G36*
X181342191Y-138464053D02*
X181363426Y-138467203D01*
X181384250Y-138472419D01*
X181404462Y-138479651D01*
X181423868Y-138488830D01*
X181442281Y-138499866D01*
X181459524Y-138512654D01*
X181475430Y-138527070D01*
X181489846Y-138542976D01*
X181502634Y-138560219D01*
X181513670Y-138578632D01*
X181522849Y-138598038D01*
X181530081Y-138618250D01*
X181535297Y-138639074D01*
X181538447Y-138660309D01*
X181539500Y-138681750D01*
X181539500Y-139194250D01*
X181538447Y-139215691D01*
X181535297Y-139236926D01*
X181530081Y-139257750D01*
X181522849Y-139277962D01*
X181513670Y-139297368D01*
X181502634Y-139315781D01*
X181489846Y-139333024D01*
X181475430Y-139348930D01*
X181459524Y-139363346D01*
X181442281Y-139376134D01*
X181423868Y-139387170D01*
X181404462Y-139396349D01*
X181384250Y-139403581D01*
X181363426Y-139408797D01*
X181342191Y-139411947D01*
X181320750Y-139413000D01*
X180883250Y-139413000D01*
X180861809Y-139411947D01*
X180840574Y-139408797D01*
X180819750Y-139403581D01*
X180799538Y-139396349D01*
X180780132Y-139387170D01*
X180761719Y-139376134D01*
X180744476Y-139363346D01*
X180728570Y-139348930D01*
X180714154Y-139333024D01*
X180701366Y-139315781D01*
X180690330Y-139297368D01*
X180681151Y-139277962D01*
X180673919Y-139257750D01*
X180668703Y-139236926D01*
X180665553Y-139215691D01*
X180664500Y-139194250D01*
X180664500Y-138681750D01*
X180665553Y-138660309D01*
X180668703Y-138639074D01*
X180673919Y-138618250D01*
X180681151Y-138598038D01*
X180690330Y-138578632D01*
X180701366Y-138560219D01*
X180714154Y-138542976D01*
X180728570Y-138527070D01*
X180744476Y-138512654D01*
X180761719Y-138499866D01*
X180780132Y-138488830D01*
X180799538Y-138479651D01*
X180819750Y-138472419D01*
X180840574Y-138467203D01*
X180861809Y-138464053D01*
X180883250Y-138463000D01*
X181320750Y-138463000D01*
X181342191Y-138464053D01*
X181342191Y-138464053D01*
G37*
D15*
G04 #@! TD*
G04 #@! TO.P,R11,2*
G04 #@! TO.N,Net-(Q4-Pad1)*
X181102000Y-138938000D03*
D11*
G04 #@! TO.N,Fan2*
G04 #@! TO.C,R12*
G36*
X171727691Y-138628553D02*
X171748926Y-138631703D01*
X171769750Y-138636919D01*
X171789962Y-138644151D01*
X171809368Y-138653330D01*
X171827781Y-138664366D01*
X171845024Y-138677154D01*
X171860930Y-138691570D01*
X171875346Y-138707476D01*
X171888134Y-138724719D01*
X171899170Y-138743132D01*
X171908349Y-138762538D01*
X171915581Y-138782750D01*
X171920797Y-138803574D01*
X171923947Y-138824809D01*
X171925000Y-138846250D01*
X171925000Y-139283750D01*
X171923947Y-139305191D01*
X171920797Y-139326426D01*
X171915581Y-139347250D01*
X171908349Y-139367462D01*
X171899170Y-139386868D01*
X171888134Y-139405281D01*
X171875346Y-139422524D01*
X171860930Y-139438430D01*
X171845024Y-139452846D01*
X171827781Y-139465634D01*
X171809368Y-139476670D01*
X171789962Y-139485849D01*
X171769750Y-139493081D01*
X171748926Y-139498297D01*
X171727691Y-139501447D01*
X171706250Y-139502500D01*
X171193750Y-139502500D01*
X171172309Y-139501447D01*
X171151074Y-139498297D01*
X171130250Y-139493081D01*
X171110038Y-139485849D01*
X171090632Y-139476670D01*
X171072219Y-139465634D01*
X171054976Y-139452846D01*
X171039070Y-139438430D01*
X171024654Y-139422524D01*
X171011866Y-139405281D01*
X171000830Y-139386868D01*
X170991651Y-139367462D01*
X170984419Y-139347250D01*
X170979203Y-139326426D01*
X170976053Y-139305191D01*
X170975000Y-139283750D01*
X170975000Y-138846250D01*
X170976053Y-138824809D01*
X170979203Y-138803574D01*
X170984419Y-138782750D01*
X170991651Y-138762538D01*
X171000830Y-138743132D01*
X171011866Y-138724719D01*
X171024654Y-138707476D01*
X171039070Y-138691570D01*
X171054976Y-138677154D01*
X171072219Y-138664366D01*
X171090632Y-138653330D01*
X171110038Y-138644151D01*
X171130250Y-138636919D01*
X171151074Y-138631703D01*
X171172309Y-138628553D01*
X171193750Y-138627500D01*
X171706250Y-138627500D01*
X171727691Y-138628553D01*
X171727691Y-138628553D01*
G37*
D15*
G04 #@! TD*
G04 #@! TO.P,R12,2*
G04 #@! TO.N,Fan2*
X171450000Y-139065000D03*
D11*
G04 #@! TO.N,Net-(Q5-Pad1)*
G04 #@! TO.C,R12*
G36*
X171727691Y-137053553D02*
X171748926Y-137056703D01*
X171769750Y-137061919D01*
X171789962Y-137069151D01*
X171809368Y-137078330D01*
X171827781Y-137089366D01*
X171845024Y-137102154D01*
X171860930Y-137116570D01*
X171875346Y-137132476D01*
X171888134Y-137149719D01*
X171899170Y-137168132D01*
X171908349Y-137187538D01*
X171915581Y-137207750D01*
X171920797Y-137228574D01*
X171923947Y-137249809D01*
X171925000Y-137271250D01*
X171925000Y-137708750D01*
X171923947Y-137730191D01*
X171920797Y-137751426D01*
X171915581Y-137772250D01*
X171908349Y-137792462D01*
X171899170Y-137811868D01*
X171888134Y-137830281D01*
X171875346Y-137847524D01*
X171860930Y-137863430D01*
X171845024Y-137877846D01*
X171827781Y-137890634D01*
X171809368Y-137901670D01*
X171789962Y-137910849D01*
X171769750Y-137918081D01*
X171748926Y-137923297D01*
X171727691Y-137926447D01*
X171706250Y-137927500D01*
X171193750Y-137927500D01*
X171172309Y-137926447D01*
X171151074Y-137923297D01*
X171130250Y-137918081D01*
X171110038Y-137910849D01*
X171090632Y-137901670D01*
X171072219Y-137890634D01*
X171054976Y-137877846D01*
X171039070Y-137863430D01*
X171024654Y-137847524D01*
X171011866Y-137830281D01*
X171000830Y-137811868D01*
X170991651Y-137792462D01*
X170984419Y-137772250D01*
X170979203Y-137751426D01*
X170976053Y-137730191D01*
X170975000Y-137708750D01*
X170975000Y-137271250D01*
X170976053Y-137249809D01*
X170979203Y-137228574D01*
X170984419Y-137207750D01*
X170991651Y-137187538D01*
X171000830Y-137168132D01*
X171011866Y-137149719D01*
X171024654Y-137132476D01*
X171039070Y-137116570D01*
X171054976Y-137102154D01*
X171072219Y-137089366D01*
X171090632Y-137078330D01*
X171110038Y-137069151D01*
X171130250Y-137061919D01*
X171151074Y-137056703D01*
X171172309Y-137053553D01*
X171193750Y-137052500D01*
X171706250Y-137052500D01*
X171727691Y-137053553D01*
X171727691Y-137053553D01*
G37*
D15*
G04 #@! TD*
G04 #@! TO.P,R12,1*
G04 #@! TO.N,Net-(Q5-Pad1)*
X171450000Y-137490000D03*
D11*
G04 #@! TO.N,Net-(Q5-Pad1)*
G04 #@! TO.C,R13*
G36*
X173722191Y-138591053D02*
X173743426Y-138594203D01*
X173764250Y-138599419D01*
X173784462Y-138606651D01*
X173803868Y-138615830D01*
X173822281Y-138626866D01*
X173839524Y-138639654D01*
X173855430Y-138654070D01*
X173869846Y-138669976D01*
X173882634Y-138687219D01*
X173893670Y-138705632D01*
X173902849Y-138725038D01*
X173910081Y-138745250D01*
X173915297Y-138766074D01*
X173918447Y-138787309D01*
X173919500Y-138808750D01*
X173919500Y-139321250D01*
X173918447Y-139342691D01*
X173915297Y-139363926D01*
X173910081Y-139384750D01*
X173902849Y-139404962D01*
X173893670Y-139424368D01*
X173882634Y-139442781D01*
X173869846Y-139460024D01*
X173855430Y-139475930D01*
X173839524Y-139490346D01*
X173822281Y-139503134D01*
X173803868Y-139514170D01*
X173784462Y-139523349D01*
X173764250Y-139530581D01*
X173743426Y-139535797D01*
X173722191Y-139538947D01*
X173700750Y-139540000D01*
X173263250Y-139540000D01*
X173241809Y-139538947D01*
X173220574Y-139535797D01*
X173199750Y-139530581D01*
X173179538Y-139523349D01*
X173160132Y-139514170D01*
X173141719Y-139503134D01*
X173124476Y-139490346D01*
X173108570Y-139475930D01*
X173094154Y-139460024D01*
X173081366Y-139442781D01*
X173070330Y-139424368D01*
X173061151Y-139404962D01*
X173053919Y-139384750D01*
X173048703Y-139363926D01*
X173045553Y-139342691D01*
X173044500Y-139321250D01*
X173044500Y-138808750D01*
X173045553Y-138787309D01*
X173048703Y-138766074D01*
X173053919Y-138745250D01*
X173061151Y-138725038D01*
X173070330Y-138705632D01*
X173081366Y-138687219D01*
X173094154Y-138669976D01*
X173108570Y-138654070D01*
X173124476Y-138639654D01*
X173141719Y-138626866D01*
X173160132Y-138615830D01*
X173179538Y-138606651D01*
X173199750Y-138599419D01*
X173220574Y-138594203D01*
X173241809Y-138591053D01*
X173263250Y-138590000D01*
X173700750Y-138590000D01*
X173722191Y-138591053D01*
X173722191Y-138591053D01*
G37*
D15*
G04 #@! TD*
G04 #@! TO.P,R13,2*
G04 #@! TO.N,Net-(Q5-Pad1)*
X173482000Y-139065000D03*
D11*
G04 #@! TO.N,GND*
G04 #@! TO.C,R13*
G36*
X175297191Y-138591053D02*
X175318426Y-138594203D01*
X175339250Y-138599419D01*
X175359462Y-138606651D01*
X175378868Y-138615830D01*
X175397281Y-138626866D01*
X175414524Y-138639654D01*
X175430430Y-138654070D01*
X175444846Y-138669976D01*
X175457634Y-138687219D01*
X175468670Y-138705632D01*
X175477849Y-138725038D01*
X175485081Y-138745250D01*
X175490297Y-138766074D01*
X175493447Y-138787309D01*
X175494500Y-138808750D01*
X175494500Y-139321250D01*
X175493447Y-139342691D01*
X175490297Y-139363926D01*
X175485081Y-139384750D01*
X175477849Y-139404962D01*
X175468670Y-139424368D01*
X175457634Y-139442781D01*
X175444846Y-139460024D01*
X175430430Y-139475930D01*
X175414524Y-139490346D01*
X175397281Y-139503134D01*
X175378868Y-139514170D01*
X175359462Y-139523349D01*
X175339250Y-139530581D01*
X175318426Y-139535797D01*
X175297191Y-139538947D01*
X175275750Y-139540000D01*
X174838250Y-139540000D01*
X174816809Y-139538947D01*
X174795574Y-139535797D01*
X174774750Y-139530581D01*
X174754538Y-139523349D01*
X174735132Y-139514170D01*
X174716719Y-139503134D01*
X174699476Y-139490346D01*
X174683570Y-139475930D01*
X174669154Y-139460024D01*
X174656366Y-139442781D01*
X174645330Y-139424368D01*
X174636151Y-139404962D01*
X174628919Y-139384750D01*
X174623703Y-139363926D01*
X174620553Y-139342691D01*
X174619500Y-139321250D01*
X174619500Y-138808750D01*
X174620553Y-138787309D01*
X174623703Y-138766074D01*
X174628919Y-138745250D01*
X174636151Y-138725038D01*
X174645330Y-138705632D01*
X174656366Y-138687219D01*
X174669154Y-138669976D01*
X174683570Y-138654070D01*
X174699476Y-138639654D01*
X174716719Y-138626866D01*
X174735132Y-138615830D01*
X174754538Y-138606651D01*
X174774750Y-138599419D01*
X174795574Y-138594203D01*
X174816809Y-138591053D01*
X174838250Y-138590000D01*
X175275750Y-138590000D01*
X175297191Y-138591053D01*
X175297191Y-138591053D01*
G37*
D15*
G04 #@! TD*
G04 #@! TO.P,R13,1*
G04 #@! TO.N,GND*
X175057000Y-139065000D03*
D11*
G04 #@! TO.N,Net-(Q6-Pad1)*
G04 #@! TO.C,R14*
G36*
X164107691Y-137053553D02*
X164128926Y-137056703D01*
X164149750Y-137061919D01*
X164169962Y-137069151D01*
X164189368Y-137078330D01*
X164207781Y-137089366D01*
X164225024Y-137102154D01*
X164240930Y-137116570D01*
X164255346Y-137132476D01*
X164268134Y-137149719D01*
X164279170Y-137168132D01*
X164288349Y-137187538D01*
X164295581Y-137207750D01*
X164300797Y-137228574D01*
X164303947Y-137249809D01*
X164305000Y-137271250D01*
X164305000Y-137708750D01*
X164303947Y-137730191D01*
X164300797Y-137751426D01*
X164295581Y-137772250D01*
X164288349Y-137792462D01*
X164279170Y-137811868D01*
X164268134Y-137830281D01*
X164255346Y-137847524D01*
X164240930Y-137863430D01*
X164225024Y-137877846D01*
X164207781Y-137890634D01*
X164189368Y-137901670D01*
X164169962Y-137910849D01*
X164149750Y-137918081D01*
X164128926Y-137923297D01*
X164107691Y-137926447D01*
X164086250Y-137927500D01*
X163573750Y-137927500D01*
X163552309Y-137926447D01*
X163531074Y-137923297D01*
X163510250Y-137918081D01*
X163490038Y-137910849D01*
X163470632Y-137901670D01*
X163452219Y-137890634D01*
X163434976Y-137877846D01*
X163419070Y-137863430D01*
X163404654Y-137847524D01*
X163391866Y-137830281D01*
X163380830Y-137811868D01*
X163371651Y-137792462D01*
X163364419Y-137772250D01*
X163359203Y-137751426D01*
X163356053Y-137730191D01*
X163355000Y-137708750D01*
X163355000Y-137271250D01*
X163356053Y-137249809D01*
X163359203Y-137228574D01*
X163364419Y-137207750D01*
X163371651Y-137187538D01*
X163380830Y-137168132D01*
X163391866Y-137149719D01*
X163404654Y-137132476D01*
X163419070Y-137116570D01*
X163434976Y-137102154D01*
X163452219Y-137089366D01*
X163470632Y-137078330D01*
X163490038Y-137069151D01*
X163510250Y-137061919D01*
X163531074Y-137056703D01*
X163552309Y-137053553D01*
X163573750Y-137052500D01*
X164086250Y-137052500D01*
X164107691Y-137053553D01*
X164107691Y-137053553D01*
G37*
D15*
G04 #@! TD*
G04 #@! TO.P,R14,1*
G04 #@! TO.N,Net-(Q6-Pad1)*
X163830000Y-137490000D03*
D11*
G04 #@! TO.N,Fan1*
G04 #@! TO.C,R14*
G36*
X164107691Y-138628553D02*
X164128926Y-138631703D01*
X164149750Y-138636919D01*
X164169962Y-138644151D01*
X164189368Y-138653330D01*
X164207781Y-138664366D01*
X164225024Y-138677154D01*
X164240930Y-138691570D01*
X164255346Y-138707476D01*
X164268134Y-138724719D01*
X164279170Y-138743132D01*
X164288349Y-138762538D01*
X164295581Y-138782750D01*
X164300797Y-138803574D01*
X164303947Y-138824809D01*
X164305000Y-138846250D01*
X164305000Y-139283750D01*
X164303947Y-139305191D01*
X164300797Y-139326426D01*
X164295581Y-139347250D01*
X164288349Y-139367462D01*
X164279170Y-139386868D01*
X164268134Y-139405281D01*
X164255346Y-139422524D01*
X164240930Y-139438430D01*
X164225024Y-139452846D01*
X164207781Y-139465634D01*
X164189368Y-139476670D01*
X164169962Y-139485849D01*
X164149750Y-139493081D01*
X164128926Y-139498297D01*
X164107691Y-139501447D01*
X164086250Y-139502500D01*
X163573750Y-139502500D01*
X163552309Y-139501447D01*
X163531074Y-139498297D01*
X163510250Y-139493081D01*
X163490038Y-139485849D01*
X163470632Y-139476670D01*
X163452219Y-139465634D01*
X163434976Y-139452846D01*
X163419070Y-139438430D01*
X163404654Y-139422524D01*
X163391866Y-139405281D01*
X163380830Y-139386868D01*
X163371651Y-139367462D01*
X163364419Y-139347250D01*
X163359203Y-139326426D01*
X163356053Y-139305191D01*
X163355000Y-139283750D01*
X163355000Y-138846250D01*
X163356053Y-138824809D01*
X163359203Y-138803574D01*
X163364419Y-138782750D01*
X163371651Y-138762538D01*
X163380830Y-138743132D01*
X163391866Y-138724719D01*
X163404654Y-138707476D01*
X163419070Y-138691570D01*
X163434976Y-138677154D01*
X163452219Y-138664366D01*
X163470632Y-138653330D01*
X163490038Y-138644151D01*
X163510250Y-138636919D01*
X163531074Y-138631703D01*
X163552309Y-138628553D01*
X163573750Y-138627500D01*
X164086250Y-138627500D01*
X164107691Y-138628553D01*
X164107691Y-138628553D01*
G37*
D15*
G04 #@! TD*
G04 #@! TO.P,R14,2*
G04 #@! TO.N,Fan1*
X163830000Y-139065000D03*
D11*
G04 #@! TO.N,Net-(Q4-Pad1)*
G04 #@! TO.C,R10*
G36*
X179347691Y-137053553D02*
X179368926Y-137056703D01*
X179389750Y-137061919D01*
X179409962Y-137069151D01*
X179429368Y-137078330D01*
X179447781Y-137089366D01*
X179465024Y-137102154D01*
X179480930Y-137116570D01*
X179495346Y-137132476D01*
X179508134Y-137149719D01*
X179519170Y-137168132D01*
X179528349Y-137187538D01*
X179535581Y-137207750D01*
X179540797Y-137228574D01*
X179543947Y-137249809D01*
X179545000Y-137271250D01*
X179545000Y-137708750D01*
X179543947Y-137730191D01*
X179540797Y-137751426D01*
X179535581Y-137772250D01*
X179528349Y-137792462D01*
X179519170Y-137811868D01*
X179508134Y-137830281D01*
X179495346Y-137847524D01*
X179480930Y-137863430D01*
X179465024Y-137877846D01*
X179447781Y-137890634D01*
X179429368Y-137901670D01*
X179409962Y-137910849D01*
X179389750Y-137918081D01*
X179368926Y-137923297D01*
X179347691Y-137926447D01*
X179326250Y-137927500D01*
X178813750Y-137927500D01*
X178792309Y-137926447D01*
X178771074Y-137923297D01*
X178750250Y-137918081D01*
X178730038Y-137910849D01*
X178710632Y-137901670D01*
X178692219Y-137890634D01*
X178674976Y-137877846D01*
X178659070Y-137863430D01*
X178644654Y-137847524D01*
X178631866Y-137830281D01*
X178620830Y-137811868D01*
X178611651Y-137792462D01*
X178604419Y-137772250D01*
X178599203Y-137751426D01*
X178596053Y-137730191D01*
X178595000Y-137708750D01*
X178595000Y-137271250D01*
X178596053Y-137249809D01*
X178599203Y-137228574D01*
X178604419Y-137207750D01*
X178611651Y-137187538D01*
X178620830Y-137168132D01*
X178631866Y-137149719D01*
X178644654Y-137132476D01*
X178659070Y-137116570D01*
X178674976Y-137102154D01*
X178692219Y-137089366D01*
X178710632Y-137078330D01*
X178730038Y-137069151D01*
X178750250Y-137061919D01*
X178771074Y-137056703D01*
X178792309Y-137053553D01*
X178813750Y-137052500D01*
X179326250Y-137052500D01*
X179347691Y-137053553D01*
X179347691Y-137053553D01*
G37*
D15*
G04 #@! TD*
G04 #@! TO.P,R10,1*
G04 #@! TO.N,Net-(Q4-Pad1)*
X179070000Y-137490000D03*
D11*
G04 #@! TO.N,Fan3*
G04 #@! TO.C,R10*
G36*
X179347691Y-138628553D02*
X179368926Y-138631703D01*
X179389750Y-138636919D01*
X179409962Y-138644151D01*
X179429368Y-138653330D01*
X179447781Y-138664366D01*
X179465024Y-138677154D01*
X179480930Y-138691570D01*
X179495346Y-138707476D01*
X179508134Y-138724719D01*
X179519170Y-138743132D01*
X179528349Y-138762538D01*
X179535581Y-138782750D01*
X179540797Y-138803574D01*
X179543947Y-138824809D01*
X179545000Y-138846250D01*
X179545000Y-139283750D01*
X179543947Y-139305191D01*
X179540797Y-139326426D01*
X179535581Y-139347250D01*
X179528349Y-139367462D01*
X179519170Y-139386868D01*
X179508134Y-139405281D01*
X179495346Y-139422524D01*
X179480930Y-139438430D01*
X179465024Y-139452846D01*
X179447781Y-139465634D01*
X179429368Y-139476670D01*
X179409962Y-139485849D01*
X179389750Y-139493081D01*
X179368926Y-139498297D01*
X179347691Y-139501447D01*
X179326250Y-139502500D01*
X178813750Y-139502500D01*
X178792309Y-139501447D01*
X178771074Y-139498297D01*
X178750250Y-139493081D01*
X178730038Y-139485849D01*
X178710632Y-139476670D01*
X178692219Y-139465634D01*
X178674976Y-139452846D01*
X178659070Y-139438430D01*
X178644654Y-139422524D01*
X178631866Y-139405281D01*
X178620830Y-139386868D01*
X178611651Y-139367462D01*
X178604419Y-139347250D01*
X178599203Y-139326426D01*
X178596053Y-139305191D01*
X178595000Y-139283750D01*
X178595000Y-138846250D01*
X178596053Y-138824809D01*
X178599203Y-138803574D01*
X178604419Y-138782750D01*
X178611651Y-138762538D01*
X178620830Y-138743132D01*
X178631866Y-138724719D01*
X178644654Y-138707476D01*
X178659070Y-138691570D01*
X178674976Y-138677154D01*
X178692219Y-138664366D01*
X178710632Y-138653330D01*
X178730038Y-138644151D01*
X178750250Y-138636919D01*
X178771074Y-138631703D01*
X178792309Y-138628553D01*
X178813750Y-138627500D01*
X179326250Y-138627500D01*
X179347691Y-138628553D01*
X179347691Y-138628553D01*
G37*
D15*
G04 #@! TD*
G04 #@! TO.P,R10,2*
G04 #@! TO.N,Fan3*
X179070000Y-139065000D03*
D17*
G04 #@! TO.P,Q7,3*
G04 #@! TO.N,Net-(J43-Pad2)*
X159070000Y-135795000D03*
G04 #@! TO.P,Q7,2*
G04 #@! TO.N,GND*
X160020000Y-137795000D03*
G04 #@! TO.P,Q7,1*
G04 #@! TO.N,Net-(Q7-Pad1)*
X158120000Y-137795000D03*
G04 #@! TD*
G04 #@! TO.P,Q4,3*
G04 #@! TO.N,Net-(J9-Pad2)*
X181930000Y-135795000D03*
G04 #@! TO.P,Q4,2*
G04 #@! TO.N,GND*
X182880000Y-137795000D03*
G04 #@! TO.P,Q4,1*
G04 #@! TO.N,Net-(Q4-Pad1)*
X180980000Y-137795000D03*
G04 #@! TD*
G04 #@! TO.P,Q5,1*
G04 #@! TO.N,Net-(Q5-Pad1)*
X173360000Y-137795000D03*
G04 #@! TO.P,Q5,2*
G04 #@! TO.N,GND*
X175260000Y-137795000D03*
G04 #@! TO.P,Q5,3*
G04 #@! TO.N,Net-(J10-Pad2)*
X174310000Y-135795000D03*
G04 #@! TD*
G04 #@! TO.P,Q6,3*
G04 #@! TO.N,Net-(J11-Pad2)*
X166690000Y-135795000D03*
G04 #@! TO.P,Q6,2*
G04 #@! TO.N,GND*
X167640000Y-137795000D03*
G04 #@! TO.P,Q6,1*
G04 #@! TO.N,Net-(Q6-Pad1)*
X165740000Y-137795000D03*
G04 #@! TD*
D16*
G04 #@! TO.P,C5,1*
G04 #@! TO.N,12V*
X156210000Y-113030000D03*
G04 #@! TO.P,C5,2*
G04 #@! TO.N,GND*
X158684874Y-115504874D03*
G04 #@! TD*
D18*
G04 #@! TO.P,Q2,1*
G04 #@! TO.N,Net-(Q2-Pad1)*
X146000000Y-129315000D03*
G04 #@! TO.P,Q2,3*
G04 #@! TO.N,GND*
X146000000Y-124755000D03*
D19*
G04 #@! TO.P,Q2,2*
G04 #@! TO.N,Net-(J7-Pad1)*
X139700000Y-127035000D03*
G04 #@! TD*
D20*
G04 #@! TO.P,J7,2*
G04 #@! TO.N,12V*
X132080000Y-129285000D03*
G04 #@! TO.P,J7,1*
G04 #@! TO.N,Net-(J7-Pad1)*
X132080000Y-125785000D03*
G04 #@! TD*
G04 #@! TO.P,J8,1*
G04 #@! TO.N,Net-(J8-Pad1)*
X132080000Y-132785000D03*
G04 #@! TO.P,J8,2*
G04 #@! TO.N,12V*
X132080000Y-136285000D03*
G04 #@! TD*
D21*
G04 #@! TO.P,J23,1*
G04 #@! TO.N,Abort*
X139700000Y-146050000D03*
D22*
G04 #@! TO.P,J23,2*
G04 #@! TO.N,GND*
X139700000Y-143510000D03*
G04 #@! TO.P,J23,3*
G04 #@! TO.N,Reset*
X142240000Y-146050000D03*
G04 #@! TO.P,J23,4*
G04 #@! TO.N,SDDET*
X142240000Y-143510000D03*
G04 #@! TO.P,J23,5*
G04 #@! TO.N,MOSI*
X144780000Y-146050000D03*
G04 #@! TO.P,J23,6*
G04 #@! TO.N,EN2*
X144780000Y-143510000D03*
G04 #@! TO.P,J23,7*
G04 #@! TO.N,SDSS*
X147320000Y-146050000D03*
G04 #@! TO.P,J23,8*
G04 #@! TO.N,EN1*
X147320000Y-143510000D03*
G04 #@! TO.P,J23,9*
G04 #@! TO.N,CLK*
X149860000Y-146050000D03*
G04 #@! TO.P,J23,10*
G04 #@! TO.N,MISO*
X149860000Y-143510000D03*
G04 #@! TD*
D12*
G04 #@! TO.P,J25,1*
G04 #@! TO.N,GND*
X175260000Y-151130000D03*
D14*
G04 #@! TO.P,J25,2*
G04 #@! TO.N,Reset*
X175260000Y-153670000D03*
G04 #@! TO.P,J25,3*
G04 #@! TO.N,Beeper*
X172720000Y-151130000D03*
G04 #@! TO.P,J25,4*
G04 #@! TO.N,ENC*
X172720000Y-153670000D03*
G04 #@! TO.P,J25,5*
G04 #@! TO.N,LCDE*
X170180000Y-151130000D03*
G04 #@! TO.P,J25,6*
G04 #@! TO.N,LCDRS*
X170180000Y-153670000D03*
G04 #@! TO.P,J25,7*
G04 #@! TO.N,Fan3*
X167640000Y-151130000D03*
G04 #@! TO.P,J25,8*
G04 #@! TO.N,Fan2*
X167640000Y-153670000D03*
G04 #@! TO.P,J25,9*
G04 #@! TO.N,LCD5*
X165100000Y-151130000D03*
G04 #@! TO.P,J25,10*
G04 #@! TO.N,Fan1*
X165100000Y-153670000D03*
G04 #@! TO.P,J25,11*
G04 #@! TO.N,LCD4*
X162560000Y-151130000D03*
G04 #@! TO.P,J25,12*
G04 #@! TO.N,Fan0*
X162560000Y-153670000D03*
G04 #@! TO.P,J25,13*
G04 #@! TO.N,LCD7*
X160020000Y-151130000D03*
G04 #@! TO.P,J25,14*
G04 #@! TO.N,Net-(J25-Pad14)*
X160020000Y-153670000D03*
G04 #@! TO.P,J25,15*
G04 #@! TO.N,LCD6*
X157480000Y-151130000D03*
G04 #@! TO.P,J25,16*
G04 #@! TO.N,Net-(J25-Pad16)*
X157480000Y-153670000D03*
G04 #@! TO.P,J25,17*
G04 #@! TO.N,Net-(J25-Pad17)*
X154940000Y-151130000D03*
G04 #@! TO.P,J25,18*
G04 #@! TO.N,Net-(J25-Pad18)*
X154940000Y-153670000D03*
G04 #@! TO.P,J25,19*
G04 #@! TO.N,EN1*
X152400000Y-151130000D03*
G04 #@! TO.P,J25,20*
G04 #@! TO.N,Net-(J25-Pad20)*
X152400000Y-153670000D03*
G04 #@! TO.P,J25,21*
G04 #@! TO.N,EN2*
X149860000Y-151130000D03*
G04 #@! TO.P,J25,22*
G04 #@! TO.N,Net-(J25-Pad22)*
X149860000Y-153670000D03*
G04 #@! TO.P,J25,23*
G04 #@! TO.N,CLK*
X147320000Y-151130000D03*
G04 #@! TO.P,J25,24*
G04 #@! TO.N,SDSS*
X147320000Y-153670000D03*
G04 #@! TO.P,J25,25*
G04 #@! TO.N,MOSI*
X144780000Y-151130000D03*
G04 #@! TO.P,J25,26*
G04 #@! TO.N,MISO*
X144780000Y-153670000D03*
G04 #@! TO.P,J25,27*
G04 #@! TO.N,SDDET*
X142240000Y-151130000D03*
G04 #@! TO.P,J25,28*
G04 #@! TO.N,Abort*
X142240000Y-153670000D03*
G04 #@! TO.P,J25,29*
G04 #@! TO.N,Net-(J25-Pad29)*
X139700000Y-151130000D03*
G04 #@! TO.P,J25,30*
G04 #@! TO.N,GND*
X139700000Y-153670000D03*
G04 #@! TO.P,J25,31*
G04 #@! TO.N,3V3*
X137160000Y-151130000D03*
G04 #@! TO.P,J25,32*
G04 #@! TO.N,GND*
X137160000Y-153670000D03*
G04 #@! TD*
D23*
G04 #@! TO.P,U1,1*
G04 #@! TO.N,GND*
X150810000Y-117420000D03*
G04 #@! TO.P,U1,2*
G04 #@! TO.N,HotBed*
X149860000Y-117420000D03*
G04 #@! TO.P,U1,3*
G04 #@! TO.N,GND*
X148910000Y-117420000D03*
G04 #@! TO.P,U1,4*
G04 #@! TO.N,Net-(Q1-Pad1)*
X148910000Y-119620000D03*
G04 #@! TO.P,U1,5*
G04 #@! TO.N,5V*
X150810000Y-119620000D03*
G04 #@! TD*
D18*
G04 #@! TO.P,Q1,1*
G04 #@! TO.N,Net-(Q1-Pad1)*
X146000000Y-120800000D03*
G04 #@! TO.P,Q1,3*
G04 #@! TO.N,GND*
X146000000Y-116240000D03*
D19*
G04 #@! TO.P,Q1,2*
G04 #@! TO.N,Net-(J6-Pad2)*
X139700000Y-118520000D03*
G04 #@! TD*
D24*
G04 #@! TO.P,U4,3*
G04 #@! TO.N,GND*
X141405000Y-108320000D03*
D25*
G04 #@! TO.P,U4,5*
X150555000Y-104920000D03*
G04 #@! TO.P,U4,4*
G04 #@! TO.N,5V*
X150555000Y-106620000D03*
G04 #@! TO.P,U4,3*
G04 #@! TO.N,GND*
X150555000Y-108320000D03*
G04 #@! TO.P,U4,2*
G04 #@! TO.N,Net-(D1-Pad1)*
X150555000Y-110020000D03*
G04 #@! TO.P,U4,1*
G04 #@! TO.N,12V*
X150555000Y-111720000D03*
G04 #@! TD*
D16*
G04 #@! TO.P,C6,1*
G04 #@! TO.N,5V*
X156210000Y-121920000D03*
G04 #@! TO.P,C6,2*
G04 #@! TO.N,GND*
X157977767Y-123687767D03*
G04 #@! TD*
D14*
G04 #@! TO.P,J28,8*
G04 #@! TO.N,E0_Dir*
X165100000Y-81280000D03*
G04 #@! TO.P,J28,7*
G04 #@! TO.N,E0_Step*
X165100000Y-78740000D03*
G04 #@! TO.P,J28,6*
G04 #@! TO.N,Net-(J28-Pad5)*
X165100000Y-76200000D03*
G04 #@! TO.P,J28,5*
X165100000Y-73660000D03*
G04 #@! TO.P,J28,4*
G04 #@! TO.N,Net-(J28-Pad4)*
X165100000Y-71120000D03*
G04 #@! TO.P,J28,3*
G04 #@! TO.N,Net-(J28-Pad3)*
X165100000Y-68580000D03*
G04 #@! TO.P,J28,2*
G04 #@! TO.N,Net-(J28-Pad2)*
X165100000Y-66040000D03*
D12*
G04 #@! TO.P,J28,1*
G04 #@! TO.N,E0_En*
X165100000Y-63500000D03*
G04 #@! TD*
G04 #@! TO.P,J29,1*
G04 #@! TO.N,Net-(J28-Pad2)*
X170180000Y-76200000D03*
D14*
G04 #@! TO.P,J29,2*
G04 #@! TO.N,3V3*
X172720000Y-76200000D03*
G04 #@! TO.P,J29,3*
G04 #@! TO.N,Net-(J28-Pad3)*
X170180000Y-78740000D03*
G04 #@! TO.P,J29,4*
G04 #@! TO.N,3V3*
X172720000Y-78740000D03*
G04 #@! TO.P,J29,5*
G04 #@! TO.N,Net-(J28-Pad4)*
X170180000Y-81280000D03*
G04 #@! TO.P,J29,6*
G04 #@! TO.N,3V3*
X172720000Y-81280000D03*
G04 #@! TD*
D12*
G04 #@! TO.P,J31,1*
G04 #@! TO.N,E1_En*
X180340000Y-63500000D03*
D14*
G04 #@! TO.P,J31,2*
G04 #@! TO.N,Net-(J31-Pad2)*
X180340000Y-66040000D03*
G04 #@! TO.P,J31,3*
G04 #@! TO.N,Net-(J31-Pad3)*
X180340000Y-68580000D03*
G04 #@! TO.P,J31,4*
G04 #@! TO.N,Net-(J31-Pad4)*
X180340000Y-71120000D03*
G04 #@! TO.P,J31,5*
G04 #@! TO.N,Net-(J31-Pad5)*
X180340000Y-73660000D03*
G04 #@! TO.P,J31,6*
X180340000Y-76200000D03*
G04 #@! TO.P,J31,7*
G04 #@! TO.N,E1_Step*
X180340000Y-78740000D03*
G04 #@! TO.P,J31,8*
G04 #@! TO.N,E1_Dir*
X180340000Y-81280000D03*
G04 #@! TD*
G04 #@! TO.P,J32,6*
G04 #@! TO.N,3V3*
X187960000Y-81280000D03*
G04 #@! TO.P,J32,5*
G04 #@! TO.N,Net-(J31-Pad4)*
X185420000Y-81280000D03*
G04 #@! TO.P,J32,4*
G04 #@! TO.N,3V3*
X187960000Y-78740000D03*
G04 #@! TO.P,J32,3*
G04 #@! TO.N,Net-(J31-Pad3)*
X185420000Y-78740000D03*
G04 #@! TO.P,J32,2*
G04 #@! TO.N,3V3*
X187960000Y-76200000D03*
D12*
G04 #@! TO.P,J32,1*
G04 #@! TO.N,Net-(J31-Pad2)*
X185420000Y-76200000D03*
G04 #@! TD*
G04 #@! TO.P,J33,1*
G04 #@! TO.N,12V*
X132080000Y-63500000D03*
D14*
G04 #@! TO.P,J33,2*
G04 #@! TO.N,GND*
X132080000Y-66040000D03*
G04 #@! TO.P,J33,3*
G04 #@! TO.N,Net-(J33-Pad3)*
X132080000Y-68580000D03*
G04 #@! TO.P,J33,4*
G04 #@! TO.N,Net-(J33-Pad4)*
X132080000Y-71120000D03*
G04 #@! TO.P,J33,5*
G04 #@! TO.N,Net-(J33-Pad5)*
X132080000Y-73660000D03*
G04 #@! TO.P,J33,6*
G04 #@! TO.N,Net-(J33-Pad6)*
X132080000Y-76200000D03*
G04 #@! TO.P,J33,7*
G04 #@! TO.N,3V3*
X132080000Y-78740000D03*
G04 #@! TO.P,J33,8*
G04 #@! TO.N,GND*
X132080000Y-81280000D03*
G04 #@! TD*
G04 #@! TO.P,J34,8*
G04 #@! TO.N,GND*
X147320000Y-81280000D03*
G04 #@! TO.P,J34,7*
G04 #@! TO.N,3V3*
X147320000Y-78740000D03*
G04 #@! TO.P,J34,6*
G04 #@! TO.N,Net-(J34-Pad6)*
X147320000Y-76200000D03*
G04 #@! TO.P,J34,5*
G04 #@! TO.N,Net-(J34-Pad5)*
X147320000Y-73660000D03*
G04 #@! TO.P,J34,4*
G04 #@! TO.N,Net-(J34-Pad4)*
X147320000Y-71120000D03*
G04 #@! TO.P,J34,3*
G04 #@! TO.N,Net-(J34-Pad3)*
X147320000Y-68580000D03*
G04 #@! TO.P,J34,2*
G04 #@! TO.N,GND*
X147320000Y-66040000D03*
D12*
G04 #@! TO.P,J34,1*
G04 #@! TO.N,12V*
X147320000Y-63500000D03*
G04 #@! TD*
G04 #@! TO.P,J35,1*
G04 #@! TO.N,12V*
X162560000Y-63500000D03*
D14*
G04 #@! TO.P,J35,2*
G04 #@! TO.N,GND*
X162560000Y-66040000D03*
G04 #@! TO.P,J35,3*
G04 #@! TO.N,Net-(J35-Pad3)*
X162560000Y-68580000D03*
G04 #@! TO.P,J35,4*
G04 #@! TO.N,Net-(J35-Pad4)*
X162560000Y-71120000D03*
G04 #@! TO.P,J35,5*
G04 #@! TO.N,Net-(J35-Pad5)*
X162560000Y-73660000D03*
G04 #@! TO.P,J35,6*
G04 #@! TO.N,Net-(J35-Pad6)*
X162560000Y-76200000D03*
G04 #@! TO.P,J35,7*
G04 #@! TO.N,3V3*
X162560000Y-78740000D03*
G04 #@! TO.P,J35,8*
G04 #@! TO.N,GND*
X162560000Y-81280000D03*
G04 #@! TD*
G04 #@! TO.P,J36,8*
G04 #@! TO.N,GND*
X177800000Y-81280000D03*
G04 #@! TO.P,J36,7*
G04 #@! TO.N,3V3*
X177800000Y-78740000D03*
G04 #@! TO.P,J36,6*
G04 #@! TO.N,Net-(J36-Pad6)*
X177800000Y-76200000D03*
G04 #@! TO.P,J36,5*
G04 #@! TO.N,Net-(J36-Pad5)*
X177800000Y-73660000D03*
G04 #@! TO.P,J36,4*
G04 #@! TO.N,Net-(J36-Pad4)*
X177800000Y-71120000D03*
G04 #@! TO.P,J36,3*
G04 #@! TO.N,Net-(J36-Pad3)*
X177800000Y-68580000D03*
G04 #@! TO.P,J36,2*
G04 #@! TO.N,GND*
X177800000Y-66040000D03*
D12*
G04 #@! TO.P,J36,1*
G04 #@! TO.N,12V*
X177800000Y-63500000D03*
G04 #@! TD*
G04 #@! TO.P,J37,1*
G04 #@! TO.N,12V*
X193040000Y-63500000D03*
D14*
G04 #@! TO.P,J37,2*
G04 #@! TO.N,GND*
X193040000Y-66040000D03*
G04 #@! TO.P,J37,3*
G04 #@! TO.N,Net-(J37-Pad3)*
X193040000Y-68580000D03*
G04 #@! TO.P,J37,4*
G04 #@! TO.N,Net-(J37-Pad4)*
X193040000Y-71120000D03*
G04 #@! TO.P,J37,5*
G04 #@! TO.N,Net-(J37-Pad5)*
X193040000Y-73660000D03*
G04 #@! TO.P,J37,6*
G04 #@! TO.N,Net-(J37-Pad6)*
X193040000Y-76200000D03*
G04 #@! TO.P,J37,7*
G04 #@! TO.N,3V3*
X193040000Y-78740000D03*
G04 #@! TO.P,J37,8*
G04 #@! TO.N,GND*
X193040000Y-81280000D03*
G04 #@! TD*
D26*
G04 #@! TO.P,J38,1*
G04 #@! TO.N,Net-(J33-Pad3)*
X129460000Y-58928000D03*
G04 #@! TO.P,J38,2*
G04 #@! TO.N,Net-(J33-Pad4)*
X126960000Y-58928000D03*
G04 #@! TO.P,J38,3*
G04 #@! TO.N,Net-(J33-Pad5)*
X124460000Y-58928000D03*
G04 #@! TO.P,J38,4*
G04 #@! TO.N,Net-(J33-Pad6)*
X121960000Y-58928000D03*
G04 #@! TD*
G04 #@! TO.P,J39,1*
G04 #@! TO.N,Net-(J34-Pad3)*
X144700000Y-58928000D03*
G04 #@! TO.P,J39,2*
G04 #@! TO.N,Net-(J34-Pad4)*
X142200000Y-58928000D03*
G04 #@! TO.P,J39,3*
G04 #@! TO.N,Net-(J34-Pad5)*
X139700000Y-58928000D03*
G04 #@! TO.P,J39,4*
G04 #@! TO.N,Net-(J34-Pad6)*
X137200000Y-58928000D03*
G04 #@! TD*
G04 #@! TO.P,J40,1*
G04 #@! TO.N,Net-(J35-Pad3)*
X159940000Y-58928000D03*
G04 #@! TO.P,J40,2*
G04 #@! TO.N,Net-(J35-Pad4)*
X157440000Y-58928000D03*
G04 #@! TO.P,J40,3*
G04 #@! TO.N,Net-(J35-Pad5)*
X154940000Y-58928000D03*
G04 #@! TO.P,J40,4*
G04 #@! TO.N,Net-(J35-Pad6)*
X152440000Y-58928000D03*
G04 #@! TD*
G04 #@! TO.P,J41,1*
G04 #@! TO.N,Net-(J36-Pad3)*
X175180000Y-58928000D03*
G04 #@! TO.P,J41,2*
G04 #@! TO.N,Net-(J36-Pad4)*
X172680000Y-58928000D03*
G04 #@! TO.P,J41,3*
G04 #@! TO.N,Net-(J36-Pad5)*
X170180000Y-58928000D03*
G04 #@! TO.P,J41,4*
G04 #@! TO.N,Net-(J36-Pad6)*
X167680000Y-58928000D03*
G04 #@! TD*
G04 #@! TO.P,J42,4*
G04 #@! TO.N,Net-(J37-Pad6)*
X182920000Y-58928000D03*
G04 #@! TO.P,J42,3*
G04 #@! TO.N,Net-(J37-Pad5)*
X185420000Y-58928000D03*
G04 #@! TO.P,J42,2*
G04 #@! TO.N,Net-(J37-Pad4)*
X187920000Y-58928000D03*
G04 #@! TO.P,J42,1*
G04 #@! TO.N,Net-(J37-Pad3)*
X190420000Y-58928000D03*
G04 #@! TD*
D11*
G04 #@! TO.N,GND*
G04 #@! TO.C,C7*
G36*
X126454504Y-68376204D02*
X126478773Y-68379804D01*
X126502571Y-68385765D01*
X126525671Y-68394030D01*
X126547849Y-68404520D01*
X126568893Y-68417133D01*
X126588598Y-68431747D01*
X126606777Y-68448223D01*
X126623253Y-68466402D01*
X126637867Y-68486107D01*
X126650480Y-68507151D01*
X126660970Y-68529329D01*
X126669235Y-68552429D01*
X126675196Y-68576227D01*
X126678796Y-68600496D01*
X126680000Y-68625000D01*
X126680000Y-72275000D01*
X126678796Y-72299504D01*
X126675196Y-72323773D01*
X126669235Y-72347571D01*
X126660970Y-72370671D01*
X126650480Y-72392849D01*
X126637867Y-72413893D01*
X126623253Y-72433598D01*
X126606777Y-72451777D01*
X126588598Y-72468253D01*
X126568893Y-72482867D01*
X126547849Y-72495480D01*
X126525671Y-72505970D01*
X126502571Y-72514235D01*
X126478773Y-72520196D01*
X126454504Y-72523796D01*
X126430000Y-72525000D01*
X125030000Y-72525000D01*
X125005496Y-72523796D01*
X124981227Y-72520196D01*
X124957429Y-72514235D01*
X124934329Y-72505970D01*
X124912151Y-72495480D01*
X124891107Y-72482867D01*
X124871402Y-72468253D01*
X124853223Y-72451777D01*
X124836747Y-72433598D01*
X124822133Y-72413893D01*
X124809520Y-72392849D01*
X124799030Y-72370671D01*
X124790765Y-72347571D01*
X124784804Y-72323773D01*
X124781204Y-72299504D01*
X124780000Y-72275000D01*
X124780000Y-68625000D01*
X124781204Y-68600496D01*
X124784804Y-68576227D01*
X124790765Y-68552429D01*
X124799030Y-68529329D01*
X124809520Y-68507151D01*
X124822133Y-68486107D01*
X124836747Y-68466402D01*
X124853223Y-68448223D01*
X124871402Y-68431747D01*
X124891107Y-68417133D01*
X124912151Y-68404520D01*
X124934329Y-68394030D01*
X124957429Y-68385765D01*
X124981227Y-68379804D01*
X125005496Y-68376204D01*
X125030000Y-68375000D01*
X126430000Y-68375000D01*
X126454504Y-68376204D01*
X126454504Y-68376204D01*
G37*
D27*
G04 #@! TD*
G04 #@! TO.P,C7,2*
G04 #@! TO.N,GND*
X125730000Y-70450000D03*
D11*
G04 #@! TO.N,12V*
G04 #@! TO.C,C7*
G36*
X126454504Y-61426204D02*
X126478773Y-61429804D01*
X126502571Y-61435765D01*
X126525671Y-61444030D01*
X126547849Y-61454520D01*
X126568893Y-61467133D01*
X126588598Y-61481747D01*
X126606777Y-61498223D01*
X126623253Y-61516402D01*
X126637867Y-61536107D01*
X126650480Y-61557151D01*
X126660970Y-61579329D01*
X126669235Y-61602429D01*
X126675196Y-61626227D01*
X126678796Y-61650496D01*
X126680000Y-61675000D01*
X126680000Y-65325000D01*
X126678796Y-65349504D01*
X126675196Y-65373773D01*
X126669235Y-65397571D01*
X126660970Y-65420671D01*
X126650480Y-65442849D01*
X126637867Y-65463893D01*
X126623253Y-65483598D01*
X126606777Y-65501777D01*
X126588598Y-65518253D01*
X126568893Y-65532867D01*
X126547849Y-65545480D01*
X126525671Y-65555970D01*
X126502571Y-65564235D01*
X126478773Y-65570196D01*
X126454504Y-65573796D01*
X126430000Y-65575000D01*
X125030000Y-65575000D01*
X125005496Y-65573796D01*
X124981227Y-65570196D01*
X124957429Y-65564235D01*
X124934329Y-65555970D01*
X124912151Y-65545480D01*
X124891107Y-65532867D01*
X124871402Y-65518253D01*
X124853223Y-65501777D01*
X124836747Y-65483598D01*
X124822133Y-65463893D01*
X124809520Y-65442849D01*
X124799030Y-65420671D01*
X124790765Y-65397571D01*
X124784804Y-65373773D01*
X124781204Y-65349504D01*
X124780000Y-65325000D01*
X124780000Y-61675000D01*
X124781204Y-61650496D01*
X124784804Y-61626227D01*
X124790765Y-61602429D01*
X124799030Y-61579329D01*
X124809520Y-61557151D01*
X124822133Y-61536107D01*
X124836747Y-61516402D01*
X124853223Y-61498223D01*
X124871402Y-61481747D01*
X124891107Y-61467133D01*
X124912151Y-61454520D01*
X124934329Y-61444030D01*
X124957429Y-61435765D01*
X124981227Y-61429804D01*
X125005496Y-61426204D01*
X125030000Y-61425000D01*
X126430000Y-61425000D01*
X126454504Y-61426204D01*
X126454504Y-61426204D01*
G37*
D27*
G04 #@! TD*
G04 #@! TO.P,C7,1*
G04 #@! TO.N,12V*
X125730000Y-63500000D03*
D11*
G04 #@! TO.N,12V*
G04 #@! TO.C,C8*
G36*
X172174504Y-61426204D02*
X172198773Y-61429804D01*
X172222571Y-61435765D01*
X172245671Y-61444030D01*
X172267849Y-61454520D01*
X172288893Y-61467133D01*
X172308598Y-61481747D01*
X172326777Y-61498223D01*
X172343253Y-61516402D01*
X172357867Y-61536107D01*
X172370480Y-61557151D01*
X172380970Y-61579329D01*
X172389235Y-61602429D01*
X172395196Y-61626227D01*
X172398796Y-61650496D01*
X172400000Y-61675000D01*
X172400000Y-65325000D01*
X172398796Y-65349504D01*
X172395196Y-65373773D01*
X172389235Y-65397571D01*
X172380970Y-65420671D01*
X172370480Y-65442849D01*
X172357867Y-65463893D01*
X172343253Y-65483598D01*
X172326777Y-65501777D01*
X172308598Y-65518253D01*
X172288893Y-65532867D01*
X172267849Y-65545480D01*
X172245671Y-65555970D01*
X172222571Y-65564235D01*
X172198773Y-65570196D01*
X172174504Y-65573796D01*
X172150000Y-65575000D01*
X170750000Y-65575000D01*
X170725496Y-65573796D01*
X170701227Y-65570196D01*
X170677429Y-65564235D01*
X170654329Y-65555970D01*
X170632151Y-65545480D01*
X170611107Y-65532867D01*
X170591402Y-65518253D01*
X170573223Y-65501777D01*
X170556747Y-65483598D01*
X170542133Y-65463893D01*
X170529520Y-65442849D01*
X170519030Y-65420671D01*
X170510765Y-65397571D01*
X170504804Y-65373773D01*
X170501204Y-65349504D01*
X170500000Y-65325000D01*
X170500000Y-61675000D01*
X170501204Y-61650496D01*
X170504804Y-61626227D01*
X170510765Y-61602429D01*
X170519030Y-61579329D01*
X170529520Y-61557151D01*
X170542133Y-61536107D01*
X170556747Y-61516402D01*
X170573223Y-61498223D01*
X170591402Y-61481747D01*
X170611107Y-61467133D01*
X170632151Y-61454520D01*
X170654329Y-61444030D01*
X170677429Y-61435765D01*
X170701227Y-61429804D01*
X170725496Y-61426204D01*
X170750000Y-61425000D01*
X172150000Y-61425000D01*
X172174504Y-61426204D01*
X172174504Y-61426204D01*
G37*
D27*
G04 #@! TD*
G04 #@! TO.P,C8,1*
G04 #@! TO.N,12V*
X171450000Y-63500000D03*
D11*
G04 #@! TO.N,GND*
G04 #@! TO.C,C8*
G36*
X172174504Y-68376204D02*
X172198773Y-68379804D01*
X172222571Y-68385765D01*
X172245671Y-68394030D01*
X172267849Y-68404520D01*
X172288893Y-68417133D01*
X172308598Y-68431747D01*
X172326777Y-68448223D01*
X172343253Y-68466402D01*
X172357867Y-68486107D01*
X172370480Y-68507151D01*
X172380970Y-68529329D01*
X172389235Y-68552429D01*
X172395196Y-68576227D01*
X172398796Y-68600496D01*
X172400000Y-68625000D01*
X172400000Y-72275000D01*
X172398796Y-72299504D01*
X172395196Y-72323773D01*
X172389235Y-72347571D01*
X172380970Y-72370671D01*
X172370480Y-72392849D01*
X172357867Y-72413893D01*
X172343253Y-72433598D01*
X172326777Y-72451777D01*
X172308598Y-72468253D01*
X172288893Y-72482867D01*
X172267849Y-72495480D01*
X172245671Y-72505970D01*
X172222571Y-72514235D01*
X172198773Y-72520196D01*
X172174504Y-72523796D01*
X172150000Y-72525000D01*
X170750000Y-72525000D01*
X170725496Y-72523796D01*
X170701227Y-72520196D01*
X170677429Y-72514235D01*
X170654329Y-72505970D01*
X170632151Y-72495480D01*
X170611107Y-72482867D01*
X170591402Y-72468253D01*
X170573223Y-72451777D01*
X170556747Y-72433598D01*
X170542133Y-72413893D01*
X170529520Y-72392849D01*
X170519030Y-72370671D01*
X170510765Y-72347571D01*
X170504804Y-72323773D01*
X170501204Y-72299504D01*
X170500000Y-72275000D01*
X170500000Y-68625000D01*
X170501204Y-68600496D01*
X170504804Y-68576227D01*
X170510765Y-68552429D01*
X170519030Y-68529329D01*
X170529520Y-68507151D01*
X170542133Y-68486107D01*
X170556747Y-68466402D01*
X170573223Y-68448223D01*
X170591402Y-68431747D01*
X170611107Y-68417133D01*
X170632151Y-68404520D01*
X170654329Y-68394030D01*
X170677429Y-68385765D01*
X170701227Y-68379804D01*
X170725496Y-68376204D01*
X170750000Y-68375000D01*
X172150000Y-68375000D01*
X172174504Y-68376204D01*
X172174504Y-68376204D01*
G37*
D27*
G04 #@! TD*
G04 #@! TO.P,C8,2*
G04 #@! TO.N,GND*
X171450000Y-70450000D03*
D11*
G04 #@! TO.N,GND*
G04 #@! TO.C,C9*
G36*
X187414504Y-68376204D02*
X187438773Y-68379804D01*
X187462571Y-68385765D01*
X187485671Y-68394030D01*
X187507849Y-68404520D01*
X187528893Y-68417133D01*
X187548598Y-68431747D01*
X187566777Y-68448223D01*
X187583253Y-68466402D01*
X187597867Y-68486107D01*
X187610480Y-68507151D01*
X187620970Y-68529329D01*
X187629235Y-68552429D01*
X187635196Y-68576227D01*
X187638796Y-68600496D01*
X187640000Y-68625000D01*
X187640000Y-72275000D01*
X187638796Y-72299504D01*
X187635196Y-72323773D01*
X187629235Y-72347571D01*
X187620970Y-72370671D01*
X187610480Y-72392849D01*
X187597867Y-72413893D01*
X187583253Y-72433598D01*
X187566777Y-72451777D01*
X187548598Y-72468253D01*
X187528893Y-72482867D01*
X187507849Y-72495480D01*
X187485671Y-72505970D01*
X187462571Y-72514235D01*
X187438773Y-72520196D01*
X187414504Y-72523796D01*
X187390000Y-72525000D01*
X185990000Y-72525000D01*
X185965496Y-72523796D01*
X185941227Y-72520196D01*
X185917429Y-72514235D01*
X185894329Y-72505970D01*
X185872151Y-72495480D01*
X185851107Y-72482867D01*
X185831402Y-72468253D01*
X185813223Y-72451777D01*
X185796747Y-72433598D01*
X185782133Y-72413893D01*
X185769520Y-72392849D01*
X185759030Y-72370671D01*
X185750765Y-72347571D01*
X185744804Y-72323773D01*
X185741204Y-72299504D01*
X185740000Y-72275000D01*
X185740000Y-68625000D01*
X185741204Y-68600496D01*
X185744804Y-68576227D01*
X185750765Y-68552429D01*
X185759030Y-68529329D01*
X185769520Y-68507151D01*
X185782133Y-68486107D01*
X185796747Y-68466402D01*
X185813223Y-68448223D01*
X185831402Y-68431747D01*
X185851107Y-68417133D01*
X185872151Y-68404520D01*
X185894329Y-68394030D01*
X185917429Y-68385765D01*
X185941227Y-68379804D01*
X185965496Y-68376204D01*
X185990000Y-68375000D01*
X187390000Y-68375000D01*
X187414504Y-68376204D01*
X187414504Y-68376204D01*
G37*
D27*
G04 #@! TD*
G04 #@! TO.P,C9,2*
G04 #@! TO.N,GND*
X186690000Y-70450000D03*
D11*
G04 #@! TO.N,12V*
G04 #@! TO.C,C9*
G36*
X187414504Y-61426204D02*
X187438773Y-61429804D01*
X187462571Y-61435765D01*
X187485671Y-61444030D01*
X187507849Y-61454520D01*
X187528893Y-61467133D01*
X187548598Y-61481747D01*
X187566777Y-61498223D01*
X187583253Y-61516402D01*
X187597867Y-61536107D01*
X187610480Y-61557151D01*
X187620970Y-61579329D01*
X187629235Y-61602429D01*
X187635196Y-61626227D01*
X187638796Y-61650496D01*
X187640000Y-61675000D01*
X187640000Y-65325000D01*
X187638796Y-65349504D01*
X187635196Y-65373773D01*
X187629235Y-65397571D01*
X187620970Y-65420671D01*
X187610480Y-65442849D01*
X187597867Y-65463893D01*
X187583253Y-65483598D01*
X187566777Y-65501777D01*
X187548598Y-65518253D01*
X187528893Y-65532867D01*
X187507849Y-65545480D01*
X187485671Y-65555970D01*
X187462571Y-65564235D01*
X187438773Y-65570196D01*
X187414504Y-65573796D01*
X187390000Y-65575000D01*
X185990000Y-65575000D01*
X185965496Y-65573796D01*
X185941227Y-65570196D01*
X185917429Y-65564235D01*
X185894329Y-65555970D01*
X185872151Y-65545480D01*
X185851107Y-65532867D01*
X185831402Y-65518253D01*
X185813223Y-65501777D01*
X185796747Y-65483598D01*
X185782133Y-65463893D01*
X185769520Y-65442849D01*
X185759030Y-65420671D01*
X185750765Y-65397571D01*
X185744804Y-65373773D01*
X185741204Y-65349504D01*
X185740000Y-65325000D01*
X185740000Y-61675000D01*
X185741204Y-61650496D01*
X185744804Y-61626227D01*
X185750765Y-61602429D01*
X185759030Y-61579329D01*
X185769520Y-61557151D01*
X185782133Y-61536107D01*
X185796747Y-61516402D01*
X185813223Y-61498223D01*
X185831402Y-61481747D01*
X185851107Y-61467133D01*
X185872151Y-61454520D01*
X185894329Y-61444030D01*
X185917429Y-61435765D01*
X185941227Y-61429804D01*
X185965496Y-61426204D01*
X185990000Y-61425000D01*
X187390000Y-61425000D01*
X187414504Y-61426204D01*
X187414504Y-61426204D01*
G37*
D27*
G04 #@! TD*
G04 #@! TO.P,C9,1*
G04 #@! TO.N,12V*
X186690000Y-63500000D03*
D11*
G04 #@! TO.N,12V*
G04 #@! TO.C,C10*
G36*
X141694504Y-61426204D02*
X141718773Y-61429804D01*
X141742571Y-61435765D01*
X141765671Y-61444030D01*
X141787849Y-61454520D01*
X141808893Y-61467133D01*
X141828598Y-61481747D01*
X141846777Y-61498223D01*
X141863253Y-61516402D01*
X141877867Y-61536107D01*
X141890480Y-61557151D01*
X141900970Y-61579329D01*
X141909235Y-61602429D01*
X141915196Y-61626227D01*
X141918796Y-61650496D01*
X141920000Y-61675000D01*
X141920000Y-65325000D01*
X141918796Y-65349504D01*
X141915196Y-65373773D01*
X141909235Y-65397571D01*
X141900970Y-65420671D01*
X141890480Y-65442849D01*
X141877867Y-65463893D01*
X141863253Y-65483598D01*
X141846777Y-65501777D01*
X141828598Y-65518253D01*
X141808893Y-65532867D01*
X141787849Y-65545480D01*
X141765671Y-65555970D01*
X141742571Y-65564235D01*
X141718773Y-65570196D01*
X141694504Y-65573796D01*
X141670000Y-65575000D01*
X140270000Y-65575000D01*
X140245496Y-65573796D01*
X140221227Y-65570196D01*
X140197429Y-65564235D01*
X140174329Y-65555970D01*
X140152151Y-65545480D01*
X140131107Y-65532867D01*
X140111402Y-65518253D01*
X140093223Y-65501777D01*
X140076747Y-65483598D01*
X140062133Y-65463893D01*
X140049520Y-65442849D01*
X140039030Y-65420671D01*
X140030765Y-65397571D01*
X140024804Y-65373773D01*
X140021204Y-65349504D01*
X140020000Y-65325000D01*
X140020000Y-61675000D01*
X140021204Y-61650496D01*
X140024804Y-61626227D01*
X140030765Y-61602429D01*
X140039030Y-61579329D01*
X140049520Y-61557151D01*
X140062133Y-61536107D01*
X140076747Y-61516402D01*
X140093223Y-61498223D01*
X140111402Y-61481747D01*
X140131107Y-61467133D01*
X140152151Y-61454520D01*
X140174329Y-61444030D01*
X140197429Y-61435765D01*
X140221227Y-61429804D01*
X140245496Y-61426204D01*
X140270000Y-61425000D01*
X141670000Y-61425000D01*
X141694504Y-61426204D01*
X141694504Y-61426204D01*
G37*
D27*
G04 #@! TD*
G04 #@! TO.P,C10,1*
G04 #@! TO.N,12V*
X140970000Y-63500000D03*
D11*
G04 #@! TO.N,GND*
G04 #@! TO.C,C10*
G36*
X141694504Y-68376204D02*
X141718773Y-68379804D01*
X141742571Y-68385765D01*
X141765671Y-68394030D01*
X141787849Y-68404520D01*
X141808893Y-68417133D01*
X141828598Y-68431747D01*
X141846777Y-68448223D01*
X141863253Y-68466402D01*
X141877867Y-68486107D01*
X141890480Y-68507151D01*
X141900970Y-68529329D01*
X141909235Y-68552429D01*
X141915196Y-68576227D01*
X141918796Y-68600496D01*
X141920000Y-68625000D01*
X141920000Y-72275000D01*
X141918796Y-72299504D01*
X141915196Y-72323773D01*
X141909235Y-72347571D01*
X141900970Y-72370671D01*
X141890480Y-72392849D01*
X141877867Y-72413893D01*
X141863253Y-72433598D01*
X141846777Y-72451777D01*
X141828598Y-72468253D01*
X141808893Y-72482867D01*
X141787849Y-72495480D01*
X141765671Y-72505970D01*
X141742571Y-72514235D01*
X141718773Y-72520196D01*
X141694504Y-72523796D01*
X141670000Y-72525000D01*
X140270000Y-72525000D01*
X140245496Y-72523796D01*
X140221227Y-72520196D01*
X140197429Y-72514235D01*
X140174329Y-72505970D01*
X140152151Y-72495480D01*
X140131107Y-72482867D01*
X140111402Y-72468253D01*
X140093223Y-72451777D01*
X140076747Y-72433598D01*
X140062133Y-72413893D01*
X140049520Y-72392849D01*
X140039030Y-72370671D01*
X140030765Y-72347571D01*
X140024804Y-72323773D01*
X140021204Y-72299504D01*
X140020000Y-72275000D01*
X140020000Y-68625000D01*
X140021204Y-68600496D01*
X140024804Y-68576227D01*
X140030765Y-68552429D01*
X140039030Y-68529329D01*
X140049520Y-68507151D01*
X140062133Y-68486107D01*
X140076747Y-68466402D01*
X140093223Y-68448223D01*
X140111402Y-68431747D01*
X140131107Y-68417133D01*
X140152151Y-68404520D01*
X140174329Y-68394030D01*
X140197429Y-68385765D01*
X140221227Y-68379804D01*
X140245496Y-68376204D01*
X140270000Y-68375000D01*
X141670000Y-68375000D01*
X141694504Y-68376204D01*
X141694504Y-68376204D01*
G37*
D27*
G04 #@! TD*
G04 #@! TO.P,C10,2*
G04 #@! TO.N,GND*
X140970000Y-70450000D03*
D11*
G04 #@! TO.N,12V*
G04 #@! TO.C,C11*
G36*
X156934504Y-61426204D02*
X156958773Y-61429804D01*
X156982571Y-61435765D01*
X157005671Y-61444030D01*
X157027849Y-61454520D01*
X157048893Y-61467133D01*
X157068598Y-61481747D01*
X157086777Y-61498223D01*
X157103253Y-61516402D01*
X157117867Y-61536107D01*
X157130480Y-61557151D01*
X157140970Y-61579329D01*
X157149235Y-61602429D01*
X157155196Y-61626227D01*
X157158796Y-61650496D01*
X157160000Y-61675000D01*
X157160000Y-65325000D01*
X157158796Y-65349504D01*
X157155196Y-65373773D01*
X157149235Y-65397571D01*
X157140970Y-65420671D01*
X157130480Y-65442849D01*
X157117867Y-65463893D01*
X157103253Y-65483598D01*
X157086777Y-65501777D01*
X157068598Y-65518253D01*
X157048893Y-65532867D01*
X157027849Y-65545480D01*
X157005671Y-65555970D01*
X156982571Y-65564235D01*
X156958773Y-65570196D01*
X156934504Y-65573796D01*
X156910000Y-65575000D01*
X155510000Y-65575000D01*
X155485496Y-65573796D01*
X155461227Y-65570196D01*
X155437429Y-65564235D01*
X155414329Y-65555970D01*
X155392151Y-65545480D01*
X155371107Y-65532867D01*
X155351402Y-65518253D01*
X155333223Y-65501777D01*
X155316747Y-65483598D01*
X155302133Y-65463893D01*
X155289520Y-65442849D01*
X155279030Y-65420671D01*
X155270765Y-65397571D01*
X155264804Y-65373773D01*
X155261204Y-65349504D01*
X155260000Y-65325000D01*
X155260000Y-61675000D01*
X155261204Y-61650496D01*
X155264804Y-61626227D01*
X155270765Y-61602429D01*
X155279030Y-61579329D01*
X155289520Y-61557151D01*
X155302133Y-61536107D01*
X155316747Y-61516402D01*
X155333223Y-61498223D01*
X155351402Y-61481747D01*
X155371107Y-61467133D01*
X155392151Y-61454520D01*
X155414329Y-61444030D01*
X155437429Y-61435765D01*
X155461227Y-61429804D01*
X155485496Y-61426204D01*
X155510000Y-61425000D01*
X156910000Y-61425000D01*
X156934504Y-61426204D01*
X156934504Y-61426204D01*
G37*
D27*
G04 #@! TD*
G04 #@! TO.P,C11,1*
G04 #@! TO.N,12V*
X156210000Y-63500000D03*
D11*
G04 #@! TO.N,GND*
G04 #@! TO.C,C11*
G36*
X156934504Y-68376204D02*
X156958773Y-68379804D01*
X156982571Y-68385765D01*
X157005671Y-68394030D01*
X157027849Y-68404520D01*
X157048893Y-68417133D01*
X157068598Y-68431747D01*
X157086777Y-68448223D01*
X157103253Y-68466402D01*
X157117867Y-68486107D01*
X157130480Y-68507151D01*
X157140970Y-68529329D01*
X157149235Y-68552429D01*
X157155196Y-68576227D01*
X157158796Y-68600496D01*
X157160000Y-68625000D01*
X157160000Y-72275000D01*
X157158796Y-72299504D01*
X157155196Y-72323773D01*
X157149235Y-72347571D01*
X157140970Y-72370671D01*
X157130480Y-72392849D01*
X157117867Y-72413893D01*
X157103253Y-72433598D01*
X157086777Y-72451777D01*
X157068598Y-72468253D01*
X157048893Y-72482867D01*
X157027849Y-72495480D01*
X157005671Y-72505970D01*
X156982571Y-72514235D01*
X156958773Y-72520196D01*
X156934504Y-72523796D01*
X156910000Y-72525000D01*
X155510000Y-72525000D01*
X155485496Y-72523796D01*
X155461227Y-72520196D01*
X155437429Y-72514235D01*
X155414329Y-72505970D01*
X155392151Y-72495480D01*
X155371107Y-72482867D01*
X155351402Y-72468253D01*
X155333223Y-72451777D01*
X155316747Y-72433598D01*
X155302133Y-72413893D01*
X155289520Y-72392849D01*
X155279030Y-72370671D01*
X155270765Y-72347571D01*
X155264804Y-72323773D01*
X155261204Y-72299504D01*
X155260000Y-72275000D01*
X155260000Y-68625000D01*
X155261204Y-68600496D01*
X155264804Y-68576227D01*
X155270765Y-68552429D01*
X155279030Y-68529329D01*
X155289520Y-68507151D01*
X155302133Y-68486107D01*
X155316747Y-68466402D01*
X155333223Y-68448223D01*
X155351402Y-68431747D01*
X155371107Y-68417133D01*
X155392151Y-68404520D01*
X155414329Y-68394030D01*
X155437429Y-68385765D01*
X155461227Y-68379804D01*
X155485496Y-68376204D01*
X155510000Y-68375000D01*
X156910000Y-68375000D01*
X156934504Y-68376204D01*
X156934504Y-68376204D01*
G37*
D27*
G04 #@! TD*
G04 #@! TO.P,C11,2*
G04 #@! TO.N,GND*
X156210000Y-70450000D03*
D12*
G04 #@! TO.P,J12,1*
G04 #@! TO.N,X_En*
X119380000Y-63500000D03*
D14*
G04 #@! TO.P,J12,2*
G04 #@! TO.N,Net-(J12-Pad2)*
X119380000Y-66040000D03*
G04 #@! TO.P,J12,3*
G04 #@! TO.N,Net-(J12-Pad3)*
X119380000Y-68580000D03*
G04 #@! TO.P,J12,4*
G04 #@! TO.N,Net-(J12-Pad4)*
X119380000Y-71120000D03*
G04 #@! TO.P,J12,5*
G04 #@! TO.N,Net-(J12-Pad5)*
X119380000Y-73660000D03*
G04 #@! TO.P,J12,6*
X119380000Y-76200000D03*
G04 #@! TO.P,J12,7*
G04 #@! TO.N,X_Step*
X119380000Y-78740000D03*
G04 #@! TO.P,J12,8*
G04 #@! TO.N,X_Dir*
X119380000Y-81280000D03*
G04 #@! TD*
D12*
G04 #@! TO.P,J13,1*
G04 #@! TO.N,Net-(J12-Pad2)*
X124460000Y-76200000D03*
D14*
G04 #@! TO.P,J13,2*
G04 #@! TO.N,3V3*
X127000000Y-76200000D03*
G04 #@! TO.P,J13,3*
G04 #@! TO.N,Net-(J12-Pad3)*
X124460000Y-78740000D03*
G04 #@! TO.P,J13,4*
G04 #@! TO.N,3V3*
X127000000Y-78740000D03*
G04 #@! TO.P,J13,5*
G04 #@! TO.N,Net-(J12-Pad4)*
X124460000Y-81280000D03*
G04 #@! TO.P,J13,6*
G04 #@! TO.N,3V3*
X127000000Y-81280000D03*
G04 #@! TD*
D12*
G04 #@! TO.P,J17,1*
G04 #@! TO.N,5V*
X121920000Y-83820000D03*
D14*
G04 #@! TO.P,J17,2*
X124460000Y-83820000D03*
G04 #@! TO.P,J17,3*
X121920000Y-86360000D03*
G04 #@! TO.P,J17,4*
X124460000Y-86360000D03*
G04 #@! TO.P,J17,5*
G04 #@! TO.N,3V3*
X121920000Y-88900000D03*
G04 #@! TO.P,J17,6*
X124460000Y-88900000D03*
G04 #@! TO.P,J17,7*
X121920000Y-91440000D03*
G04 #@! TO.P,J17,8*
X124460000Y-91440000D03*
G04 #@! TO.P,J17,9*
G04 #@! TO.N,GND*
X121920000Y-93980000D03*
G04 #@! TO.P,J17,10*
X124460000Y-93980000D03*
G04 #@! TO.P,J17,11*
G04 #@! TO.N,Y_Dir*
X121920000Y-96520000D03*
G04 #@! TO.P,J17,12*
G04 #@! TO.N,Net-(J17-Pad12)*
X124460000Y-96520000D03*
G04 #@! TO.P,J17,13*
G04 #@! TO.N,Net-(J17-Pad13)*
X121920000Y-99060000D03*
G04 #@! TO.P,J17,14*
G04 #@! TO.N,Y_Step*
X124460000Y-99060000D03*
G04 #@! TO.P,J17,15*
G04 #@! TO.N,Y_En*
X121920000Y-101600000D03*
G04 #@! TO.P,J17,16*
G04 #@! TO.N,X-*
X124460000Y-101600000D03*
G04 #@! TO.P,J17,17*
G04 #@! TO.N,T0*
X121920000Y-104140000D03*
G04 #@! TO.P,J17,18*
G04 #@! TO.N,T1*
X124460000Y-104140000D03*
G04 #@! TO.P,J17,19*
G04 #@! TO.N,TB*
X121920000Y-106680000D03*
G04 #@! TO.P,J17,20*
G04 #@! TO.N,TC*
X124460000Y-106680000D03*
G04 #@! TO.P,J17,21*
G04 #@! TO.N,GND*
X121920000Y-109220000D03*
G04 #@! TO.P,J17,22*
G04 #@! TO.N,3V3*
X124460000Y-109220000D03*
G04 #@! TO.P,J17,23*
G04 #@! TO.N,Net-(J17-Pad23)*
X121920000Y-111760000D03*
G04 #@! TO.P,J17,24*
G04 #@! TO.N,HotBed*
X124460000Y-111760000D03*
G04 #@! TO.P,J17,25*
G04 #@! TO.N,Heater0*
X121920000Y-114300000D03*
G04 #@! TO.P,J17,26*
G04 #@! TO.N,Heater1*
X124460000Y-114300000D03*
G04 #@! TO.P,J17,27*
G04 #@! TO.N,X_Dir*
X121920000Y-116840000D03*
G04 #@! TO.P,J17,28*
G04 #@! TO.N,Y-*
X124460000Y-116840000D03*
G04 #@! TO.P,J17,29*
G04 #@! TO.N,Net-(J17-Pad29)*
X121920000Y-119380000D03*
G04 #@! TO.P,J17,30*
G04 #@! TO.N,Net-(J17-Pad30)*
X124460000Y-119380000D03*
G04 #@! TO.P,J17,31*
G04 #@! TO.N,X_Step*
X121920000Y-121920000D03*
G04 #@! TO.P,J17,32*
G04 #@! TO.N,Net-(J17-Pad32)*
X124460000Y-121920000D03*
G04 #@! TO.P,J17,33*
G04 #@! TO.N,Net-(J17-Pad33)*
X121920000Y-124460000D03*
G04 #@! TO.P,J17,34*
G04 #@! TO.N,Net-(J17-Pad34)*
X124460000Y-124460000D03*
G04 #@! TO.P,J17,35*
G04 #@! TO.N,X_En*
X121920000Y-127000000D03*
G04 #@! TO.P,J17,36*
G04 #@! TO.N,Net-(J17-Pad36)*
X124460000Y-127000000D03*
G04 #@! TO.P,J17,37*
G04 #@! TO.N,Net-(J17-Pad37)*
X121920000Y-129540000D03*
G04 #@! TO.P,J17,38*
G04 #@! TO.N,Net-(J17-Pad38)*
X124460000Y-129540000D03*
G04 #@! TO.P,J17,39*
G04 #@! TO.N,Net-(J17-Pad39)*
X121920000Y-132080000D03*
G04 #@! TO.P,J17,40*
G04 #@! TO.N,Net-(J17-Pad40)*
X124460000Y-132080000D03*
G04 #@! TO.P,J17,41*
G04 #@! TO.N,Net-(J17-Pad41)*
X121920000Y-134620000D03*
G04 #@! TO.P,J17,42*
G04 #@! TO.N,Net-(J17-Pad42)*
X124460000Y-134620000D03*
G04 #@! TO.P,J17,43*
G04 #@! TO.N,Net-(J17-Pad43)*
X121920000Y-137160000D03*
G04 #@! TO.P,J17,44*
G04 #@! TO.N,SS1*
X124460000Y-137160000D03*
G04 #@! TO.P,J17,45*
G04 #@! TO.N,SS2*
X121920000Y-139700000D03*
G04 #@! TO.P,J17,46*
G04 #@! TO.N,Net-(J17-Pad46)*
X124460000Y-139700000D03*
G04 #@! TO.P,J17,47*
G04 #@! TO.N,CLK*
X121920000Y-142240000D03*
G04 #@! TO.P,J17,48*
G04 #@! TO.N,MISO*
X124460000Y-142240000D03*
G04 #@! TD*
G04 #@! TO.P,J18,8*
G04 #@! TO.N,Y_Dir*
X134620000Y-81280000D03*
G04 #@! TO.P,J18,7*
G04 #@! TO.N,Y_Step*
X134620000Y-78740000D03*
G04 #@! TO.P,J18,6*
G04 #@! TO.N,Net-(J18-Pad5)*
X134620000Y-76200000D03*
G04 #@! TO.P,J18,5*
X134620000Y-73660000D03*
G04 #@! TO.P,J18,4*
G04 #@! TO.N,Net-(J18-Pad4)*
X134620000Y-71120000D03*
G04 #@! TO.P,J18,3*
G04 #@! TO.N,Net-(J18-Pad3)*
X134620000Y-68580000D03*
G04 #@! TO.P,J18,2*
G04 #@! TO.N,Net-(J18-Pad2)*
X134620000Y-66040000D03*
D12*
G04 #@! TO.P,J18,1*
G04 #@! TO.N,Y_En*
X134620000Y-63500000D03*
G04 #@! TD*
D14*
G04 #@! TO.P,J22,6*
G04 #@! TO.N,3V3*
X142240000Y-81280000D03*
G04 #@! TO.P,J22,5*
G04 #@! TO.N,Net-(J18-Pad4)*
X139700000Y-81280000D03*
G04 #@! TO.P,J22,4*
G04 #@! TO.N,3V3*
X142240000Y-78740000D03*
G04 #@! TO.P,J22,3*
G04 #@! TO.N,Net-(J18-Pad3)*
X139700000Y-78740000D03*
G04 #@! TO.P,J22,2*
G04 #@! TO.N,3V3*
X142240000Y-76200000D03*
D12*
G04 #@! TO.P,J22,1*
G04 #@! TO.N,Net-(J18-Pad2)*
X139700000Y-76200000D03*
G04 #@! TD*
G04 #@! TO.P,J24,1*
G04 #@! TO.N,Z_En*
X149860000Y-63500000D03*
D14*
G04 #@! TO.P,J24,2*
G04 #@! TO.N,Net-(J24-Pad2)*
X149860000Y-66040000D03*
G04 #@! TO.P,J24,3*
G04 #@! TO.N,Net-(J24-Pad3)*
X149860000Y-68580000D03*
G04 #@! TO.P,J24,4*
G04 #@! TO.N,Net-(J24-Pad4)*
X149860000Y-71120000D03*
G04 #@! TO.P,J24,5*
G04 #@! TO.N,Net-(J24-Pad5)*
X149860000Y-73660000D03*
G04 #@! TO.P,J24,6*
X149860000Y-76200000D03*
G04 #@! TO.P,J24,7*
G04 #@! TO.N,Z_Step*
X149860000Y-78740000D03*
G04 #@! TO.P,J24,8*
G04 #@! TO.N,Z_Dir*
X149860000Y-81280000D03*
G04 #@! TD*
D12*
G04 #@! TO.P,J26,1*
G04 #@! TO.N,Net-(J24-Pad2)*
X154940000Y-76200000D03*
D14*
G04 #@! TO.P,J26,2*
G04 #@! TO.N,3V3*
X157480000Y-76200000D03*
G04 #@! TO.P,J26,3*
G04 #@! TO.N,Net-(J24-Pad3)*
X154940000Y-78740000D03*
G04 #@! TO.P,J26,4*
G04 #@! TO.N,3V3*
X157480000Y-78740000D03*
G04 #@! TO.P,J26,5*
G04 #@! TO.N,Net-(J24-Pad4)*
X154940000Y-81280000D03*
G04 #@! TO.P,J26,6*
G04 #@! TO.N,3V3*
X157480000Y-81280000D03*
G04 #@! TD*
D22*
G04 #@! TO.P,J27,10*
G04 #@! TO.N,Beeper*
X172720000Y-143510000D03*
G04 #@! TO.P,J27,9*
G04 #@! TO.N,ENC*
X172720000Y-146050000D03*
G04 #@! TO.P,J27,8*
G04 #@! TO.N,LCDE*
X170180000Y-143510000D03*
G04 #@! TO.P,J27,7*
G04 #@! TO.N,LCDRS*
X170180000Y-146050000D03*
G04 #@! TO.P,J27,6*
G04 #@! TO.N,LCD4*
X167640000Y-143510000D03*
G04 #@! TO.P,J27,5*
G04 #@! TO.N,LCD5*
X167640000Y-146050000D03*
G04 #@! TO.P,J27,4*
G04 #@! TO.N,LCD6*
X165100000Y-143510000D03*
G04 #@! TO.P,J27,3*
G04 #@! TO.N,LCD7*
X165100000Y-146050000D03*
G04 #@! TO.P,J27,2*
G04 #@! TO.N,GND*
X162560000Y-143510000D03*
D21*
G04 #@! TO.P,J27,1*
G04 #@! TO.N,5V*
X162560000Y-146050000D03*
G04 #@! TD*
D11*
G04 #@! TO.N,GND*
G04 #@! TO.C,R5*
G36*
X126275191Y-73186053D02*
X126296426Y-73189203D01*
X126317250Y-73194419D01*
X126337462Y-73201651D01*
X126356868Y-73210830D01*
X126375281Y-73221866D01*
X126392524Y-73234654D01*
X126408430Y-73249070D01*
X126422846Y-73264976D01*
X126435634Y-73282219D01*
X126446670Y-73300632D01*
X126455849Y-73320038D01*
X126463081Y-73340250D01*
X126468297Y-73361074D01*
X126471447Y-73382309D01*
X126472500Y-73403750D01*
X126472500Y-73916250D01*
X126471447Y-73937691D01*
X126468297Y-73958926D01*
X126463081Y-73979750D01*
X126455849Y-73999962D01*
X126446670Y-74019368D01*
X126435634Y-74037781D01*
X126422846Y-74055024D01*
X126408430Y-74070930D01*
X126392524Y-74085346D01*
X126375281Y-74098134D01*
X126356868Y-74109170D01*
X126337462Y-74118349D01*
X126317250Y-74125581D01*
X126296426Y-74130797D01*
X126275191Y-74133947D01*
X126253750Y-74135000D01*
X125816250Y-74135000D01*
X125794809Y-74133947D01*
X125773574Y-74130797D01*
X125752750Y-74125581D01*
X125732538Y-74118349D01*
X125713132Y-74109170D01*
X125694719Y-74098134D01*
X125677476Y-74085346D01*
X125661570Y-74070930D01*
X125647154Y-74055024D01*
X125634366Y-74037781D01*
X125623330Y-74019368D01*
X125614151Y-73999962D01*
X125606919Y-73979750D01*
X125601703Y-73958926D01*
X125598553Y-73937691D01*
X125597500Y-73916250D01*
X125597500Y-73403750D01*
X125598553Y-73382309D01*
X125601703Y-73361074D01*
X125606919Y-73340250D01*
X125614151Y-73320038D01*
X125623330Y-73300632D01*
X125634366Y-73282219D01*
X125647154Y-73264976D01*
X125661570Y-73249070D01*
X125677476Y-73234654D01*
X125694719Y-73221866D01*
X125713132Y-73210830D01*
X125732538Y-73201651D01*
X125752750Y-73194419D01*
X125773574Y-73189203D01*
X125794809Y-73186053D01*
X125816250Y-73185000D01*
X126253750Y-73185000D01*
X126275191Y-73186053D01*
X126275191Y-73186053D01*
G37*
D15*
G04 #@! TD*
G04 #@! TO.P,R5,1*
G04 #@! TO.N,GND*
X126035000Y-73660000D03*
D11*
G04 #@! TO.N,Net-(J12-Pad2)*
G04 #@! TO.C,R5*
G36*
X124700191Y-73186053D02*
X124721426Y-73189203D01*
X124742250Y-73194419D01*
X124762462Y-73201651D01*
X124781868Y-73210830D01*
X124800281Y-73221866D01*
X124817524Y-73234654D01*
X124833430Y-73249070D01*
X124847846Y-73264976D01*
X124860634Y-73282219D01*
X124871670Y-73300632D01*
X124880849Y-73320038D01*
X124888081Y-73340250D01*
X124893297Y-73361074D01*
X124896447Y-73382309D01*
X124897500Y-73403750D01*
X124897500Y-73916250D01*
X124896447Y-73937691D01*
X124893297Y-73958926D01*
X124888081Y-73979750D01*
X124880849Y-73999962D01*
X124871670Y-74019368D01*
X124860634Y-74037781D01*
X124847846Y-74055024D01*
X124833430Y-74070930D01*
X124817524Y-74085346D01*
X124800281Y-74098134D01*
X124781868Y-74109170D01*
X124762462Y-74118349D01*
X124742250Y-74125581D01*
X124721426Y-74130797D01*
X124700191Y-74133947D01*
X124678750Y-74135000D01*
X124241250Y-74135000D01*
X124219809Y-74133947D01*
X124198574Y-74130797D01*
X124177750Y-74125581D01*
X124157538Y-74118349D01*
X124138132Y-74109170D01*
X124119719Y-74098134D01*
X124102476Y-74085346D01*
X124086570Y-74070930D01*
X124072154Y-74055024D01*
X124059366Y-74037781D01*
X124048330Y-74019368D01*
X124039151Y-73999962D01*
X124031919Y-73979750D01*
X124026703Y-73958926D01*
X124023553Y-73937691D01*
X124022500Y-73916250D01*
X124022500Y-73403750D01*
X124023553Y-73382309D01*
X124026703Y-73361074D01*
X124031919Y-73340250D01*
X124039151Y-73320038D01*
X124048330Y-73300632D01*
X124059366Y-73282219D01*
X124072154Y-73264976D01*
X124086570Y-73249070D01*
X124102476Y-73234654D01*
X124119719Y-73221866D01*
X124138132Y-73210830D01*
X124157538Y-73201651D01*
X124177750Y-73194419D01*
X124198574Y-73189203D01*
X124219809Y-73186053D01*
X124241250Y-73185000D01*
X124678750Y-73185000D01*
X124700191Y-73186053D01*
X124700191Y-73186053D01*
G37*
D15*
G04 #@! TD*
G04 #@! TO.P,R5,2*
G04 #@! TO.N,Net-(J12-Pad2)*
X124460000Y-73660000D03*
D11*
G04 #@! TO.N,Net-(J18-Pad2)*
G04 #@! TO.C,R6*
G36*
X139940191Y-73186053D02*
X139961426Y-73189203D01*
X139982250Y-73194419D01*
X140002462Y-73201651D01*
X140021868Y-73210830D01*
X140040281Y-73221866D01*
X140057524Y-73234654D01*
X140073430Y-73249070D01*
X140087846Y-73264976D01*
X140100634Y-73282219D01*
X140111670Y-73300632D01*
X140120849Y-73320038D01*
X140128081Y-73340250D01*
X140133297Y-73361074D01*
X140136447Y-73382309D01*
X140137500Y-73403750D01*
X140137500Y-73916250D01*
X140136447Y-73937691D01*
X140133297Y-73958926D01*
X140128081Y-73979750D01*
X140120849Y-73999962D01*
X140111670Y-74019368D01*
X140100634Y-74037781D01*
X140087846Y-74055024D01*
X140073430Y-74070930D01*
X140057524Y-74085346D01*
X140040281Y-74098134D01*
X140021868Y-74109170D01*
X140002462Y-74118349D01*
X139982250Y-74125581D01*
X139961426Y-74130797D01*
X139940191Y-74133947D01*
X139918750Y-74135000D01*
X139481250Y-74135000D01*
X139459809Y-74133947D01*
X139438574Y-74130797D01*
X139417750Y-74125581D01*
X139397538Y-74118349D01*
X139378132Y-74109170D01*
X139359719Y-74098134D01*
X139342476Y-74085346D01*
X139326570Y-74070930D01*
X139312154Y-74055024D01*
X139299366Y-74037781D01*
X139288330Y-74019368D01*
X139279151Y-73999962D01*
X139271919Y-73979750D01*
X139266703Y-73958926D01*
X139263553Y-73937691D01*
X139262500Y-73916250D01*
X139262500Y-73403750D01*
X139263553Y-73382309D01*
X139266703Y-73361074D01*
X139271919Y-73340250D01*
X139279151Y-73320038D01*
X139288330Y-73300632D01*
X139299366Y-73282219D01*
X139312154Y-73264976D01*
X139326570Y-73249070D01*
X139342476Y-73234654D01*
X139359719Y-73221866D01*
X139378132Y-73210830D01*
X139397538Y-73201651D01*
X139417750Y-73194419D01*
X139438574Y-73189203D01*
X139459809Y-73186053D01*
X139481250Y-73185000D01*
X139918750Y-73185000D01*
X139940191Y-73186053D01*
X139940191Y-73186053D01*
G37*
D15*
G04 #@! TD*
G04 #@! TO.P,R6,2*
G04 #@! TO.N,Net-(J18-Pad2)*
X139700000Y-73660000D03*
D11*
G04 #@! TO.N,GND*
G04 #@! TO.C,R6*
G36*
X141515191Y-73186053D02*
X141536426Y-73189203D01*
X141557250Y-73194419D01*
X141577462Y-73201651D01*
X141596868Y-73210830D01*
X141615281Y-73221866D01*
X141632524Y-73234654D01*
X141648430Y-73249070D01*
X141662846Y-73264976D01*
X141675634Y-73282219D01*
X141686670Y-73300632D01*
X141695849Y-73320038D01*
X141703081Y-73340250D01*
X141708297Y-73361074D01*
X141711447Y-73382309D01*
X141712500Y-73403750D01*
X141712500Y-73916250D01*
X141711447Y-73937691D01*
X141708297Y-73958926D01*
X141703081Y-73979750D01*
X141695849Y-73999962D01*
X141686670Y-74019368D01*
X141675634Y-74037781D01*
X141662846Y-74055024D01*
X141648430Y-74070930D01*
X141632524Y-74085346D01*
X141615281Y-74098134D01*
X141596868Y-74109170D01*
X141577462Y-74118349D01*
X141557250Y-74125581D01*
X141536426Y-74130797D01*
X141515191Y-74133947D01*
X141493750Y-74135000D01*
X141056250Y-74135000D01*
X141034809Y-74133947D01*
X141013574Y-74130797D01*
X140992750Y-74125581D01*
X140972538Y-74118349D01*
X140953132Y-74109170D01*
X140934719Y-74098134D01*
X140917476Y-74085346D01*
X140901570Y-74070930D01*
X140887154Y-74055024D01*
X140874366Y-74037781D01*
X140863330Y-74019368D01*
X140854151Y-73999962D01*
X140846919Y-73979750D01*
X140841703Y-73958926D01*
X140838553Y-73937691D01*
X140837500Y-73916250D01*
X140837500Y-73403750D01*
X140838553Y-73382309D01*
X140841703Y-73361074D01*
X140846919Y-73340250D01*
X140854151Y-73320038D01*
X140863330Y-73300632D01*
X140874366Y-73282219D01*
X140887154Y-73264976D01*
X140901570Y-73249070D01*
X140917476Y-73234654D01*
X140934719Y-73221866D01*
X140953132Y-73210830D01*
X140972538Y-73201651D01*
X140992750Y-73194419D01*
X141013574Y-73189203D01*
X141034809Y-73186053D01*
X141056250Y-73185000D01*
X141493750Y-73185000D01*
X141515191Y-73186053D01*
X141515191Y-73186053D01*
G37*
D15*
G04 #@! TD*
G04 #@! TO.P,R6,1*
G04 #@! TO.N,GND*
X141275000Y-73660000D03*
D11*
G04 #@! TO.N,GND*
G04 #@! TO.C,R7*
G36*
X156755191Y-73186053D02*
X156776426Y-73189203D01*
X156797250Y-73194419D01*
X156817462Y-73201651D01*
X156836868Y-73210830D01*
X156855281Y-73221866D01*
X156872524Y-73234654D01*
X156888430Y-73249070D01*
X156902846Y-73264976D01*
X156915634Y-73282219D01*
X156926670Y-73300632D01*
X156935849Y-73320038D01*
X156943081Y-73340250D01*
X156948297Y-73361074D01*
X156951447Y-73382309D01*
X156952500Y-73403750D01*
X156952500Y-73916250D01*
X156951447Y-73937691D01*
X156948297Y-73958926D01*
X156943081Y-73979750D01*
X156935849Y-73999962D01*
X156926670Y-74019368D01*
X156915634Y-74037781D01*
X156902846Y-74055024D01*
X156888430Y-74070930D01*
X156872524Y-74085346D01*
X156855281Y-74098134D01*
X156836868Y-74109170D01*
X156817462Y-74118349D01*
X156797250Y-74125581D01*
X156776426Y-74130797D01*
X156755191Y-74133947D01*
X156733750Y-74135000D01*
X156296250Y-74135000D01*
X156274809Y-74133947D01*
X156253574Y-74130797D01*
X156232750Y-74125581D01*
X156212538Y-74118349D01*
X156193132Y-74109170D01*
X156174719Y-74098134D01*
X156157476Y-74085346D01*
X156141570Y-74070930D01*
X156127154Y-74055024D01*
X156114366Y-74037781D01*
X156103330Y-74019368D01*
X156094151Y-73999962D01*
X156086919Y-73979750D01*
X156081703Y-73958926D01*
X156078553Y-73937691D01*
X156077500Y-73916250D01*
X156077500Y-73403750D01*
X156078553Y-73382309D01*
X156081703Y-73361074D01*
X156086919Y-73340250D01*
X156094151Y-73320038D01*
X156103330Y-73300632D01*
X156114366Y-73282219D01*
X156127154Y-73264976D01*
X156141570Y-73249070D01*
X156157476Y-73234654D01*
X156174719Y-73221866D01*
X156193132Y-73210830D01*
X156212538Y-73201651D01*
X156232750Y-73194419D01*
X156253574Y-73189203D01*
X156274809Y-73186053D01*
X156296250Y-73185000D01*
X156733750Y-73185000D01*
X156755191Y-73186053D01*
X156755191Y-73186053D01*
G37*
D15*
G04 #@! TD*
G04 #@! TO.P,R7,1*
G04 #@! TO.N,GND*
X156515000Y-73660000D03*
D11*
G04 #@! TO.N,Net-(J24-Pad2)*
G04 #@! TO.C,R7*
G36*
X155180191Y-73186053D02*
X155201426Y-73189203D01*
X155222250Y-73194419D01*
X155242462Y-73201651D01*
X155261868Y-73210830D01*
X155280281Y-73221866D01*
X155297524Y-73234654D01*
X155313430Y-73249070D01*
X155327846Y-73264976D01*
X155340634Y-73282219D01*
X155351670Y-73300632D01*
X155360849Y-73320038D01*
X155368081Y-73340250D01*
X155373297Y-73361074D01*
X155376447Y-73382309D01*
X155377500Y-73403750D01*
X155377500Y-73916250D01*
X155376447Y-73937691D01*
X155373297Y-73958926D01*
X155368081Y-73979750D01*
X155360849Y-73999962D01*
X155351670Y-74019368D01*
X155340634Y-74037781D01*
X155327846Y-74055024D01*
X155313430Y-74070930D01*
X155297524Y-74085346D01*
X155280281Y-74098134D01*
X155261868Y-74109170D01*
X155242462Y-74118349D01*
X155222250Y-74125581D01*
X155201426Y-74130797D01*
X155180191Y-74133947D01*
X155158750Y-74135000D01*
X154721250Y-74135000D01*
X154699809Y-74133947D01*
X154678574Y-74130797D01*
X154657750Y-74125581D01*
X154637538Y-74118349D01*
X154618132Y-74109170D01*
X154599719Y-74098134D01*
X154582476Y-74085346D01*
X154566570Y-74070930D01*
X154552154Y-74055024D01*
X154539366Y-74037781D01*
X154528330Y-74019368D01*
X154519151Y-73999962D01*
X154511919Y-73979750D01*
X154506703Y-73958926D01*
X154503553Y-73937691D01*
X154502500Y-73916250D01*
X154502500Y-73403750D01*
X154503553Y-73382309D01*
X154506703Y-73361074D01*
X154511919Y-73340250D01*
X154519151Y-73320038D01*
X154528330Y-73300632D01*
X154539366Y-73282219D01*
X154552154Y-73264976D01*
X154566570Y-73249070D01*
X154582476Y-73234654D01*
X154599719Y-73221866D01*
X154618132Y-73210830D01*
X154637538Y-73201651D01*
X154657750Y-73194419D01*
X154678574Y-73189203D01*
X154699809Y-73186053D01*
X154721250Y-73185000D01*
X155158750Y-73185000D01*
X155180191Y-73186053D01*
X155180191Y-73186053D01*
G37*
D15*
G04 #@! TD*
G04 #@! TO.P,R7,2*
G04 #@! TO.N,Net-(J24-Pad2)*
X154940000Y-73660000D03*
D11*
G04 #@! TO.N,Net-(J28-Pad2)*
G04 #@! TO.C,R8*
G36*
X170420191Y-73186053D02*
X170441426Y-73189203D01*
X170462250Y-73194419D01*
X170482462Y-73201651D01*
X170501868Y-73210830D01*
X170520281Y-73221866D01*
X170537524Y-73234654D01*
X170553430Y-73249070D01*
X170567846Y-73264976D01*
X170580634Y-73282219D01*
X170591670Y-73300632D01*
X170600849Y-73320038D01*
X170608081Y-73340250D01*
X170613297Y-73361074D01*
X170616447Y-73382309D01*
X170617500Y-73403750D01*
X170617500Y-73916250D01*
X170616447Y-73937691D01*
X170613297Y-73958926D01*
X170608081Y-73979750D01*
X170600849Y-73999962D01*
X170591670Y-74019368D01*
X170580634Y-74037781D01*
X170567846Y-74055024D01*
X170553430Y-74070930D01*
X170537524Y-74085346D01*
X170520281Y-74098134D01*
X170501868Y-74109170D01*
X170482462Y-74118349D01*
X170462250Y-74125581D01*
X170441426Y-74130797D01*
X170420191Y-74133947D01*
X170398750Y-74135000D01*
X169961250Y-74135000D01*
X169939809Y-74133947D01*
X169918574Y-74130797D01*
X169897750Y-74125581D01*
X169877538Y-74118349D01*
X169858132Y-74109170D01*
X169839719Y-74098134D01*
X169822476Y-74085346D01*
X169806570Y-74070930D01*
X169792154Y-74055024D01*
X169779366Y-74037781D01*
X169768330Y-74019368D01*
X169759151Y-73999962D01*
X169751919Y-73979750D01*
X169746703Y-73958926D01*
X169743553Y-73937691D01*
X169742500Y-73916250D01*
X169742500Y-73403750D01*
X169743553Y-73382309D01*
X169746703Y-73361074D01*
X169751919Y-73340250D01*
X169759151Y-73320038D01*
X169768330Y-73300632D01*
X169779366Y-73282219D01*
X169792154Y-73264976D01*
X169806570Y-73249070D01*
X169822476Y-73234654D01*
X169839719Y-73221866D01*
X169858132Y-73210830D01*
X169877538Y-73201651D01*
X169897750Y-73194419D01*
X169918574Y-73189203D01*
X169939809Y-73186053D01*
X169961250Y-73185000D01*
X170398750Y-73185000D01*
X170420191Y-73186053D01*
X170420191Y-73186053D01*
G37*
D15*
G04 #@! TD*
G04 #@! TO.P,R8,2*
G04 #@! TO.N,Net-(J28-Pad2)*
X170180000Y-73660000D03*
D11*
G04 #@! TO.N,GND*
G04 #@! TO.C,R8*
G36*
X171995191Y-73186053D02*
X172016426Y-73189203D01*
X172037250Y-73194419D01*
X172057462Y-73201651D01*
X172076868Y-73210830D01*
X172095281Y-73221866D01*
X172112524Y-73234654D01*
X172128430Y-73249070D01*
X172142846Y-73264976D01*
X172155634Y-73282219D01*
X172166670Y-73300632D01*
X172175849Y-73320038D01*
X172183081Y-73340250D01*
X172188297Y-73361074D01*
X172191447Y-73382309D01*
X172192500Y-73403750D01*
X172192500Y-73916250D01*
X172191447Y-73937691D01*
X172188297Y-73958926D01*
X172183081Y-73979750D01*
X172175849Y-73999962D01*
X172166670Y-74019368D01*
X172155634Y-74037781D01*
X172142846Y-74055024D01*
X172128430Y-74070930D01*
X172112524Y-74085346D01*
X172095281Y-74098134D01*
X172076868Y-74109170D01*
X172057462Y-74118349D01*
X172037250Y-74125581D01*
X172016426Y-74130797D01*
X171995191Y-74133947D01*
X171973750Y-74135000D01*
X171536250Y-74135000D01*
X171514809Y-74133947D01*
X171493574Y-74130797D01*
X171472750Y-74125581D01*
X171452538Y-74118349D01*
X171433132Y-74109170D01*
X171414719Y-74098134D01*
X171397476Y-74085346D01*
X171381570Y-74070930D01*
X171367154Y-74055024D01*
X171354366Y-74037781D01*
X171343330Y-74019368D01*
X171334151Y-73999962D01*
X171326919Y-73979750D01*
X171321703Y-73958926D01*
X171318553Y-73937691D01*
X171317500Y-73916250D01*
X171317500Y-73403750D01*
X171318553Y-73382309D01*
X171321703Y-73361074D01*
X171326919Y-73340250D01*
X171334151Y-73320038D01*
X171343330Y-73300632D01*
X171354366Y-73282219D01*
X171367154Y-73264976D01*
X171381570Y-73249070D01*
X171397476Y-73234654D01*
X171414719Y-73221866D01*
X171433132Y-73210830D01*
X171452538Y-73201651D01*
X171472750Y-73194419D01*
X171493574Y-73189203D01*
X171514809Y-73186053D01*
X171536250Y-73185000D01*
X171973750Y-73185000D01*
X171995191Y-73186053D01*
X171995191Y-73186053D01*
G37*
D15*
G04 #@! TD*
G04 #@! TO.P,R8,1*
G04 #@! TO.N,GND*
X171755000Y-73660000D03*
D11*
G04 #@! TO.N,GND*
G04 #@! TO.C,R9*
G36*
X187235191Y-73186053D02*
X187256426Y-73189203D01*
X187277250Y-73194419D01*
X187297462Y-73201651D01*
X187316868Y-73210830D01*
X187335281Y-73221866D01*
X187352524Y-73234654D01*
X187368430Y-73249070D01*
X187382846Y-73264976D01*
X187395634Y-73282219D01*
X187406670Y-73300632D01*
X187415849Y-73320038D01*
X187423081Y-73340250D01*
X187428297Y-73361074D01*
X187431447Y-73382309D01*
X187432500Y-73403750D01*
X187432500Y-73916250D01*
X187431447Y-73937691D01*
X187428297Y-73958926D01*
X187423081Y-73979750D01*
X187415849Y-73999962D01*
X187406670Y-74019368D01*
X187395634Y-74037781D01*
X187382846Y-74055024D01*
X187368430Y-74070930D01*
X187352524Y-74085346D01*
X187335281Y-74098134D01*
X187316868Y-74109170D01*
X187297462Y-74118349D01*
X187277250Y-74125581D01*
X187256426Y-74130797D01*
X187235191Y-74133947D01*
X187213750Y-74135000D01*
X186776250Y-74135000D01*
X186754809Y-74133947D01*
X186733574Y-74130797D01*
X186712750Y-74125581D01*
X186692538Y-74118349D01*
X186673132Y-74109170D01*
X186654719Y-74098134D01*
X186637476Y-74085346D01*
X186621570Y-74070930D01*
X186607154Y-74055024D01*
X186594366Y-74037781D01*
X186583330Y-74019368D01*
X186574151Y-73999962D01*
X186566919Y-73979750D01*
X186561703Y-73958926D01*
X186558553Y-73937691D01*
X186557500Y-73916250D01*
X186557500Y-73403750D01*
X186558553Y-73382309D01*
X186561703Y-73361074D01*
X186566919Y-73340250D01*
X186574151Y-73320038D01*
X186583330Y-73300632D01*
X186594366Y-73282219D01*
X186607154Y-73264976D01*
X186621570Y-73249070D01*
X186637476Y-73234654D01*
X186654719Y-73221866D01*
X186673132Y-73210830D01*
X186692538Y-73201651D01*
X186712750Y-73194419D01*
X186733574Y-73189203D01*
X186754809Y-73186053D01*
X186776250Y-73185000D01*
X187213750Y-73185000D01*
X187235191Y-73186053D01*
X187235191Y-73186053D01*
G37*
D15*
G04 #@! TD*
G04 #@! TO.P,R9,1*
G04 #@! TO.N,GND*
X186995000Y-73660000D03*
D11*
G04 #@! TO.N,Net-(J31-Pad2)*
G04 #@! TO.C,R9*
G36*
X185660191Y-73186053D02*
X185681426Y-73189203D01*
X185702250Y-73194419D01*
X185722462Y-73201651D01*
X185741868Y-73210830D01*
X185760281Y-73221866D01*
X185777524Y-73234654D01*
X185793430Y-73249070D01*
X185807846Y-73264976D01*
X185820634Y-73282219D01*
X185831670Y-73300632D01*
X185840849Y-73320038D01*
X185848081Y-73340250D01*
X185853297Y-73361074D01*
X185856447Y-73382309D01*
X185857500Y-73403750D01*
X185857500Y-73916250D01*
X185856447Y-73937691D01*
X185853297Y-73958926D01*
X185848081Y-73979750D01*
X185840849Y-73999962D01*
X185831670Y-74019368D01*
X185820634Y-74037781D01*
X185807846Y-74055024D01*
X185793430Y-74070930D01*
X185777524Y-74085346D01*
X185760281Y-74098134D01*
X185741868Y-74109170D01*
X185722462Y-74118349D01*
X185702250Y-74125581D01*
X185681426Y-74130797D01*
X185660191Y-74133947D01*
X185638750Y-74135000D01*
X185201250Y-74135000D01*
X185179809Y-74133947D01*
X185158574Y-74130797D01*
X185137750Y-74125581D01*
X185117538Y-74118349D01*
X185098132Y-74109170D01*
X185079719Y-74098134D01*
X185062476Y-74085346D01*
X185046570Y-74070930D01*
X185032154Y-74055024D01*
X185019366Y-74037781D01*
X185008330Y-74019368D01*
X184999151Y-73999962D01*
X184991919Y-73979750D01*
X184986703Y-73958926D01*
X184983553Y-73937691D01*
X184982500Y-73916250D01*
X184982500Y-73403750D01*
X184983553Y-73382309D01*
X184986703Y-73361074D01*
X184991919Y-73340250D01*
X184999151Y-73320038D01*
X185008330Y-73300632D01*
X185019366Y-73282219D01*
X185032154Y-73264976D01*
X185046570Y-73249070D01*
X185062476Y-73234654D01*
X185079719Y-73221866D01*
X185098132Y-73210830D01*
X185117538Y-73201651D01*
X185137750Y-73194419D01*
X185158574Y-73189203D01*
X185179809Y-73186053D01*
X185201250Y-73185000D01*
X185638750Y-73185000D01*
X185660191Y-73186053D01*
X185660191Y-73186053D01*
G37*
D15*
G04 #@! TD*
G04 #@! TO.P,R9,2*
G04 #@! TO.N,Net-(J31-Pad2)*
X185420000Y-73660000D03*
D18*
G04 #@! TO.P,Q3,1*
G04 #@! TO.N,Net-(Q3-Pad1)*
X146000000Y-137535000D03*
G04 #@! TO.P,Q3,3*
G04 #@! TO.N,GND*
X146000000Y-132975000D03*
D19*
G04 #@! TO.P,Q3,2*
G04 #@! TO.N,Net-(J8-Pad1)*
X139700000Y-135255000D03*
G04 #@! TD*
D23*
G04 #@! TO.P,U2,5*
G04 #@! TO.N,5V*
X150810000Y-128135000D03*
G04 #@! TO.P,U2,4*
G04 #@! TO.N,Net-(Q2-Pad1)*
X148910000Y-128135000D03*
G04 #@! TO.P,U2,3*
G04 #@! TO.N,GND*
X148910000Y-125935000D03*
G04 #@! TO.P,U2,2*
G04 #@! TO.N,Heater0*
X149860000Y-125935000D03*
G04 #@! TO.P,U2,1*
G04 #@! TO.N,GND*
X150810000Y-125935000D03*
G04 #@! TD*
G04 #@! TO.P,U3,1*
G04 #@! TO.N,GND*
X150810000Y-134155000D03*
G04 #@! TO.P,U3,2*
G04 #@! TO.N,Heater1*
X149860000Y-134155000D03*
G04 #@! TO.P,U3,3*
G04 #@! TO.N,GND*
X148910000Y-134155000D03*
G04 #@! TO.P,U3,4*
G04 #@! TO.N,Net-(Q3-Pad1)*
X148910000Y-136355000D03*
G04 #@! TO.P,U3,5*
G04 #@! TO.N,5V*
X150810000Y-136355000D03*
G04 #@! TD*
D14*
G04 #@! TO.P,J47,4*
G04 #@! TO.N,SDA*
X185420000Y-101600000D03*
G04 #@! TO.P,J47,3*
G04 #@! TO.N,SCL*
X185420000Y-99060000D03*
G04 #@! TO.P,J47,2*
G04 #@! TO.N,GND*
X185420000Y-96520000D03*
D12*
G04 #@! TO.P,J47,1*
G04 #@! TO.N,3V3*
X185420000Y-93980000D03*
G04 #@! TD*
D28*
G04 #@! TO.P,J49,1*
G04 #@! TO.N,GND*
X119380000Y-147320000D03*
D14*
G04 #@! TO.P,J49,2*
G04 #@! TO.N,3V3*
X121920000Y-147320000D03*
G04 #@! TO.P,J49,3*
G04 #@! TO.N,SS2*
X124460000Y-147320000D03*
G04 #@! TO.P,J49,4*
G04 #@! TO.N,CLK*
X127000000Y-147320000D03*
G04 #@! TO.P,J49,5*
G04 #@! TO.N,MISO*
X129540000Y-147320000D03*
G04 #@! TO.P,J49,6*
G04 #@! TO.N,MOSI*
X132080000Y-147320000D03*
G04 #@! TD*
D12*
G04 #@! TO.P,J51,1*
G04 #@! TO.N,PWM2*
X190500000Y-146050000D03*
D14*
G04 #@! TO.P,J51,2*
G04 #@! TO.N,Net-(J51-Pad2)*
X190500000Y-148590000D03*
G04 #@! TO.P,J51,3*
G04 #@! TO.N,GND*
X190500000Y-151130000D03*
G04 #@! TD*
D12*
G04 #@! TO.P,J53,1*
G04 #@! TO.N,5V*
X184150000Y-151130000D03*
D14*
G04 #@! TO.P,J53,2*
G04 #@! TO.N,Net-(J51-Pad2)*
X184150000Y-148590000D03*
G04 #@! TO.P,J53,3*
G04 #@! TO.N,3V3*
X184150000Y-146050000D03*
G04 #@! TD*
D12*
G04 #@! TO.P,J54,1*
G04 #@! TO.N,GND*
X180340000Y-151130000D03*
D14*
G04 #@! TO.P,J54,2*
G04 #@! TO.N,5V*
X180340000Y-148590000D03*
G04 #@! TO.P,J54,3*
G04 #@! TO.N,3V3*
X180340000Y-146050000D03*
G04 #@! TD*
D29*
G04 #@! TO.P,U5,1*
G04 #@! TO.N,GND*
X185420000Y-85565000D03*
G04 #@! TO.P,U5,2*
X184150000Y-85565000D03*
G04 #@! TO.P,U5,3*
X182880000Y-85565000D03*
G04 #@! TO.P,U5,4*
X181610000Y-85565000D03*
G04 #@! TO.P,U5,5*
G04 #@! TO.N,SDA*
X181610000Y-90965000D03*
G04 #@! TO.P,U5,6*
G04 #@! TO.N,SCL*
X182880000Y-90965000D03*
G04 #@! TO.P,U5,7*
G04 #@! TO.N,GND*
X184150000Y-90965000D03*
G04 #@! TO.P,U5,8*
G04 #@! TO.N,3V3*
X185420000Y-90965000D03*
G04 #@! TD*
D12*
G04 #@! TO.P,J55,1*
G04 #@! TO.N,PD11*
X184150000Y-142240000D03*
D14*
G04 #@! TO.P,J55,2*
G04 #@! TO.N,GND*
X181610000Y-142240000D03*
G04 #@! TD*
D11*
G04 #@! TO.N,GND*
G04 #@! TO.C,J1*
G36*
X133974504Y-95521204D02*
X133998773Y-95524804D01*
X134022571Y-95530765D01*
X134045671Y-95539030D01*
X134067849Y-95549520D01*
X134088893Y-95562133D01*
X134108598Y-95576747D01*
X134126777Y-95593223D01*
X134143253Y-95611402D01*
X134157867Y-95631107D01*
X134170480Y-95652151D01*
X134180970Y-95674329D01*
X134189235Y-95697429D01*
X134195196Y-95721227D01*
X134198796Y-95745496D01*
X134200000Y-95770000D01*
X134200000Y-97270000D01*
X134198796Y-97294504D01*
X134195196Y-97318773D01*
X134189235Y-97342571D01*
X134180970Y-97365671D01*
X134170480Y-97387849D01*
X134157867Y-97408893D01*
X134143253Y-97428598D01*
X134126777Y-97446777D01*
X134108598Y-97463253D01*
X134088893Y-97477867D01*
X134067849Y-97490480D01*
X134045671Y-97500970D01*
X134022571Y-97509235D01*
X133998773Y-97515196D01*
X133974504Y-97518796D01*
X133950000Y-97520000D01*
X132750000Y-97520000D01*
X132725496Y-97518796D01*
X132701227Y-97515196D01*
X132677429Y-97509235D01*
X132654329Y-97500970D01*
X132632151Y-97490480D01*
X132611107Y-97477867D01*
X132591402Y-97463253D01*
X132573223Y-97446777D01*
X132556747Y-97428598D01*
X132542133Y-97408893D01*
X132529520Y-97387849D01*
X132519030Y-97365671D01*
X132510765Y-97342571D01*
X132504804Y-97318773D01*
X132501204Y-97294504D01*
X132500000Y-97270000D01*
X132500000Y-95770000D01*
X132501204Y-95745496D01*
X132504804Y-95721227D01*
X132510765Y-95697429D01*
X132519030Y-95674329D01*
X132529520Y-95652151D01*
X132542133Y-95631107D01*
X132556747Y-95611402D01*
X132573223Y-95593223D01*
X132591402Y-95576747D01*
X132611107Y-95562133D01*
X132632151Y-95549520D01*
X132654329Y-95539030D01*
X132677429Y-95530765D01*
X132701227Y-95524804D01*
X132725496Y-95521204D01*
X132750000Y-95520000D01*
X133950000Y-95520000D01*
X133974504Y-95521204D01*
X133974504Y-95521204D01*
G37*
D12*
G04 #@! TD*
G04 #@! TO.P,J1,1*
G04 #@! TO.N,GND*
X133350000Y-96520000D03*
D30*
G04 #@! TO.P,J1,2*
G04 #@! TO.N,T0*
X130850000Y-96520000D03*
G04 #@! TD*
G04 #@! TO.P,J2,2*
G04 #@! TO.N,T1*
X138470000Y-96520000D03*
D11*
G04 #@! TD*
G04 #@! TO.N,GND*
G04 #@! TO.C,J2*
G36*
X141594504Y-95521204D02*
X141618773Y-95524804D01*
X141642571Y-95530765D01*
X141665671Y-95539030D01*
X141687849Y-95549520D01*
X141708893Y-95562133D01*
X141728598Y-95576747D01*
X141746777Y-95593223D01*
X141763253Y-95611402D01*
X141777867Y-95631107D01*
X141790480Y-95652151D01*
X141800970Y-95674329D01*
X141809235Y-95697429D01*
X141815196Y-95721227D01*
X141818796Y-95745496D01*
X141820000Y-95770000D01*
X141820000Y-97270000D01*
X141818796Y-97294504D01*
X141815196Y-97318773D01*
X141809235Y-97342571D01*
X141800970Y-97365671D01*
X141790480Y-97387849D01*
X141777867Y-97408893D01*
X141763253Y-97428598D01*
X141746777Y-97446777D01*
X141728598Y-97463253D01*
X141708893Y-97477867D01*
X141687849Y-97490480D01*
X141665671Y-97500970D01*
X141642571Y-97509235D01*
X141618773Y-97515196D01*
X141594504Y-97518796D01*
X141570000Y-97520000D01*
X140370000Y-97520000D01*
X140345496Y-97518796D01*
X140321227Y-97515196D01*
X140297429Y-97509235D01*
X140274329Y-97500970D01*
X140252151Y-97490480D01*
X140231107Y-97477867D01*
X140211402Y-97463253D01*
X140193223Y-97446777D01*
X140176747Y-97428598D01*
X140162133Y-97408893D01*
X140149520Y-97387849D01*
X140139030Y-97365671D01*
X140130765Y-97342571D01*
X140124804Y-97318773D01*
X140121204Y-97294504D01*
X140120000Y-97270000D01*
X140120000Y-95770000D01*
X140121204Y-95745496D01*
X140124804Y-95721227D01*
X140130765Y-95697429D01*
X140139030Y-95674329D01*
X140149520Y-95652151D01*
X140162133Y-95631107D01*
X140176747Y-95611402D01*
X140193223Y-95593223D01*
X140211402Y-95576747D01*
X140231107Y-95562133D01*
X140252151Y-95549520D01*
X140274329Y-95539030D01*
X140297429Y-95530765D01*
X140321227Y-95524804D01*
X140345496Y-95521204D01*
X140370000Y-95520000D01*
X141570000Y-95520000D01*
X141594504Y-95521204D01*
X141594504Y-95521204D01*
G37*
D12*
G04 #@! TO.P,J2,1*
G04 #@! TO.N,GND*
X140970000Y-96520000D03*
G04 #@! TD*
D11*
G04 #@! TO.N,GND*
G04 #@! TO.C,J3*
G36*
X149214504Y-95521204D02*
X149238773Y-95524804D01*
X149262571Y-95530765D01*
X149285671Y-95539030D01*
X149307849Y-95549520D01*
X149328893Y-95562133D01*
X149348598Y-95576747D01*
X149366777Y-95593223D01*
X149383253Y-95611402D01*
X149397867Y-95631107D01*
X149410480Y-95652151D01*
X149420970Y-95674329D01*
X149429235Y-95697429D01*
X149435196Y-95721227D01*
X149438796Y-95745496D01*
X149440000Y-95770000D01*
X149440000Y-97270000D01*
X149438796Y-97294504D01*
X149435196Y-97318773D01*
X149429235Y-97342571D01*
X149420970Y-97365671D01*
X149410480Y-97387849D01*
X149397867Y-97408893D01*
X149383253Y-97428598D01*
X149366777Y-97446777D01*
X149348598Y-97463253D01*
X149328893Y-97477867D01*
X149307849Y-97490480D01*
X149285671Y-97500970D01*
X149262571Y-97509235D01*
X149238773Y-97515196D01*
X149214504Y-97518796D01*
X149190000Y-97520000D01*
X147990000Y-97520000D01*
X147965496Y-97518796D01*
X147941227Y-97515196D01*
X147917429Y-97509235D01*
X147894329Y-97500970D01*
X147872151Y-97490480D01*
X147851107Y-97477867D01*
X147831402Y-97463253D01*
X147813223Y-97446777D01*
X147796747Y-97428598D01*
X147782133Y-97408893D01*
X147769520Y-97387849D01*
X147759030Y-97365671D01*
X147750765Y-97342571D01*
X147744804Y-97318773D01*
X147741204Y-97294504D01*
X147740000Y-97270000D01*
X147740000Y-95770000D01*
X147741204Y-95745496D01*
X147744804Y-95721227D01*
X147750765Y-95697429D01*
X147759030Y-95674329D01*
X147769520Y-95652151D01*
X147782133Y-95631107D01*
X147796747Y-95611402D01*
X147813223Y-95593223D01*
X147831402Y-95576747D01*
X147851107Y-95562133D01*
X147872151Y-95549520D01*
X147894329Y-95539030D01*
X147917429Y-95530765D01*
X147941227Y-95524804D01*
X147965496Y-95521204D01*
X147990000Y-95520000D01*
X149190000Y-95520000D01*
X149214504Y-95521204D01*
X149214504Y-95521204D01*
G37*
D12*
G04 #@! TD*
G04 #@! TO.P,J3,1*
G04 #@! TO.N,GND*
X148590000Y-96520000D03*
D30*
G04 #@! TO.P,J3,2*
G04 #@! TO.N,TB*
X146090000Y-96520000D03*
G04 #@! TD*
G04 #@! TO.P,J4,2*
G04 #@! TO.N,TC*
X153710000Y-96520000D03*
D11*
G04 #@! TD*
G04 #@! TO.N,GND*
G04 #@! TO.C,J4*
G36*
X156834504Y-95521204D02*
X156858773Y-95524804D01*
X156882571Y-95530765D01*
X156905671Y-95539030D01*
X156927849Y-95549520D01*
X156948893Y-95562133D01*
X156968598Y-95576747D01*
X156986777Y-95593223D01*
X157003253Y-95611402D01*
X157017867Y-95631107D01*
X157030480Y-95652151D01*
X157040970Y-95674329D01*
X157049235Y-95697429D01*
X157055196Y-95721227D01*
X157058796Y-95745496D01*
X157060000Y-95770000D01*
X157060000Y-97270000D01*
X157058796Y-97294504D01*
X157055196Y-97318773D01*
X157049235Y-97342571D01*
X157040970Y-97365671D01*
X157030480Y-97387849D01*
X157017867Y-97408893D01*
X157003253Y-97428598D01*
X156986777Y-97446777D01*
X156968598Y-97463253D01*
X156948893Y-97477867D01*
X156927849Y-97490480D01*
X156905671Y-97500970D01*
X156882571Y-97509235D01*
X156858773Y-97515196D01*
X156834504Y-97518796D01*
X156810000Y-97520000D01*
X155610000Y-97520000D01*
X155585496Y-97518796D01*
X155561227Y-97515196D01*
X155537429Y-97509235D01*
X155514329Y-97500970D01*
X155492151Y-97490480D01*
X155471107Y-97477867D01*
X155451402Y-97463253D01*
X155433223Y-97446777D01*
X155416747Y-97428598D01*
X155402133Y-97408893D01*
X155389520Y-97387849D01*
X155379030Y-97365671D01*
X155370765Y-97342571D01*
X155364804Y-97318773D01*
X155361204Y-97294504D01*
X155360000Y-97270000D01*
X155360000Y-95770000D01*
X155361204Y-95745496D01*
X155364804Y-95721227D01*
X155370765Y-95697429D01*
X155379030Y-95674329D01*
X155389520Y-95652151D01*
X155402133Y-95631107D01*
X155416747Y-95611402D01*
X155433223Y-95593223D01*
X155451402Y-95576747D01*
X155471107Y-95562133D01*
X155492151Y-95549520D01*
X155514329Y-95539030D01*
X155537429Y-95530765D01*
X155561227Y-95524804D01*
X155585496Y-95521204D01*
X155610000Y-95520000D01*
X156810000Y-95520000D01*
X156834504Y-95521204D01*
X156834504Y-95521204D01*
G37*
D12*
G04 #@! TO.P,J4,1*
G04 #@! TO.N,GND*
X156210000Y-96520000D03*
G04 #@! TD*
D13*
G04 #@! TO.P,J9,2*
G04 #@! TO.N,Net-(J9-Pad2)*
X182880000Y-132040000D03*
D11*
G04 #@! TD*
G04 #@! TO.N,Net-(J10-Pad1)*
G04 #@! TO.C,J9*
G36*
X183654504Y-128691204D02*
X183678773Y-128694804D01*
X183702571Y-128700765D01*
X183725671Y-128709030D01*
X183747849Y-128719520D01*
X183768893Y-128732133D01*
X183788598Y-128746747D01*
X183806777Y-128763223D01*
X183823253Y-128781402D01*
X183837867Y-128801107D01*
X183850480Y-128822151D01*
X183860970Y-128844329D01*
X183869235Y-128867429D01*
X183875196Y-128891227D01*
X183878796Y-128915496D01*
X183880000Y-128940000D01*
X183880000Y-130140000D01*
X183878796Y-130164504D01*
X183875196Y-130188773D01*
X183869235Y-130212571D01*
X183860970Y-130235671D01*
X183850480Y-130257849D01*
X183837867Y-130278893D01*
X183823253Y-130298598D01*
X183806777Y-130316777D01*
X183788598Y-130333253D01*
X183768893Y-130347867D01*
X183747849Y-130360480D01*
X183725671Y-130370970D01*
X183702571Y-130379235D01*
X183678773Y-130385196D01*
X183654504Y-130388796D01*
X183630000Y-130390000D01*
X182130000Y-130390000D01*
X182105496Y-130388796D01*
X182081227Y-130385196D01*
X182057429Y-130379235D01*
X182034329Y-130370970D01*
X182012151Y-130360480D01*
X181991107Y-130347867D01*
X181971402Y-130333253D01*
X181953223Y-130316777D01*
X181936747Y-130298598D01*
X181922133Y-130278893D01*
X181909520Y-130257849D01*
X181899030Y-130235671D01*
X181890765Y-130212571D01*
X181884804Y-130188773D01*
X181881204Y-130164504D01*
X181880000Y-130140000D01*
X181880000Y-128940000D01*
X181881204Y-128915496D01*
X181884804Y-128891227D01*
X181890765Y-128867429D01*
X181899030Y-128844329D01*
X181909520Y-128822151D01*
X181922133Y-128801107D01*
X181936747Y-128781402D01*
X181953223Y-128763223D01*
X181971402Y-128746747D01*
X181991107Y-128732133D01*
X182012151Y-128719520D01*
X182034329Y-128709030D01*
X182057429Y-128700765D01*
X182081227Y-128694804D01*
X182105496Y-128691204D01*
X182130000Y-128690000D01*
X183630000Y-128690000D01*
X183654504Y-128691204D01*
X183654504Y-128691204D01*
G37*
D12*
G04 #@! TO.P,J9,1*
G04 #@! TO.N,Net-(J10-Pad1)*
X182880000Y-129540000D03*
G04 #@! TD*
D11*
G04 #@! TO.N,Net-(J10-Pad1)*
G04 #@! TO.C,J10*
G36*
X176034504Y-128691204D02*
X176058773Y-128694804D01*
X176082571Y-128700765D01*
X176105671Y-128709030D01*
X176127849Y-128719520D01*
X176148893Y-128732133D01*
X176168598Y-128746747D01*
X176186777Y-128763223D01*
X176203253Y-128781402D01*
X176217867Y-128801107D01*
X176230480Y-128822151D01*
X176240970Y-128844329D01*
X176249235Y-128867429D01*
X176255196Y-128891227D01*
X176258796Y-128915496D01*
X176260000Y-128940000D01*
X176260000Y-130140000D01*
X176258796Y-130164504D01*
X176255196Y-130188773D01*
X176249235Y-130212571D01*
X176240970Y-130235671D01*
X176230480Y-130257849D01*
X176217867Y-130278893D01*
X176203253Y-130298598D01*
X176186777Y-130316777D01*
X176168598Y-130333253D01*
X176148893Y-130347867D01*
X176127849Y-130360480D01*
X176105671Y-130370970D01*
X176082571Y-130379235D01*
X176058773Y-130385196D01*
X176034504Y-130388796D01*
X176010000Y-130390000D01*
X174510000Y-130390000D01*
X174485496Y-130388796D01*
X174461227Y-130385196D01*
X174437429Y-130379235D01*
X174414329Y-130370970D01*
X174392151Y-130360480D01*
X174371107Y-130347867D01*
X174351402Y-130333253D01*
X174333223Y-130316777D01*
X174316747Y-130298598D01*
X174302133Y-130278893D01*
X174289520Y-130257849D01*
X174279030Y-130235671D01*
X174270765Y-130212571D01*
X174264804Y-130188773D01*
X174261204Y-130164504D01*
X174260000Y-130140000D01*
X174260000Y-128940000D01*
X174261204Y-128915496D01*
X174264804Y-128891227D01*
X174270765Y-128867429D01*
X174279030Y-128844329D01*
X174289520Y-128822151D01*
X174302133Y-128801107D01*
X174316747Y-128781402D01*
X174333223Y-128763223D01*
X174351402Y-128746747D01*
X174371107Y-128732133D01*
X174392151Y-128719520D01*
X174414329Y-128709030D01*
X174437429Y-128700765D01*
X174461227Y-128694804D01*
X174485496Y-128691204D01*
X174510000Y-128690000D01*
X176010000Y-128690000D01*
X176034504Y-128691204D01*
X176034504Y-128691204D01*
G37*
D12*
G04 #@! TD*
G04 #@! TO.P,J10,1*
G04 #@! TO.N,Net-(J10-Pad1)*
X175260000Y-129540000D03*
D13*
G04 #@! TO.P,J10,2*
G04 #@! TO.N,Net-(J10-Pad2)*
X175260000Y-132040000D03*
G04 #@! TD*
G04 #@! TO.P,J11,2*
G04 #@! TO.N,Net-(J11-Pad2)*
X167640000Y-132040000D03*
D11*
G04 #@! TD*
G04 #@! TO.N,Net-(J10-Pad1)*
G04 #@! TO.C,J11*
G36*
X168414504Y-128691204D02*
X168438773Y-128694804D01*
X168462571Y-128700765D01*
X168485671Y-128709030D01*
X168507849Y-128719520D01*
X168528893Y-128732133D01*
X168548598Y-128746747D01*
X168566777Y-128763223D01*
X168583253Y-128781402D01*
X168597867Y-128801107D01*
X168610480Y-128822151D01*
X168620970Y-128844329D01*
X168629235Y-128867429D01*
X168635196Y-128891227D01*
X168638796Y-128915496D01*
X168640000Y-128940000D01*
X168640000Y-130140000D01*
X168638796Y-130164504D01*
X168635196Y-130188773D01*
X168629235Y-130212571D01*
X168620970Y-130235671D01*
X168610480Y-130257849D01*
X168597867Y-130278893D01*
X168583253Y-130298598D01*
X168566777Y-130316777D01*
X168548598Y-130333253D01*
X168528893Y-130347867D01*
X168507849Y-130360480D01*
X168485671Y-130370970D01*
X168462571Y-130379235D01*
X168438773Y-130385196D01*
X168414504Y-130388796D01*
X168390000Y-130390000D01*
X166890000Y-130390000D01*
X166865496Y-130388796D01*
X166841227Y-130385196D01*
X166817429Y-130379235D01*
X166794329Y-130370970D01*
X166772151Y-130360480D01*
X166751107Y-130347867D01*
X166731402Y-130333253D01*
X166713223Y-130316777D01*
X166696747Y-130298598D01*
X166682133Y-130278893D01*
X166669520Y-130257849D01*
X166659030Y-130235671D01*
X166650765Y-130212571D01*
X166644804Y-130188773D01*
X166641204Y-130164504D01*
X166640000Y-130140000D01*
X166640000Y-128940000D01*
X166641204Y-128915496D01*
X166644804Y-128891227D01*
X166650765Y-128867429D01*
X166659030Y-128844329D01*
X166669520Y-128822151D01*
X166682133Y-128801107D01*
X166696747Y-128781402D01*
X166713223Y-128763223D01*
X166731402Y-128746747D01*
X166751107Y-128732133D01*
X166772151Y-128719520D01*
X166794329Y-128709030D01*
X166817429Y-128700765D01*
X166841227Y-128694804D01*
X166865496Y-128691204D01*
X166890000Y-128690000D01*
X168390000Y-128690000D01*
X168414504Y-128691204D01*
X168414504Y-128691204D01*
G37*
D12*
G04 #@! TO.P,J11,1*
G04 #@! TO.N,Net-(J10-Pad1)*
X167640000Y-129540000D03*
G04 #@! TD*
D31*
G04 #@! TO.P,J14,3*
G04 #@! TO.N,5V*
X166370000Y-91480000D03*
G04 #@! TO.P,J14,2*
G04 #@! TO.N,GND*
X166370000Y-93980000D03*
D11*
G04 #@! TD*
G04 #@! TO.N,X-*
G04 #@! TO.C,J14*
G36*
X167119504Y-95631204D02*
X167143773Y-95634804D01*
X167167571Y-95640765D01*
X167190671Y-95649030D01*
X167212849Y-95659520D01*
X167233893Y-95672133D01*
X167253598Y-95686747D01*
X167271777Y-95703223D01*
X167288253Y-95721402D01*
X167302867Y-95741107D01*
X167315480Y-95762151D01*
X167325970Y-95784329D01*
X167334235Y-95807429D01*
X167340196Y-95831227D01*
X167343796Y-95855496D01*
X167345000Y-95880000D01*
X167345000Y-97080000D01*
X167343796Y-97104504D01*
X167340196Y-97128773D01*
X167334235Y-97152571D01*
X167325970Y-97175671D01*
X167315480Y-97197849D01*
X167302867Y-97218893D01*
X167288253Y-97238598D01*
X167271777Y-97256777D01*
X167253598Y-97273253D01*
X167233893Y-97287867D01*
X167212849Y-97300480D01*
X167190671Y-97310970D01*
X167167571Y-97319235D01*
X167143773Y-97325196D01*
X167119504Y-97328796D01*
X167095000Y-97330000D01*
X165645000Y-97330000D01*
X165620496Y-97328796D01*
X165596227Y-97325196D01*
X165572429Y-97319235D01*
X165549329Y-97310970D01*
X165527151Y-97300480D01*
X165506107Y-97287867D01*
X165486402Y-97273253D01*
X165468223Y-97256777D01*
X165451747Y-97238598D01*
X165437133Y-97218893D01*
X165424520Y-97197849D01*
X165414030Y-97175671D01*
X165405765Y-97152571D01*
X165399804Y-97128773D01*
X165396204Y-97104504D01*
X165395000Y-97080000D01*
X165395000Y-95880000D01*
X165396204Y-95855496D01*
X165399804Y-95831227D01*
X165405765Y-95807429D01*
X165414030Y-95784329D01*
X165424520Y-95762151D01*
X165437133Y-95741107D01*
X165451747Y-95721402D01*
X165468223Y-95703223D01*
X165486402Y-95686747D01*
X165506107Y-95672133D01*
X165527151Y-95659520D01*
X165549329Y-95649030D01*
X165572429Y-95640765D01*
X165596227Y-95634804D01*
X165620496Y-95631204D01*
X165645000Y-95630000D01*
X167095000Y-95630000D01*
X167119504Y-95631204D01*
X167119504Y-95631204D01*
G37*
D12*
G04 #@! TO.P,J14,1*
G04 #@! TO.N,X-*
X166370000Y-96480000D03*
G04 #@! TD*
D31*
G04 #@! TO.P,J15,3*
G04 #@! TO.N,5V*
X166370000Y-101640000D03*
G04 #@! TO.P,J15,2*
G04 #@! TO.N,GND*
X166370000Y-104140000D03*
D11*
G04 #@! TD*
G04 #@! TO.N,Y-*
G04 #@! TO.C,J15*
G36*
X167119504Y-105791204D02*
X167143773Y-105794804D01*
X167167571Y-105800765D01*
X167190671Y-105809030D01*
X167212849Y-105819520D01*
X167233893Y-105832133D01*
X167253598Y-105846747D01*
X167271777Y-105863223D01*
X167288253Y-105881402D01*
X167302867Y-105901107D01*
X167315480Y-105922151D01*
X167325970Y-105944329D01*
X167334235Y-105967429D01*
X167340196Y-105991227D01*
X167343796Y-106015496D01*
X167345000Y-106040000D01*
X167345000Y-107240000D01*
X167343796Y-107264504D01*
X167340196Y-107288773D01*
X167334235Y-107312571D01*
X167325970Y-107335671D01*
X167315480Y-107357849D01*
X167302867Y-107378893D01*
X167288253Y-107398598D01*
X167271777Y-107416777D01*
X167253598Y-107433253D01*
X167233893Y-107447867D01*
X167212849Y-107460480D01*
X167190671Y-107470970D01*
X167167571Y-107479235D01*
X167143773Y-107485196D01*
X167119504Y-107488796D01*
X167095000Y-107490000D01*
X165645000Y-107490000D01*
X165620496Y-107488796D01*
X165596227Y-107485196D01*
X165572429Y-107479235D01*
X165549329Y-107470970D01*
X165527151Y-107460480D01*
X165506107Y-107447867D01*
X165486402Y-107433253D01*
X165468223Y-107416777D01*
X165451747Y-107398598D01*
X165437133Y-107378893D01*
X165424520Y-107357849D01*
X165414030Y-107335671D01*
X165405765Y-107312571D01*
X165399804Y-107288773D01*
X165396204Y-107264504D01*
X165395000Y-107240000D01*
X165395000Y-106040000D01*
X165396204Y-106015496D01*
X165399804Y-105991227D01*
X165405765Y-105967429D01*
X165414030Y-105944329D01*
X165424520Y-105922151D01*
X165437133Y-105901107D01*
X165451747Y-105881402D01*
X165468223Y-105863223D01*
X165486402Y-105846747D01*
X165506107Y-105832133D01*
X165527151Y-105819520D01*
X165549329Y-105809030D01*
X165572429Y-105800765D01*
X165596227Y-105794804D01*
X165620496Y-105791204D01*
X165645000Y-105790000D01*
X167095000Y-105790000D01*
X167119504Y-105791204D01*
X167119504Y-105791204D01*
G37*
D12*
G04 #@! TO.P,J15,1*
G04 #@! TO.N,Y-*
X166370000Y-106640000D03*
G04 #@! TD*
D11*
G04 #@! TO.N,Z-*
G04 #@! TO.C,J16*
G36*
X167119504Y-115991204D02*
X167143773Y-115994804D01*
X167167571Y-116000765D01*
X167190671Y-116009030D01*
X167212849Y-116019520D01*
X167233893Y-116032133D01*
X167253598Y-116046747D01*
X167271777Y-116063223D01*
X167288253Y-116081402D01*
X167302867Y-116101107D01*
X167315480Y-116122151D01*
X167325970Y-116144329D01*
X167334235Y-116167429D01*
X167340196Y-116191227D01*
X167343796Y-116215496D01*
X167345000Y-116240000D01*
X167345000Y-117440000D01*
X167343796Y-117464504D01*
X167340196Y-117488773D01*
X167334235Y-117512571D01*
X167325970Y-117535671D01*
X167315480Y-117557849D01*
X167302867Y-117578893D01*
X167288253Y-117598598D01*
X167271777Y-117616777D01*
X167253598Y-117633253D01*
X167233893Y-117647867D01*
X167212849Y-117660480D01*
X167190671Y-117670970D01*
X167167571Y-117679235D01*
X167143773Y-117685196D01*
X167119504Y-117688796D01*
X167095000Y-117690000D01*
X165645000Y-117690000D01*
X165620496Y-117688796D01*
X165596227Y-117685196D01*
X165572429Y-117679235D01*
X165549329Y-117670970D01*
X165527151Y-117660480D01*
X165506107Y-117647867D01*
X165486402Y-117633253D01*
X165468223Y-117616777D01*
X165451747Y-117598598D01*
X165437133Y-117578893D01*
X165424520Y-117557849D01*
X165414030Y-117535671D01*
X165405765Y-117512571D01*
X165399804Y-117488773D01*
X165396204Y-117464504D01*
X165395000Y-117440000D01*
X165395000Y-116240000D01*
X165396204Y-116215496D01*
X165399804Y-116191227D01*
X165405765Y-116167429D01*
X165414030Y-116144329D01*
X165424520Y-116122151D01*
X165437133Y-116101107D01*
X165451747Y-116081402D01*
X165468223Y-116063223D01*
X165486402Y-116046747D01*
X165506107Y-116032133D01*
X165527151Y-116019520D01*
X165549329Y-116009030D01*
X165572429Y-116000765D01*
X165596227Y-115994804D01*
X165620496Y-115991204D01*
X165645000Y-115990000D01*
X167095000Y-115990000D01*
X167119504Y-115991204D01*
X167119504Y-115991204D01*
G37*
D12*
G04 #@! TD*
G04 #@! TO.P,J16,1*
G04 #@! TO.N,Z-*
X166370000Y-116840000D03*
D31*
G04 #@! TO.P,J16,2*
G04 #@! TO.N,GND*
X166370000Y-114340000D03*
G04 #@! TO.P,J16,3*
G04 #@! TO.N,5V*
X166370000Y-111840000D03*
G04 #@! TD*
G04 #@! TO.P,J19,3*
G04 #@! TO.N,5V*
X173990000Y-91520000D03*
G04 #@! TO.P,J19,2*
G04 #@! TO.N,GND*
X173990000Y-94020000D03*
D11*
G04 #@! TD*
G04 #@! TO.N,X+*
G04 #@! TO.C,J19*
G36*
X174739504Y-95671204D02*
X174763773Y-95674804D01*
X174787571Y-95680765D01*
X174810671Y-95689030D01*
X174832849Y-95699520D01*
X174853893Y-95712133D01*
X174873598Y-95726747D01*
X174891777Y-95743223D01*
X174908253Y-95761402D01*
X174922867Y-95781107D01*
X174935480Y-95802151D01*
X174945970Y-95824329D01*
X174954235Y-95847429D01*
X174960196Y-95871227D01*
X174963796Y-95895496D01*
X174965000Y-95920000D01*
X174965000Y-97120000D01*
X174963796Y-97144504D01*
X174960196Y-97168773D01*
X174954235Y-97192571D01*
X174945970Y-97215671D01*
X174935480Y-97237849D01*
X174922867Y-97258893D01*
X174908253Y-97278598D01*
X174891777Y-97296777D01*
X174873598Y-97313253D01*
X174853893Y-97327867D01*
X174832849Y-97340480D01*
X174810671Y-97350970D01*
X174787571Y-97359235D01*
X174763773Y-97365196D01*
X174739504Y-97368796D01*
X174715000Y-97370000D01*
X173265000Y-97370000D01*
X173240496Y-97368796D01*
X173216227Y-97365196D01*
X173192429Y-97359235D01*
X173169329Y-97350970D01*
X173147151Y-97340480D01*
X173126107Y-97327867D01*
X173106402Y-97313253D01*
X173088223Y-97296777D01*
X173071747Y-97278598D01*
X173057133Y-97258893D01*
X173044520Y-97237849D01*
X173034030Y-97215671D01*
X173025765Y-97192571D01*
X173019804Y-97168773D01*
X173016204Y-97144504D01*
X173015000Y-97120000D01*
X173015000Y-95920000D01*
X173016204Y-95895496D01*
X173019804Y-95871227D01*
X173025765Y-95847429D01*
X173034030Y-95824329D01*
X173044520Y-95802151D01*
X173057133Y-95781107D01*
X173071747Y-95761402D01*
X173088223Y-95743223D01*
X173106402Y-95726747D01*
X173126107Y-95712133D01*
X173147151Y-95699520D01*
X173169329Y-95689030D01*
X173192429Y-95680765D01*
X173216227Y-95674804D01*
X173240496Y-95671204D01*
X173265000Y-95670000D01*
X174715000Y-95670000D01*
X174739504Y-95671204D01*
X174739504Y-95671204D01*
G37*
D12*
G04 #@! TO.P,J19,1*
G04 #@! TO.N,X+*
X173990000Y-96520000D03*
G04 #@! TD*
D11*
G04 #@! TO.N,Y+*
G04 #@! TO.C,J20*
G36*
X174739504Y-105791204D02*
X174763773Y-105794804D01*
X174787571Y-105800765D01*
X174810671Y-105809030D01*
X174832849Y-105819520D01*
X174853893Y-105832133D01*
X174873598Y-105846747D01*
X174891777Y-105863223D01*
X174908253Y-105881402D01*
X174922867Y-105901107D01*
X174935480Y-105922151D01*
X174945970Y-105944329D01*
X174954235Y-105967429D01*
X174960196Y-105991227D01*
X174963796Y-106015496D01*
X174965000Y-106040000D01*
X174965000Y-107240000D01*
X174963796Y-107264504D01*
X174960196Y-107288773D01*
X174954235Y-107312571D01*
X174945970Y-107335671D01*
X174935480Y-107357849D01*
X174922867Y-107378893D01*
X174908253Y-107398598D01*
X174891777Y-107416777D01*
X174873598Y-107433253D01*
X174853893Y-107447867D01*
X174832849Y-107460480D01*
X174810671Y-107470970D01*
X174787571Y-107479235D01*
X174763773Y-107485196D01*
X174739504Y-107488796D01*
X174715000Y-107490000D01*
X173265000Y-107490000D01*
X173240496Y-107488796D01*
X173216227Y-107485196D01*
X173192429Y-107479235D01*
X173169329Y-107470970D01*
X173147151Y-107460480D01*
X173126107Y-107447867D01*
X173106402Y-107433253D01*
X173088223Y-107416777D01*
X173071747Y-107398598D01*
X173057133Y-107378893D01*
X173044520Y-107357849D01*
X173034030Y-107335671D01*
X173025765Y-107312571D01*
X173019804Y-107288773D01*
X173016204Y-107264504D01*
X173015000Y-107240000D01*
X173015000Y-106040000D01*
X173016204Y-106015496D01*
X173019804Y-105991227D01*
X173025765Y-105967429D01*
X173034030Y-105944329D01*
X173044520Y-105922151D01*
X173057133Y-105901107D01*
X173071747Y-105881402D01*
X173088223Y-105863223D01*
X173106402Y-105846747D01*
X173126107Y-105832133D01*
X173147151Y-105819520D01*
X173169329Y-105809030D01*
X173192429Y-105800765D01*
X173216227Y-105794804D01*
X173240496Y-105791204D01*
X173265000Y-105790000D01*
X174715000Y-105790000D01*
X174739504Y-105791204D01*
X174739504Y-105791204D01*
G37*
D12*
G04 #@! TD*
G04 #@! TO.P,J20,1*
G04 #@! TO.N,Y+*
X173990000Y-106640000D03*
D31*
G04 #@! TO.P,J20,2*
G04 #@! TO.N,GND*
X173990000Y-104140000D03*
G04 #@! TO.P,J20,3*
G04 #@! TO.N,5V*
X173990000Y-101640000D03*
G04 #@! TD*
D11*
G04 #@! TO.N,Z+*
G04 #@! TO.C,J21*
G36*
X174739504Y-115951204D02*
X174763773Y-115954804D01*
X174787571Y-115960765D01*
X174810671Y-115969030D01*
X174832849Y-115979520D01*
X174853893Y-115992133D01*
X174873598Y-116006747D01*
X174891777Y-116023223D01*
X174908253Y-116041402D01*
X174922867Y-116061107D01*
X174935480Y-116082151D01*
X174945970Y-116104329D01*
X174954235Y-116127429D01*
X174960196Y-116151227D01*
X174963796Y-116175496D01*
X174965000Y-116200000D01*
X174965000Y-117400000D01*
X174963796Y-117424504D01*
X174960196Y-117448773D01*
X174954235Y-117472571D01*
X174945970Y-117495671D01*
X174935480Y-117517849D01*
X174922867Y-117538893D01*
X174908253Y-117558598D01*
X174891777Y-117576777D01*
X174873598Y-117593253D01*
X174853893Y-117607867D01*
X174832849Y-117620480D01*
X174810671Y-117630970D01*
X174787571Y-117639235D01*
X174763773Y-117645196D01*
X174739504Y-117648796D01*
X174715000Y-117650000D01*
X173265000Y-117650000D01*
X173240496Y-117648796D01*
X173216227Y-117645196D01*
X173192429Y-117639235D01*
X173169329Y-117630970D01*
X173147151Y-117620480D01*
X173126107Y-117607867D01*
X173106402Y-117593253D01*
X173088223Y-117576777D01*
X173071747Y-117558598D01*
X173057133Y-117538893D01*
X173044520Y-117517849D01*
X173034030Y-117495671D01*
X173025765Y-117472571D01*
X173019804Y-117448773D01*
X173016204Y-117424504D01*
X173015000Y-117400000D01*
X173015000Y-116200000D01*
X173016204Y-116175496D01*
X173019804Y-116151227D01*
X173025765Y-116127429D01*
X173034030Y-116104329D01*
X173044520Y-116082151D01*
X173057133Y-116061107D01*
X173071747Y-116041402D01*
X173088223Y-116023223D01*
X173106402Y-116006747D01*
X173126107Y-115992133D01*
X173147151Y-115979520D01*
X173169329Y-115969030D01*
X173192429Y-115960765D01*
X173216227Y-115954804D01*
X173240496Y-115951204D01*
X173265000Y-115950000D01*
X174715000Y-115950000D01*
X174739504Y-115951204D01*
X174739504Y-115951204D01*
G37*
D12*
G04 #@! TD*
G04 #@! TO.P,J21,1*
G04 #@! TO.N,Z+*
X173990000Y-116800000D03*
D31*
G04 #@! TO.P,J21,2*
G04 #@! TO.N,GND*
X173990000Y-114300000D03*
G04 #@! TO.P,J21,3*
G04 #@! TO.N,5V*
X173990000Y-111800000D03*
G04 #@! TD*
D12*
G04 #@! TO.P,J44,1*
G04 #@! TO.N,3V3*
X193040000Y-142240000D03*
D14*
G04 #@! TO.P,J44,2*
G04 #@! TO.N,GND*
X193040000Y-139700000D03*
G04 #@! TO.P,J44,3*
G04 #@! TO.N,RX*
X193040000Y-137160000D03*
G04 #@! TO.P,J44,4*
G04 #@! TO.N,TX*
X193040000Y-134620000D03*
G04 #@! TD*
G04 #@! TO.P,J45,4*
G04 #@! TO.N,GND*
X193040000Y-101600000D03*
G04 #@! TO.P,J45,3*
G04 #@! TO.N,Net-(J45-Pad3)*
X193040000Y-104140000D03*
G04 #@! TO.P,J45,2*
G04 #@! TO.N,Net-(J45-Pad2)*
X193040000Y-106680000D03*
D12*
G04 #@! TO.P,J45,1*
G04 #@! TO.N,5V*
X193040000Y-109220000D03*
G04 #@! TD*
D28*
G04 #@! TO.P,J48,1*
G04 #@! TO.N,GND*
X119380000Y-149860000D03*
D14*
G04 #@! TO.P,J48,2*
G04 #@! TO.N,3V3*
X121920000Y-149860000D03*
G04 #@! TO.P,J48,3*
G04 #@! TO.N,SS1*
X124460000Y-149860000D03*
G04 #@! TO.P,J48,4*
G04 #@! TO.N,CLK*
X127000000Y-149860000D03*
G04 #@! TO.P,J48,5*
G04 #@! TO.N,MISO*
X129540000Y-149860000D03*
G04 #@! TO.P,J48,6*
G04 #@! TO.N,MOSI*
X132080000Y-149860000D03*
G04 #@! TD*
D11*
G04 #@! TO.N,SDIO_D0*
G04 #@! TO.C,J50*
G36*
X164454504Y-122216204D02*
X164478773Y-122219804D01*
X164502571Y-122225765D01*
X164525671Y-122234030D01*
X164547849Y-122244520D01*
X164568893Y-122257133D01*
X164588598Y-122271747D01*
X164606777Y-122288223D01*
X164623253Y-122306402D01*
X164637867Y-122326107D01*
X164650480Y-122347151D01*
X164660970Y-122369329D01*
X164669235Y-122392429D01*
X164675196Y-122416227D01*
X164678796Y-122440496D01*
X164680000Y-122465000D01*
X164680000Y-123915000D01*
X164678796Y-123939504D01*
X164675196Y-123963773D01*
X164669235Y-123987571D01*
X164660970Y-124010671D01*
X164650480Y-124032849D01*
X164637867Y-124053893D01*
X164623253Y-124073598D01*
X164606777Y-124091777D01*
X164588598Y-124108253D01*
X164568893Y-124122867D01*
X164547849Y-124135480D01*
X164525671Y-124145970D01*
X164502571Y-124154235D01*
X164478773Y-124160196D01*
X164454504Y-124163796D01*
X164430000Y-124165000D01*
X163230000Y-124165000D01*
X163205496Y-124163796D01*
X163181227Y-124160196D01*
X163157429Y-124154235D01*
X163134329Y-124145970D01*
X163112151Y-124135480D01*
X163091107Y-124122867D01*
X163071402Y-124108253D01*
X163053223Y-124091777D01*
X163036747Y-124073598D01*
X163022133Y-124053893D01*
X163009520Y-124032849D01*
X162999030Y-124010671D01*
X162990765Y-123987571D01*
X162984804Y-123963773D01*
X162981204Y-123939504D01*
X162980000Y-123915000D01*
X162980000Y-122465000D01*
X162981204Y-122440496D01*
X162984804Y-122416227D01*
X162990765Y-122392429D01*
X162999030Y-122369329D01*
X163009520Y-122347151D01*
X163022133Y-122326107D01*
X163036747Y-122306402D01*
X163053223Y-122288223D01*
X163071402Y-122271747D01*
X163091107Y-122257133D01*
X163112151Y-122244520D01*
X163134329Y-122234030D01*
X163157429Y-122225765D01*
X163181227Y-122219804D01*
X163205496Y-122216204D01*
X163230000Y-122215000D01*
X164430000Y-122215000D01*
X164454504Y-122216204D01*
X164454504Y-122216204D01*
G37*
D12*
G04 #@! TD*
G04 #@! TO.P,J50,1*
G04 #@! TO.N,SDIO_D0*
X163830000Y-123190000D03*
D26*
G04 #@! TO.P,J50,2*
G04 #@! TO.N,SDIO_DET*
X166330000Y-123190000D03*
G04 #@! TO.P,J50,3*
G04 #@! TO.N,SDIO_D1*
X168830000Y-123190000D03*
G04 #@! TO.P,J50,4*
G04 #@! TO.N,SDIO_CMD*
X171330000Y-123190000D03*
G04 #@! TO.P,J50,5*
G04 #@! TO.N,SDIO_SCK*
X173830000Y-123190000D03*
G04 #@! TO.P,J50,6*
G04 #@! TO.N,GND*
X176330000Y-123190000D03*
G04 #@! TO.P,J50,7*
G04 #@! TO.N,SDIO_D3*
X178830000Y-123190000D03*
G04 #@! TO.P,J50,8*
G04 #@! TO.N,3V3*
X181330000Y-123190000D03*
G04 #@! TO.P,J50,9*
G04 #@! TO.N,SDIO_D2*
X183830000Y-123190000D03*
G04 #@! TD*
D28*
G04 #@! TO.P,J56,1*
G04 #@! TO.N,12V*
X154940000Y-133350000D03*
D14*
G04 #@! TO.P,J56,2*
G04 #@! TO.N,Net-(J10-Pad1)*
X154940000Y-130810000D03*
G04 #@! TO.P,J56,3*
G04 #@! TO.N,5V*
X154940000Y-128270000D03*
G04 #@! TD*
D32*
G04 #@! TO.P,J5,1*
G04 #@! TO.N,GND*
X132080000Y-105820000D03*
G04 #@! TO.P,J5,2*
G04 #@! TO.N,12V*
X132080000Y-110820000D03*
G04 #@! TD*
G04 #@! TO.P,J6,2*
G04 #@! TO.N,Net-(J6-Pad2)*
X132080000Y-120820000D03*
G04 #@! TO.P,J6,1*
G04 #@! TO.N,12V*
X132080000Y-115820000D03*
G04 #@! TD*
D33*
G04 #@! TO.N,GND*
X138250000Y-112750000D03*
X137250000Y-112750000D03*
X142250000Y-112750000D03*
X139250000Y-112750000D03*
X144250000Y-112750000D03*
X140250000Y-112750000D03*
X145250000Y-112750000D03*
X141250000Y-112750000D03*
X143250000Y-112750000D03*
X138250000Y-105750000D03*
X137250000Y-105750000D03*
X142250000Y-105750000D03*
X139250000Y-105750000D03*
X144250000Y-105750000D03*
X140250000Y-105750000D03*
X145250000Y-105750000D03*
X141250000Y-105750000D03*
X143250000Y-105750000D03*
X137250000Y-106750000D03*
X138250000Y-106750000D03*
X142250000Y-106750000D03*
X139250000Y-106750000D03*
X144250000Y-106750000D03*
X140250000Y-106750000D03*
X143250000Y-106750000D03*
X141250000Y-106750000D03*
X145250000Y-106750000D03*
X140250000Y-107750000D03*
X143250000Y-107750000D03*
X142250000Y-107750000D03*
X139250000Y-107750000D03*
X145250000Y-107750000D03*
X138250000Y-107750000D03*
X144250000Y-107750000D03*
X141250000Y-107750000D03*
X137250000Y-107750000D03*
X143250000Y-108750000D03*
X144250000Y-108750000D03*
X138250000Y-108750000D03*
X140250000Y-108750000D03*
X137250000Y-108750000D03*
X142250000Y-108750000D03*
X145250000Y-108750000D03*
X139250000Y-108750000D03*
X141250000Y-108750000D03*
X137250000Y-109750000D03*
X144250000Y-109750000D03*
X143250000Y-109750000D03*
X141250000Y-109750000D03*
X139250000Y-109750000D03*
X138250000Y-109750000D03*
X140250000Y-109750000D03*
X142250000Y-109750000D03*
X145250000Y-109750000D03*
X143250000Y-110750000D03*
X145250000Y-110750000D03*
X144250000Y-110750000D03*
X137250000Y-110750000D03*
X141250000Y-110750000D03*
X142250000Y-110750000D03*
X139250000Y-110750000D03*
X138250000Y-110750000D03*
X140250000Y-110750000D03*
X140250000Y-111750000D03*
X143250000Y-111750000D03*
X144250000Y-111750000D03*
X137250000Y-111750000D03*
X141250000Y-111750000D03*
X139250000Y-111750000D03*
X138250000Y-111750000D03*
X142250000Y-111750000D03*
X145250000Y-111750000D03*
X145542000Y-117228000D03*
X137250000Y-104750000D03*
X138250000Y-104750000D03*
X139250000Y-104750000D03*
X140250000Y-104750000D03*
X141250000Y-104750000D03*
X142250000Y-104750000D03*
X143250000Y-104750000D03*
X144250000Y-104750000D03*
X145250000Y-104750000D03*
X145250000Y-103750000D03*
X144250000Y-103750000D03*
X143250000Y-103750000D03*
X142250000Y-103750000D03*
X141250000Y-103750000D03*
X140250000Y-103750000D03*
X139250000Y-103750000D03*
X138250000Y-103750000D03*
X137250000Y-103750000D03*
X146558000Y-133975000D03*
X146558000Y-132975000D03*
X145542000Y-132975000D03*
X145542000Y-133975000D03*
X146558000Y-124755000D03*
X145542000Y-124755000D03*
X145542000Y-125755000D03*
X146558000Y-125755000D03*
X145542000Y-115228000D03*
X146558000Y-115228000D03*
X146558000Y-116228000D03*
X146558000Y-117228000D03*
X145542000Y-116228000D03*
G04 #@! TO.N,12V*
X116840000Y-137795000D03*
X116840000Y-139065000D03*
X116840000Y-140335000D03*
X116840000Y-141605000D03*
X116840000Y-142875000D03*
G04 #@! TO.N,5V*
X152400000Y-146050000D03*
G04 #@! TO.N,3V3*
X171450000Y-121285000D03*
X181305000Y-111760000D03*
X142240000Y-88265000D03*
X181305000Y-106680000D03*
X142240004Y-84455000D03*
G04 #@! TO.N,E1_En*
X185420000Y-83185000D03*
G04 #@! TO.N,Net-(J7-Pad1)*
X137250000Y-125000000D03*
X138250000Y-125000000D03*
X139250000Y-125000000D03*
X140250000Y-125000000D03*
X141250000Y-125000000D03*
X142250000Y-125000000D03*
X138250000Y-126000000D03*
X141250000Y-126000000D03*
X137250000Y-126000000D03*
X142250000Y-126000000D03*
X139250000Y-126000000D03*
X140250000Y-126000000D03*
X142250000Y-127000000D03*
X137250000Y-127000000D03*
X138250000Y-127000000D03*
X141250000Y-127000000D03*
X140250000Y-127000000D03*
X139250000Y-127000000D03*
X142250000Y-128000000D03*
X140250000Y-128000000D03*
X138250000Y-128000000D03*
X139250000Y-128000000D03*
X137250000Y-128000000D03*
X141250000Y-128000000D03*
X138250000Y-129000000D03*
X142250000Y-129000000D03*
X140250000Y-129000000D03*
X141250000Y-129000000D03*
X139250000Y-129000000D03*
X137250000Y-129000000D03*
G04 #@! TO.N,Net-(J8-Pad1)*
X138250000Y-136250000D03*
X142250000Y-136250000D03*
X140250000Y-136250000D03*
X138250000Y-133250000D03*
X141250000Y-136250000D03*
X141250000Y-133250000D03*
X139250000Y-136250000D03*
X137250000Y-136250000D03*
X137250000Y-133250000D03*
X137250000Y-137250000D03*
X142250000Y-137250000D03*
X140250000Y-137250000D03*
X138250000Y-137250000D03*
X141250000Y-137250000D03*
X139250000Y-137250000D03*
X142250000Y-133250000D03*
X142250000Y-134250000D03*
X137250000Y-134250000D03*
X138250000Y-134250000D03*
X141250000Y-134250000D03*
X140250000Y-134250000D03*
X139250000Y-134250000D03*
X142250000Y-135250000D03*
X140250000Y-135250000D03*
X138250000Y-135250000D03*
X139250000Y-135250000D03*
X137250000Y-135250000D03*
X141250000Y-135250000D03*
X139250000Y-133250000D03*
X140250000Y-133250000D03*
G04 #@! TO.N,Y_En*
X139065000Y-83185000D03*
G04 #@! TO.N,Z_En*
X154305000Y-83185000D03*
G04 #@! TO.N,Net-(J6-Pad2)*
X142250000Y-116500000D03*
X141250000Y-116500000D03*
X140250000Y-116500000D03*
X139250000Y-116500000D03*
X138250000Y-116500000D03*
X137250000Y-116500000D03*
X140250000Y-117500000D03*
X137250000Y-117500000D03*
X138250000Y-117500000D03*
X141250000Y-117500000D03*
X139250000Y-117500000D03*
X142250000Y-117500000D03*
X138250000Y-118500000D03*
X137250000Y-118500000D03*
X139250000Y-118500000D03*
X142250000Y-118500000D03*
X140250000Y-118500000D03*
X141250000Y-118500000D03*
X137250000Y-119500000D03*
X140250000Y-119500000D03*
X139250000Y-119500000D03*
X141250000Y-119500000D03*
X138250000Y-119500000D03*
X142250000Y-119500000D03*
X139250000Y-120500000D03*
X141250000Y-120500000D03*
X138250000Y-120500000D03*
X142250000Y-120500000D03*
X137250000Y-120500000D03*
X140250000Y-120500000D03*
G04 #@! TD*
D34*
G04 #@! TO.N,Net-(J9-Pad2)*
X181930000Y-132990000D02*
X182880000Y-132040000D01*
X181930000Y-135795000D02*
X181930000Y-132990000D01*
G04 #@! TO.N,Net-(J10-Pad2)*
X174310000Y-132990000D02*
X175260000Y-132040000D01*
X174310000Y-135795000D02*
X174310000Y-132990000D01*
G04 #@! TO.N,Net-(J11-Pad2)*
X166690000Y-132990000D02*
X167640000Y-132040000D01*
X166690000Y-135795000D02*
X166690000Y-132990000D01*
D35*
G04 #@! TO.N,Net-(Q1-Pad1)*
X147730000Y-120800000D02*
X148910000Y-119620000D01*
X146000000Y-120800000D02*
X147730000Y-120800000D01*
G04 #@! TO.N,Net-(Q2-Pad1)*
X147730000Y-129315000D02*
X148910000Y-128135000D01*
X146000000Y-129315000D02*
X147730000Y-129315000D01*
G04 #@! TO.N,Net-(Q3-Pad1)*
X147730000Y-137535000D02*
X148910000Y-136355000D01*
X146000000Y-137535000D02*
X147730000Y-137535000D01*
D36*
G04 #@! TO.N,GND*
X126035000Y-70755000D02*
X125730000Y-70450000D01*
X126035000Y-73660000D02*
X126035000Y-70755000D01*
X141275000Y-70755000D02*
X140970000Y-70450000D01*
X141275000Y-73660000D02*
X141275000Y-70755000D01*
X156515000Y-70755000D02*
X156210000Y-70450000D01*
X156515000Y-73660000D02*
X156515000Y-70755000D01*
X171755000Y-70755000D02*
X171450000Y-70450000D01*
X171755000Y-73660000D02*
X171755000Y-70755000D01*
X186995000Y-70755000D02*
X186690000Y-70450000D01*
X186995000Y-73660000D02*
X186995000Y-70755000D01*
D37*
X191770000Y-66040000D02*
X193040000Y-66040000D01*
X191008000Y-66802000D02*
X191770000Y-66040000D01*
X193040000Y-81280000D02*
X191770000Y-81280000D01*
X191770000Y-81280000D02*
X191008000Y-80518000D01*
X130810000Y-81280000D02*
X130048000Y-80518000D01*
X130048000Y-66802000D02*
X130810000Y-66040000D01*
X132080000Y-81280000D02*
X130810000Y-81280000D01*
X130810000Y-66040000D02*
X132080000Y-66040000D01*
X130048000Y-80518000D02*
X130048000Y-66802000D01*
X175768000Y-80518000D02*
X175768000Y-66802000D01*
X176530000Y-66040000D02*
X177800000Y-66040000D01*
X177800000Y-81280000D02*
X176530000Y-81280000D01*
X175768000Y-66802000D02*
X176530000Y-66040000D01*
X176530000Y-81280000D02*
X175768000Y-80518000D01*
X161290000Y-66040000D02*
X162560000Y-66040000D01*
X160528000Y-80518000D02*
X160528000Y-66802000D01*
X162560000Y-81280000D02*
X161290000Y-81280000D01*
X160528000Y-66802000D02*
X161290000Y-66040000D01*
X161290000Y-81280000D02*
X160528000Y-80518000D01*
X146050000Y-66040000D02*
X147320000Y-66040000D01*
X145288000Y-80518000D02*
X145288000Y-66802000D01*
X145288000Y-66802000D02*
X146050000Y-66040000D01*
X146050000Y-81280000D02*
X145288000Y-80518000D01*
X147320000Y-81280000D02*
X146050000Y-81280000D01*
X191008000Y-80518000D02*
X191008000Y-66802000D01*
X190881000Y-70485000D02*
X186817000Y-70485000D01*
X175514000Y-70450000D02*
X171450000Y-70450000D01*
X160274000Y-70485000D02*
X156210000Y-70485000D01*
X145161000Y-70485000D02*
X141097000Y-70485000D01*
X129794000Y-70485000D02*
X125730000Y-70485000D01*
D34*
X150555000Y-108320000D02*
X141405000Y-108320000D01*
X150555000Y-104920000D02*
X144805000Y-104920000D01*
D35*
X150810000Y-133125000D02*
X150810000Y-134155000D01*
X150660000Y-132975000D02*
X150810000Y-133125000D01*
X148910000Y-134155000D02*
X148910000Y-133125000D01*
X150810000Y-124905000D02*
X150810000Y-125935000D01*
X150660000Y-124755000D02*
X150810000Y-124905000D01*
X148910000Y-125935000D02*
X148910000Y-124905000D01*
X146050000Y-124755000D02*
X146050000Y-124755000D01*
X146050000Y-132975000D02*
X146050000Y-132975000D01*
X150810000Y-116378000D02*
X150810000Y-117408000D01*
X150660000Y-116228000D02*
X150810000Y-116378000D01*
X148910000Y-117408000D02*
X148910000Y-116378000D01*
X146050000Y-116228000D02*
X146050000Y-116228000D01*
D34*
X167640000Y-137745000D02*
X170815000Y-134570000D01*
X182880000Y-137795000D02*
X182880000Y-137745000D01*
X185420000Y-128270000D02*
X184150000Y-127000000D01*
X170815000Y-134570000D02*
X170815000Y-127000000D01*
X175260000Y-137795000D02*
X175260000Y-137745000D01*
X160020000Y-137795000D02*
X160020000Y-137745000D01*
X164200000Y-133565000D02*
X164200000Y-127000000D01*
X167640000Y-137795000D02*
X167640000Y-137745000D01*
X170815000Y-127000000D02*
X164200000Y-127000000D01*
X178435000Y-134570000D02*
X178435000Y-127000000D01*
X184150000Y-127000000D02*
X178435000Y-127000000D01*
X185420000Y-135205000D02*
X185420000Y-128270000D01*
X175260000Y-137745000D02*
X178435000Y-134570000D01*
X160020000Y-137745000D02*
X164200000Y-133565000D01*
X182880000Y-137745000D02*
X185420000Y-135205000D01*
X178435000Y-127000000D02*
X170815000Y-127000000D01*
D35*
X146000000Y-132975000D02*
X146050000Y-132975000D01*
X146000000Y-124755000D02*
X146050000Y-124755000D01*
X159817000Y-140767000D02*
X159817000Y-139065000D01*
X162560000Y-143510000D02*
X159817000Y-140767000D01*
X182880000Y-138735000D02*
X182677000Y-138938000D01*
X182880000Y-137795000D02*
X182880000Y-138735000D01*
X175260000Y-138862000D02*
X175057000Y-139065000D01*
X175260000Y-137795000D02*
X175260000Y-138862000D01*
X167640000Y-138862000D02*
X167437000Y-139065000D01*
X167640000Y-137795000D02*
X167640000Y-138862000D01*
X160020000Y-138862000D02*
X159817000Y-139065000D01*
X160020000Y-137795000D02*
X160020000Y-138862000D01*
X135890000Y-153670000D02*
X134620000Y-152400000D01*
X134620000Y-152400000D02*
X120650000Y-152400000D01*
X120650000Y-152400000D02*
X119380000Y-151130000D01*
X119380000Y-151130000D02*
X119380000Y-147320000D01*
X146050000Y-116228000D02*
X150660000Y-116228000D01*
X146050000Y-116228000D02*
X146050000Y-116228000D01*
X146050000Y-124755000D02*
X150660000Y-124755000D01*
X146050000Y-132975000D02*
X150660000Y-132975000D01*
D34*
X161290000Y-127000000D02*
X157977767Y-123687767D01*
X164200000Y-127000000D02*
X161290000Y-127000000D01*
X158684874Y-122980660D02*
X157977767Y-123687767D01*
X158684874Y-115504874D02*
X158684874Y-122980660D01*
X146038000Y-116240000D02*
X146000000Y-116240000D01*
X146773126Y-115504874D02*
X146038000Y-116240000D01*
X158684874Y-115504874D02*
X146773126Y-115504874D01*
D37*
X133985000Y-90170000D02*
X133985000Y-93980000D01*
X156210000Y-93980000D02*
X156210000Y-96520000D01*
X156940000Y-90170000D02*
X156940000Y-93250000D01*
X156940000Y-93250000D02*
X156210000Y-93980000D01*
X133350000Y-96520000D02*
X133350000Y-93980000D01*
X141700000Y-90170000D02*
X141700000Y-93980000D01*
X149225000Y-90170000D02*
X149225000Y-93980000D01*
X140970000Y-96520000D02*
X140970000Y-93980000D01*
X148590000Y-96520000D02*
X148590000Y-93980000D01*
X156210000Y-93980000D02*
X121920000Y-93980000D01*
X167845000Y-114300000D02*
X166370000Y-114300000D01*
X168910000Y-113235000D02*
X167845000Y-114300000D01*
X167845000Y-93980000D02*
X168910000Y-95045000D01*
X166370000Y-93980000D02*
X167845000Y-93980000D01*
D35*
X166370000Y-104140000D02*
X168910000Y-104140000D01*
D37*
X168910000Y-95045000D02*
X168910000Y-104140000D01*
X168910000Y-104140000D02*
X168910000Y-113235000D01*
D35*
X182880000Y-139141000D02*
X182677000Y-138938000D01*
D37*
X159889748Y-114300000D02*
X158684874Y-115504874D01*
X166370000Y-114300000D02*
X159889748Y-114300000D01*
D35*
X182677000Y-138938000D02*
X182677000Y-139903000D01*
X177800000Y-144780000D02*
X177800000Y-151130000D01*
X175260000Y-151130000D02*
X177800000Y-151130000D01*
X177800000Y-151130000D02*
X180340000Y-151130000D01*
X176530000Y-123190000D02*
X176530000Y-126960000D01*
X135890000Y-153670000D02*
X139700000Y-153670000D01*
X184150000Y-90965000D02*
X184150000Y-85565000D01*
X185420000Y-85565000D02*
X180815000Y-85565000D01*
X177800000Y-82550000D02*
X177800000Y-81280000D01*
X180815000Y-85565000D02*
X177800000Y-82550000D01*
D37*
X193040000Y-101600000D02*
X193040000Y-81280000D01*
D35*
X185420000Y-96520000D02*
X187960000Y-93980000D01*
D37*
X187960000Y-93980000D02*
X193040000Y-93980000D01*
D38*
X146050000Y-116228000D02*
X146050000Y-114300000D01*
X146050000Y-114300000D02*
X137570000Y-105820000D01*
D35*
X181610000Y-140970000D02*
X182677000Y-139903000D01*
X181610000Y-142240000D02*
X181610000Y-140970000D01*
X180340000Y-142240000D02*
X177800000Y-144780000D01*
X181610000Y-142240000D02*
X180340000Y-142240000D01*
D37*
X160020000Y-90170000D02*
X156940000Y-90170000D01*
X166370000Y-93980000D02*
X163830000Y-93980000D01*
X163830000Y-93980000D02*
X160020000Y-90170000D01*
D38*
X137584619Y-105820000D02*
X132080000Y-105820000D01*
D34*
G04 #@! TO.N,Net-(D1-Pad1)*
X156131068Y-110020000D02*
X159745534Y-106405534D01*
X150555000Y-110020000D02*
X156131068Y-110020000D01*
D37*
G04 #@! TO.N,12V*
X125730000Y-60960000D02*
X125730000Y-63500000D01*
X193040000Y-63500000D02*
X190500000Y-60960000D01*
X140970000Y-63500000D02*
X140970000Y-60960000D01*
X156210000Y-63500000D02*
X156210000Y-60960000D01*
X171450000Y-63500000D02*
X171450000Y-60960000D01*
X186690000Y-63500000D02*
X186690000Y-60960000D01*
X190500000Y-60960000D02*
X186690000Y-60960000D01*
X132080000Y-63500000D02*
X132080000Y-60960000D01*
X147320000Y-63500000D02*
X147320000Y-60960000D01*
X156210000Y-60960000D02*
X147320000Y-60960000D01*
X147320000Y-60960000D02*
X140970000Y-60960000D01*
X162560000Y-63500000D02*
X162560000Y-60960000D01*
X171450000Y-60960000D02*
X162560000Y-60960000D01*
X162560000Y-60960000D02*
X156210000Y-60960000D01*
X177800000Y-63500000D02*
X177800000Y-60960000D01*
X177800000Y-60960000D02*
X171450000Y-60960000D01*
X182880000Y-60960000D02*
X177800000Y-60960000D01*
X186690000Y-60960000D02*
X182880000Y-60960000D01*
D38*
X132080000Y-110820000D02*
X132080000Y-115820000D01*
D37*
X116840000Y-137795000D02*
X116840000Y-137795000D01*
X118110000Y-60960000D02*
X116840000Y-62230000D01*
X125730000Y-60960000D02*
X118110000Y-60960000D01*
X116840000Y-62230000D02*
X116840000Y-142875000D01*
X132080000Y-60960000D02*
X125730000Y-60960000D01*
X140970000Y-60960000D02*
X132080000Y-60960000D01*
D34*
X154900000Y-111720000D02*
X156210000Y-113030000D01*
X150555000Y-111720000D02*
X154900000Y-111720000D01*
D35*
G04 #@! TO.N,5V*
X195580000Y-149860000D02*
X195580000Y-111760000D01*
X192405000Y-153035000D02*
X195580000Y-149860000D01*
X184150000Y-151130000D02*
X186055000Y-153035000D01*
X186055000Y-153035000D02*
X192405000Y-153035000D01*
X193040000Y-109220000D02*
X195580000Y-111760000D01*
X154805000Y-128135000D02*
X154940000Y-128270000D01*
D37*
X166370000Y-89830000D02*
X166370000Y-91480000D01*
X162900000Y-86360000D02*
X166370000Y-89830000D01*
X121920000Y-86360000D02*
X162900000Y-86360000D01*
D35*
X150810000Y-128135000D02*
X152400000Y-128135000D01*
X152400000Y-128135000D02*
X154805000Y-128135000D01*
X152400000Y-120015000D02*
X152400000Y-128135000D01*
X150810000Y-119620000D02*
X152005000Y-119620000D01*
X152005000Y-119620000D02*
X152400000Y-120015000D01*
X152400000Y-146050000D02*
X152400000Y-136355000D01*
X152400000Y-136355000D02*
X152400000Y-128135000D01*
X150810000Y-136355000D02*
X152400000Y-136355000D01*
D34*
X154365000Y-106620000D02*
X150555000Y-106620000D01*
X156210000Y-102870000D02*
X156210000Y-104775000D01*
X156210000Y-104775000D02*
X154365000Y-106620000D01*
D36*
G04 #@! TO.N,Net-(J12-Pad2)*
X124460000Y-73660000D02*
X124460000Y-76200000D01*
D35*
G04 #@! TO.N,3V3*
X137160000Y-89382500D02*
X137160000Y-88265000D01*
X144780000Y-89382500D02*
X144780000Y-88265000D01*
X129540000Y-88900000D02*
X121920000Y-88900000D01*
X130175000Y-88265000D02*
X129540000Y-88900000D01*
X151765000Y-88265000D02*
X142240000Y-88265000D01*
X152400000Y-89382500D02*
X152400000Y-88900000D01*
X152400000Y-88900000D02*
X151765000Y-88265000D01*
X193040000Y-142875000D02*
X193040000Y-142240000D01*
X191770000Y-144145000D02*
X193040000Y-142875000D01*
X185420000Y-144145000D02*
X191770000Y-144145000D01*
X184150000Y-146050000D02*
X184150000Y-145415000D01*
X184150000Y-145415000D02*
X185420000Y-144145000D01*
X181490000Y-123190000D02*
X181490000Y-121800000D01*
X181490000Y-121800000D02*
X180975000Y-121285000D01*
X180975000Y-121285000D02*
X171450000Y-121285000D01*
X142240000Y-88265000D02*
X130175000Y-88265000D01*
X189297919Y-86360000D02*
X190500000Y-86360000D01*
X187960000Y-86360000D02*
X189297919Y-86360000D01*
X185420000Y-88900000D02*
X187960000Y-86360000D01*
X185420000Y-93980000D02*
X185420000Y-88900000D01*
X181305000Y-111760000D02*
X181305000Y-106680000D01*
X187960000Y-86360000D02*
X187960000Y-76200000D01*
X127000000Y-76200000D02*
X127000000Y-83820000D01*
X142805689Y-84455000D02*
X142240004Y-84455000D01*
X142240000Y-76200000D02*
X142240000Y-84454996D01*
X156845000Y-84455000D02*
X142805689Y-84455000D01*
X127635000Y-84455000D02*
X141674319Y-84455000D01*
X141674319Y-84455000D02*
X142240004Y-84455000D01*
X127000000Y-83820000D02*
X127635000Y-84455000D01*
X157480000Y-83820000D02*
X156845000Y-84455000D01*
X157480000Y-76200000D02*
X157480000Y-83820000D01*
X142240000Y-84454996D02*
X142240004Y-84455000D01*
D36*
G04 #@! TO.N,Net-(J18-Pad2)*
X139700000Y-73660000D02*
X139700000Y-76200000D01*
G04 #@! TO.N,Net-(J24-Pad2)*
X154940000Y-73660000D02*
X154940000Y-76200000D01*
G04 #@! TO.N,Net-(J28-Pad2)*
X170180000Y-73660000D02*
X170180000Y-76200000D01*
G04 #@! TO.N,Net-(J31-Pad2)*
X185420000Y-73660000D02*
X185420000Y-76200000D01*
D35*
G04 #@! TO.N,Net-(Q4-Pad1)*
X179070000Y-137490000D02*
X180675000Y-137490000D01*
X180980000Y-138816000D02*
X181102000Y-138938000D01*
X180980000Y-137795000D02*
X180980000Y-138816000D01*
X180675000Y-137490000D02*
X180980000Y-137795000D01*
G04 #@! TO.N,Net-(Q5-Pad1)*
X173055000Y-137490000D02*
X173360000Y-137795000D01*
X173360000Y-138943000D02*
X173482000Y-139065000D01*
X173360000Y-137795000D02*
X173360000Y-138943000D01*
X171450000Y-137490000D02*
X173055000Y-137490000D01*
G04 #@! TO.N,Net-(Q6-Pad1)*
X165740000Y-138943000D02*
X165862000Y-139065000D01*
X165740000Y-137795000D02*
X165740000Y-138943000D01*
X163830000Y-137490000D02*
X165435000Y-137490000D01*
X165435000Y-137490000D02*
X165740000Y-137795000D01*
D34*
G04 #@! TO.N,Net-(J43-Pad2)*
X159070000Y-135795000D02*
X159070000Y-132990000D01*
X159070000Y-132990000D02*
X160020000Y-132040000D01*
D35*
G04 #@! TO.N,Net-(Q7-Pad1)*
X158120000Y-138943000D02*
X158242000Y-139065000D01*
X158120000Y-137795000D02*
X158120000Y-138943000D01*
X157815000Y-137490000D02*
X158120000Y-137795000D01*
X156210000Y-137490000D02*
X157815000Y-137490000D01*
G04 #@! TO.N,T0*
X131197500Y-90957500D02*
X131985000Y-90170000D01*
X129540000Y-90957500D02*
X131197500Y-90957500D01*
G04 #@! TO.N,T1*
X137160000Y-90957500D02*
X138912500Y-90957500D01*
X138912500Y-90957500D02*
X139700000Y-90170000D01*
G04 #@! TO.N,TB*
X146437500Y-90957500D02*
X147225000Y-90170000D01*
X144780000Y-90957500D02*
X146437500Y-90957500D01*
G04 #@! TO.N,TC*
X154152500Y-90957500D02*
X154940000Y-90170000D01*
X152400000Y-90957500D02*
X154152500Y-90957500D01*
D36*
G04 #@! TO.N,SDSS*
X146119999Y-152469999D02*
X146119999Y-149155001D01*
X147320000Y-153670000D02*
X146119999Y-152469999D01*
X147320000Y-147955000D02*
X147320000Y-146050000D01*
X146119999Y-149155001D02*
X147320000Y-147955000D01*
G04 #@! TO.N,CLK*
X147320000Y-151130000D02*
X147320000Y-149860000D01*
X147320000Y-149860000D02*
X149860000Y-147320000D01*
X149860000Y-147320000D02*
X149860000Y-146050000D01*
X121920000Y-142240000D02*
X127000000Y-147320000D01*
X127000000Y-147320000D02*
X127000000Y-149860000D01*
G04 #@! TO.N,MISO*
X124460000Y-142240000D02*
X129540000Y-147320000D01*
X129540000Y-149860000D02*
X129540000Y-147320000D01*
X125095000Y-141605000D02*
X124460000Y-142240000D01*
X149225000Y-141605000D02*
X125095000Y-141605000D01*
X149860000Y-143510000D02*
X149860000Y-142240000D01*
X149860000Y-142240000D02*
X149225000Y-141605000D01*
G04 #@! TO.N,Fan2*
X169545000Y-139065000D02*
X171450000Y-139065000D01*
X166426399Y-142183601D02*
X169545000Y-139065000D01*
X167640000Y-153670000D02*
X166426399Y-152456399D01*
X166426399Y-152456399D02*
X166426399Y-142183601D01*
G04 #@! TO.N,Fan1*
X165100000Y-153670000D02*
X163830000Y-152400000D01*
X163830000Y-152400000D02*
X163830000Y-139065000D01*
G04 #@! TO.N,Fan0*
X162560000Y-153670000D02*
X161290000Y-152400000D01*
X156210000Y-139602500D02*
X156210000Y-139065000D01*
X156210000Y-151636002D02*
X156210000Y-139602500D01*
X156973998Y-152400000D02*
X156210000Y-151636002D01*
X161290000Y-152400000D02*
X156973998Y-152400000D01*
G04 #@! TO.N,ENC*
X173583599Y-146913599D02*
X172720000Y-146050000D01*
X173990000Y-147320000D02*
X173583599Y-146913599D01*
X173990000Y-152400000D02*
X173990000Y-147320000D01*
X172720000Y-153670000D02*
X173990000Y-152400000D01*
G04 #@! TO.N,LCDRS*
X171380001Y-147250001D02*
X171043599Y-146913599D01*
X171380001Y-152469999D02*
X171380001Y-147250001D01*
X171043599Y-146913599D02*
X170180000Y-146050000D01*
X170180000Y-153670000D02*
X171380001Y-152469999D01*
G04 #@! TO.N,Fan3*
X177419000Y-139065000D02*
X179070000Y-139065000D01*
X174879000Y-141605000D02*
X177419000Y-139065000D01*
X169545000Y-141605000D02*
X174879000Y-141605000D01*
X168910000Y-142240000D02*
X169545000Y-141605000D01*
X167640000Y-151130000D02*
X168910000Y-149860000D01*
X168910000Y-149860000D02*
X168910000Y-142240000D01*
G04 #@! TO.N,HotBed*
X128270000Y-111760000D02*
X124460000Y-111760000D01*
X149860000Y-121920000D02*
X148590000Y-123190000D01*
X149860000Y-117420000D02*
X149860000Y-121920000D01*
X148590000Y-123190000D02*
X130175000Y-123190000D01*
X130175000Y-123190000D02*
X128905000Y-121920000D01*
X128905000Y-121920000D02*
X128905000Y-112395000D01*
X128905000Y-112395000D02*
X128270000Y-111760000D01*
G04 #@! TO.N,Heater0*
X149860000Y-128670002D02*
X147085002Y-131445000D01*
X149860000Y-125935000D02*
X149860000Y-128670002D01*
X147085002Y-131445000D02*
X144780000Y-131445000D01*
X144780000Y-131445000D02*
X144145000Y-132080000D01*
X144145000Y-132080000D02*
X144145000Y-139065000D01*
X144145000Y-139065000D02*
X143510000Y-139700000D01*
X143510000Y-139700000D02*
X130810000Y-139700000D01*
X130810000Y-139700000D02*
X127635000Y-136525000D01*
X127635000Y-136525000D02*
X127635000Y-114300000D01*
X127635000Y-114300000D02*
X126365000Y-113030000D01*
X126365000Y-113030000D02*
X123190000Y-113030000D01*
X123190000Y-113030000D02*
X121920000Y-114300000D01*
G04 #@! TO.N,Heater1*
X125730000Y-114300000D02*
X124460000Y-114300000D01*
X149860000Y-136890002D02*
X146034002Y-140716000D01*
X149860000Y-134155000D02*
X149860000Y-136890002D01*
X146034002Y-140716000D02*
X129921000Y-140716000D01*
X129921000Y-140716000D02*
X126365000Y-137160000D01*
X126365000Y-137160000D02*
X126365000Y-114935000D01*
X126365000Y-114935000D02*
X125730000Y-114300000D01*
G04 #@! TO.N,E1_En*
X185420000Y-83185000D02*
X183515000Y-81280000D01*
X183515000Y-64770000D02*
X183515000Y-81280000D01*
X182245000Y-63500000D02*
X183515000Y-64770000D01*
X182245000Y-63500000D02*
X180340000Y-63500000D01*
G04 #@! TO.N,X-*
X125730000Y-101600000D02*
X124460000Y-101600000D01*
X128270000Y-99060000D02*
X125730000Y-101600000D01*
X161290000Y-99060000D02*
X128270000Y-99060000D01*
X166370000Y-96480000D02*
X163870000Y-96480000D01*
X163870000Y-96480000D02*
X161290000Y-99060000D01*
G04 #@! TO.N,Y-*
X165060000Y-106640000D02*
X166370000Y-106640000D01*
X158750000Y-100330000D02*
X165060000Y-106640000D01*
X129540000Y-100330000D02*
X158750000Y-100330000D01*
X127000000Y-102870000D02*
X129540000Y-100330000D01*
X123190000Y-115570000D02*
X120650000Y-115570000D01*
X124460000Y-116840000D02*
X123190000Y-115570000D01*
X120650000Y-115570000D02*
X119380000Y-114300000D01*
X119380000Y-114300000D02*
X119380000Y-104140000D01*
X119380000Y-104140000D02*
X120650000Y-102870000D01*
X120650000Y-102870000D02*
X127000000Y-102870000D01*
G04 #@! TO.N,Z-*
X166370000Y-118745000D02*
X166370000Y-116840000D01*
X167640000Y-120015000D02*
X166370000Y-118745000D01*
X189299999Y-133280001D02*
X189299999Y-124023997D01*
X187960000Y-134620000D02*
X189299999Y-133280001D01*
X189299999Y-124023997D02*
X188396003Y-123120001D01*
X188396003Y-123120001D02*
X186620001Y-123120001D01*
X186620001Y-123120001D02*
X183515000Y-120015000D01*
X183515000Y-120015000D02*
X167640000Y-120015000D01*
G04 #@! TO.N,X+*
X186690000Y-120650000D02*
X189230000Y-120650000D01*
X173990000Y-96480000D02*
X171490000Y-96480000D01*
X170815000Y-97155000D02*
X170815000Y-117475000D01*
X170815000Y-117475000D02*
X172085000Y-118745000D01*
X171490000Y-96480000D02*
X170815000Y-97155000D01*
X172085000Y-118745000D02*
X184785000Y-118745000D01*
X189230000Y-120650000D02*
X190500000Y-119380000D01*
X184785000Y-118745000D02*
X186690000Y-120650000D01*
G04 #@! TO.N,Y+*
X175220000Y-106640000D02*
X173990000Y-106640000D01*
X176530000Y-107950000D02*
X175220000Y-106640000D01*
X176530000Y-114300000D02*
X176530000Y-107950000D01*
X177800000Y-115570000D02*
X176530000Y-114300000D01*
X191770000Y-115570000D02*
X177800000Y-115570000D01*
X193675000Y-117475000D02*
X191770000Y-115570000D01*
X189299999Y-135820001D02*
X191204999Y-135820001D01*
X191204999Y-135820001D02*
X191770000Y-135255000D01*
X191770000Y-135255000D02*
X191770000Y-133350000D01*
X191770000Y-133350000D02*
X193675000Y-131445000D01*
X187960000Y-137160000D02*
X189299999Y-135820001D01*
X193675000Y-131445000D02*
X193675000Y-117475000D01*
G04 #@! TO.N,Z+*
X174030000Y-116840000D02*
X173990000Y-116800000D01*
X185420000Y-116840000D02*
X174030000Y-116840000D01*
X191770000Y-132080000D02*
X192405000Y-131445000D01*
X190500000Y-132080000D02*
X191770000Y-132080000D01*
X192405000Y-131445000D02*
X192405000Y-118745000D01*
X192405000Y-118745000D02*
X191770000Y-118110000D01*
X191770000Y-118110000D02*
X186690000Y-118110000D01*
X186690000Y-118110000D02*
X185420000Y-116840000D01*
G04 #@! TO.N,SDA*
X181610000Y-97790000D02*
X181610000Y-90965000D01*
X185420000Y-101600000D02*
X181610000Y-97790000D01*
G04 #@! TO.N,SCL*
X182880000Y-96520000D02*
X182880000Y-90965000D01*
X185420000Y-99060000D02*
X182880000Y-96520000D01*
D38*
G04 #@! TO.N,Net-(J7-Pad1)*
X137534619Y-125845000D02*
X132030000Y-125845000D01*
G04 #@! TO.N,Net-(J8-Pad1)*
X135134619Y-132845000D02*
X132330000Y-132845000D01*
X137834619Y-135545000D02*
X135134619Y-132845000D01*
D36*
G04 #@! TO.N,SS1*
X123190000Y-138430000D02*
X124460000Y-137160000D01*
X123120001Y-148520001D02*
X121215001Y-148520001D01*
X120015000Y-138430000D02*
X123190000Y-138430000D01*
X119380000Y-139065000D02*
X120015000Y-138430000D01*
X124460000Y-149860000D02*
X123120001Y-148520001D01*
X121215001Y-148520001D02*
X120580001Y-147885001D01*
X120580001Y-147885001D02*
X120580001Y-145345001D01*
X120580001Y-145345001D02*
X119380000Y-144145000D01*
X119380000Y-144145000D02*
X119380000Y-139065000D01*
G04 #@! TO.N,SS2*
X120015000Y-142875000D02*
X124460000Y-147320000D01*
X120015000Y-140335000D02*
X120015000Y-142875000D01*
X121920000Y-139700000D02*
X120650000Y-139700000D01*
X120650000Y-139700000D02*
X120015000Y-140335000D01*
G04 #@! TO.N,Y_En*
X134620000Y-63500000D02*
X135890000Y-63500000D01*
X135890000Y-63500000D02*
X137160000Y-64770000D01*
X137160000Y-64770000D02*
X137160000Y-81280000D01*
X139065000Y-83185000D02*
X137160000Y-81280000D01*
G04 #@! TO.N,Z_En*
X149860000Y-63500000D02*
X151130000Y-63500000D01*
X151130000Y-63500000D02*
X152400000Y-64770000D01*
X154305000Y-83185000D02*
X152400000Y-81280000D01*
X152400000Y-64770000D02*
X152400000Y-81280000D01*
G04 #@! TO.N,E0_Dir*
X189160001Y-112960001D02*
X190500000Y-114300000D01*
X186620001Y-112960001D02*
X189160001Y-112960001D01*
X185420000Y-111760000D02*
X186620001Y-112960001D01*
X185420000Y-108585000D02*
X185420000Y-111760000D01*
X165100000Y-82550000D02*
X170815000Y-88265000D01*
X165100000Y-81280000D02*
X165100000Y-82550000D01*
X170815000Y-88265000D02*
X173990000Y-88265000D01*
X173990000Y-88265000D02*
X176530000Y-90805000D01*
X176530000Y-90805000D02*
X176530000Y-99695000D01*
X176530000Y-99695000D02*
X185420000Y-108585000D01*
G04 #@! TO.N,E0_Step*
X167005000Y-79375000D02*
X166370000Y-78740000D01*
X186055000Y-106680000D02*
X177800000Y-98425000D01*
X187960000Y-106680000D02*
X186055000Y-106680000D01*
X166370000Y-78740000D02*
X165100000Y-78740000D01*
X177800000Y-98425000D02*
X177800000Y-90170000D01*
X174625000Y-86995000D02*
X171450000Y-86995000D01*
X167005000Y-82550000D02*
X167005000Y-79375000D01*
X177800000Y-90170000D02*
X174625000Y-86995000D01*
X171450000Y-86995000D02*
X167005000Y-82550000D01*
G04 #@! TO.N,E0_En*
X167640000Y-63500000D02*
X165100000Y-63500000D01*
X168275000Y-81915000D02*
X168275000Y-64135000D01*
X172085000Y-85725000D02*
X168275000Y-81915000D01*
X175260000Y-85725000D02*
X172085000Y-85725000D01*
X168275000Y-64135000D02*
X167640000Y-63500000D01*
X186690000Y-100330000D02*
X186690000Y-102235000D01*
X187960000Y-99060000D02*
X186690000Y-100330000D01*
X186690000Y-102235000D02*
X186055000Y-102870000D01*
X179070000Y-89535000D02*
X175260000Y-85725000D01*
X186055000Y-102870000D02*
X184150000Y-102870000D01*
X184150000Y-102870000D02*
X179070000Y-97790000D01*
X179070000Y-97790000D02*
X179070000Y-89535000D01*
D38*
G04 #@! TO.N,Net-(J6-Pad2)*
X135330000Y-120820000D02*
X132080000Y-120820000D01*
X138030000Y-118120000D02*
X135330000Y-120820000D01*
D36*
G04 #@! TO.N,PD11*
X189650001Y-138009999D02*
X190500000Y-137160000D01*
X189299999Y-138360001D02*
X189650001Y-138009999D01*
X186759999Y-138360001D02*
X189299999Y-138360001D01*
X184150000Y-142240000D02*
X184150000Y-140970000D01*
X184150000Y-140970000D02*
X186759999Y-138360001D01*
G04 #@! TO.N,MOSI*
X132080000Y-148590000D02*
X144780000Y-148590000D01*
X144780000Y-146050000D02*
X144780000Y-151130000D01*
X132080000Y-147320000D02*
X132080000Y-149860000D01*
G04 #@! TD*
D39*
G04 #@! TO.N,GND*
G36*
X146973000Y-117571417D02*
X145027000Y-117571417D01*
X145027000Y-114925417D01*
X146973000Y-114925417D01*
X146973000Y-117571417D01*
X146973000Y-117571417D01*
G37*
X146973000Y-117571417D02*
X145027000Y-117571417D01*
X145027000Y-114925417D01*
X146973000Y-114925417D01*
X146973000Y-117571417D01*
G36*
X146973000Y-126073000D02*
X145027000Y-126073000D01*
X145027000Y-124227000D01*
X146973000Y-124227000D01*
X146973000Y-126073000D01*
X146973000Y-126073000D01*
G37*
X146973000Y-126073000D02*
X145027000Y-126073000D01*
X145027000Y-124227000D01*
X146973000Y-124227000D01*
X146973000Y-126073000D01*
G36*
X146973000Y-134273000D02*
X145027000Y-134273000D01*
X145027000Y-132427000D01*
X146973000Y-132427000D01*
X146973000Y-134273000D01*
X146973000Y-134273000D01*
G37*
X146973000Y-134273000D02*
X145027000Y-134273000D01*
X145027000Y-132427000D01*
X146973000Y-132427000D01*
X146973000Y-134273000D01*
G04 #@! TD*
M02*
