G04 #@! TF.GenerationSoftware,KiCad,Pcbnew,(5.0.2)-1*
G04 #@! TF.CreationDate,2019-03-19T13:08:56+03:00*
G04 #@! TF.ProjectId,STM32F407VET6,53544d33-3246-4343-9037-564554362e6b,rev?*
G04 #@! TF.SameCoordinates,Original*
G04 #@! TF.FileFunction,Legend,Bot*
G04 #@! TF.FilePolarity,Positive*
%FSLAX46Y46*%
G04 Gerber Fmt 4.6, Leading zero omitted, Abs format (unit mm)*
G04 Created by KiCad (PCBNEW (5.0.2)-1) date 19/03/2019 13:08:56*
%MOMM*%
%LPD*%
G01*
G04 APERTURE LIST*
%ADD10C,0.150000*%
%ADD11C,0.200000*%
%ADD12C,0.120000*%
G04 APERTURE END LIST*
D10*
X172695714Y-86902857D02*
X172695714Y-85702857D01*
X172181428Y-86902857D02*
X172181428Y-86274285D01*
X172238571Y-86160000D01*
X172352857Y-86102857D01*
X172524285Y-86102857D01*
X172638571Y-86160000D01*
X172695714Y-86217142D01*
X171781428Y-86102857D02*
X171324285Y-86102857D01*
X171610000Y-85702857D02*
X171610000Y-86731428D01*
X171552857Y-86845714D01*
X171438571Y-86902857D01*
X171324285Y-86902857D01*
X171095714Y-86102857D02*
X170638571Y-86102857D01*
X170924285Y-85702857D02*
X170924285Y-86731428D01*
X170867142Y-86845714D01*
X170752857Y-86902857D01*
X170638571Y-86902857D01*
X170238571Y-86102857D02*
X170238571Y-87302857D01*
X170238571Y-86160000D02*
X170124285Y-86102857D01*
X169895714Y-86102857D01*
X169781428Y-86160000D01*
X169724285Y-86217142D01*
X169667142Y-86331428D01*
X169667142Y-86674285D01*
X169724285Y-86788571D01*
X169781428Y-86845714D01*
X169895714Y-86902857D01*
X170124285Y-86902857D01*
X170238571Y-86845714D01*
X169210000Y-86845714D02*
X169095714Y-86902857D01*
X168867142Y-86902857D01*
X168752857Y-86845714D01*
X168695714Y-86731428D01*
X168695714Y-86674285D01*
X168752857Y-86560000D01*
X168867142Y-86502857D01*
X169038571Y-86502857D01*
X169152857Y-86445714D01*
X169210000Y-86331428D01*
X169210000Y-86274285D01*
X169152857Y-86160000D01*
X169038571Y-86102857D01*
X168867142Y-86102857D01*
X168752857Y-86160000D01*
X168181428Y-86788571D02*
X168124285Y-86845714D01*
X168181428Y-86902857D01*
X168238571Y-86845714D01*
X168181428Y-86788571D01*
X168181428Y-86902857D01*
X168181428Y-86160000D02*
X168124285Y-86217142D01*
X168181428Y-86274285D01*
X168238571Y-86217142D01*
X168181428Y-86160000D01*
X168181428Y-86274285D01*
X166752857Y-85645714D02*
X167781428Y-87188571D01*
X165495714Y-85645714D02*
X166524285Y-87188571D01*
X164581428Y-86102857D02*
X164581428Y-87074285D01*
X164638571Y-87188571D01*
X164695714Y-87245714D01*
X164810000Y-87302857D01*
X164981428Y-87302857D01*
X165095714Y-87245714D01*
X164581428Y-86845714D02*
X164695714Y-86902857D01*
X164924285Y-86902857D01*
X165038571Y-86845714D01*
X165095714Y-86788571D01*
X165152857Y-86674285D01*
X165152857Y-86331428D01*
X165095714Y-86217142D01*
X165038571Y-86160000D01*
X164924285Y-86102857D01*
X164695714Y-86102857D01*
X164581428Y-86160000D01*
X164010000Y-86902857D02*
X164010000Y-86102857D01*
X164010000Y-85702857D02*
X164067142Y-85760000D01*
X164010000Y-85817142D01*
X163952857Y-85760000D01*
X164010000Y-85702857D01*
X164010000Y-85817142D01*
X163610000Y-86102857D02*
X163152857Y-86102857D01*
X163438571Y-85702857D02*
X163438571Y-86731428D01*
X163381428Y-86845714D01*
X163267142Y-86902857D01*
X163152857Y-86902857D01*
X162752857Y-86902857D02*
X162752857Y-85702857D01*
X162238571Y-86902857D02*
X162238571Y-86274285D01*
X162295714Y-86160000D01*
X162410000Y-86102857D01*
X162581428Y-86102857D01*
X162695714Y-86160000D01*
X162752857Y-86217142D01*
X161152857Y-86102857D02*
X161152857Y-86902857D01*
X161667142Y-86102857D02*
X161667142Y-86731428D01*
X161610000Y-86845714D01*
X161495714Y-86902857D01*
X161324285Y-86902857D01*
X161210000Y-86845714D01*
X161152857Y-86788571D01*
X160581428Y-86902857D02*
X160581428Y-85702857D01*
X160581428Y-86160000D02*
X160467142Y-86102857D01*
X160238571Y-86102857D01*
X160124285Y-86160000D01*
X160067142Y-86217142D01*
X160010000Y-86331428D01*
X160010000Y-86674285D01*
X160067142Y-86788571D01*
X160124285Y-86845714D01*
X160238571Y-86902857D01*
X160467142Y-86902857D01*
X160581428Y-86845714D01*
X159495714Y-86788571D02*
X159438571Y-86845714D01*
X159495714Y-86902857D01*
X159552857Y-86845714D01*
X159495714Y-86788571D01*
X159495714Y-86902857D01*
X158410000Y-86845714D02*
X158524285Y-86902857D01*
X158752857Y-86902857D01*
X158867142Y-86845714D01*
X158924285Y-86788571D01*
X158981428Y-86674285D01*
X158981428Y-86331428D01*
X158924285Y-86217142D01*
X158867142Y-86160000D01*
X158752857Y-86102857D01*
X158524285Y-86102857D01*
X158410000Y-86160000D01*
X157724285Y-86902857D02*
X157838571Y-86845714D01*
X157895714Y-86788571D01*
X157952857Y-86674285D01*
X157952857Y-86331428D01*
X157895714Y-86217142D01*
X157838571Y-86160000D01*
X157724285Y-86102857D01*
X157552857Y-86102857D01*
X157438571Y-86160000D01*
X157381428Y-86217142D01*
X157324285Y-86331428D01*
X157324285Y-86674285D01*
X157381428Y-86788571D01*
X157438571Y-86845714D01*
X157552857Y-86902857D01*
X157724285Y-86902857D01*
X156810000Y-86902857D02*
X156810000Y-86102857D01*
X156810000Y-86217142D02*
X156752857Y-86160000D01*
X156638571Y-86102857D01*
X156467142Y-86102857D01*
X156352857Y-86160000D01*
X156295714Y-86274285D01*
X156295714Y-86902857D01*
X156295714Y-86274285D02*
X156238571Y-86160000D01*
X156124285Y-86102857D01*
X155952857Y-86102857D01*
X155838571Y-86160000D01*
X155781428Y-86274285D01*
X155781428Y-86902857D01*
X154352857Y-85645714D02*
X155381428Y-87188571D01*
X153952857Y-86102857D02*
X153952857Y-87131428D01*
X154010000Y-87245714D01*
X154124285Y-87302857D01*
X154181428Y-87302857D01*
X153952857Y-85702857D02*
X154010000Y-85760000D01*
X153952857Y-85817142D01*
X153895714Y-85760000D01*
X153952857Y-85702857D01*
X153952857Y-85817142D01*
X153381428Y-86902857D02*
X153381428Y-86102857D01*
X153381428Y-86217142D02*
X153324285Y-86160000D01*
X153210000Y-86102857D01*
X153038571Y-86102857D01*
X152924285Y-86160000D01*
X152867142Y-86274285D01*
X152867142Y-86902857D01*
X152867142Y-86274285D02*
X152810000Y-86160000D01*
X152695714Y-86102857D01*
X152524285Y-86102857D01*
X152410000Y-86160000D01*
X152352857Y-86274285D01*
X152352857Y-86902857D01*
X151895714Y-86102857D02*
X151267142Y-86102857D01*
X151895714Y-86902857D01*
X151267142Y-86902857D01*
X150238571Y-85702857D02*
X150810000Y-85702857D01*
X150867142Y-86274285D01*
X150810000Y-86217142D01*
X150695714Y-86160000D01*
X150410000Y-86160000D01*
X150295714Y-86217142D01*
X150238571Y-86274285D01*
X150181428Y-86388571D01*
X150181428Y-86674285D01*
X150238571Y-86788571D01*
X150295714Y-86845714D01*
X150410000Y-86902857D01*
X150695714Y-86902857D01*
X150810000Y-86845714D01*
X150867142Y-86788571D01*
X149724285Y-85817142D02*
X149667142Y-85760000D01*
X149552857Y-85702857D01*
X149267142Y-85702857D01*
X149152857Y-85760000D01*
X149095714Y-85817142D01*
X149038571Y-85931428D01*
X149038571Y-86045714D01*
X149095714Y-86217142D01*
X149781428Y-86902857D01*
X149038571Y-86902857D01*
X147667142Y-85645714D02*
X148695714Y-87188571D01*
X147267142Y-86902857D02*
X147267142Y-85702857D01*
X146752857Y-86902857D02*
X146752857Y-86274285D01*
X146810000Y-86160000D01*
X146924285Y-86102857D01*
X147095714Y-86102857D01*
X147210000Y-86160000D01*
X147267142Y-86217142D01*
X145667142Y-86902857D02*
X145667142Y-86274285D01*
X145724285Y-86160000D01*
X145838571Y-86102857D01*
X146067142Y-86102857D01*
X146181428Y-86160000D01*
X145667142Y-86845714D02*
X145781428Y-86902857D01*
X146067142Y-86902857D01*
X146181428Y-86845714D01*
X146238571Y-86731428D01*
X146238571Y-86617142D01*
X146181428Y-86502857D01*
X146067142Y-86445714D01*
X145781428Y-86445714D01*
X145667142Y-86388571D01*
X145095714Y-86902857D02*
X145095714Y-86102857D01*
X145095714Y-86331428D02*
X145038571Y-86217142D01*
X144981428Y-86160000D01*
X144867142Y-86102857D01*
X144752857Y-86102857D01*
X143838571Y-86902857D02*
X143838571Y-85702857D01*
X143838571Y-86845714D02*
X143952857Y-86902857D01*
X144181428Y-86902857D01*
X144295714Y-86845714D01*
X144352857Y-86788571D01*
X144410000Y-86674285D01*
X144410000Y-86331428D01*
X144352857Y-86217142D01*
X144295714Y-86160000D01*
X144181428Y-86102857D01*
X143952857Y-86102857D01*
X143838571Y-86160000D01*
X143381428Y-86102857D02*
X143152857Y-86902857D01*
X142924285Y-86331428D01*
X142695714Y-86902857D01*
X142467142Y-86102857D01*
X141495714Y-86902857D02*
X141495714Y-86274285D01*
X141552857Y-86160000D01*
X141667142Y-86102857D01*
X141895714Y-86102857D01*
X142010000Y-86160000D01*
X141495714Y-86845714D02*
X141610000Y-86902857D01*
X141895714Y-86902857D01*
X142010000Y-86845714D01*
X142067142Y-86731428D01*
X142067142Y-86617142D01*
X142010000Y-86502857D01*
X141895714Y-86445714D01*
X141610000Y-86445714D01*
X141495714Y-86388571D01*
X140924285Y-86902857D02*
X140924285Y-86102857D01*
X140924285Y-86331428D02*
X140867142Y-86217142D01*
X140810000Y-86160000D01*
X140695714Y-86102857D01*
X140581428Y-86102857D01*
X139724285Y-86845714D02*
X139838571Y-86902857D01*
X140067142Y-86902857D01*
X140181428Y-86845714D01*
X140238571Y-86731428D01*
X140238571Y-86274285D01*
X140181428Y-86160000D01*
X140067142Y-86102857D01*
X139838571Y-86102857D01*
X139724285Y-86160000D01*
X139667142Y-86274285D01*
X139667142Y-86388571D01*
X140238571Y-86502857D01*
X158470476Y-139261904D02*
X157975238Y-139261904D01*
X158241904Y-139566666D01*
X158127619Y-139566666D01*
X158051428Y-139604761D01*
X158013333Y-139642857D01*
X157975238Y-139719047D01*
X157975238Y-139909523D01*
X158013333Y-139985714D01*
X158051428Y-140023809D01*
X158127619Y-140061904D01*
X158356190Y-140061904D01*
X158432380Y-140023809D01*
X158470476Y-139985714D01*
X157746666Y-139261904D02*
X157480000Y-140061904D01*
X157213333Y-139261904D01*
X157022857Y-139261904D02*
X156527619Y-139261904D01*
X156794285Y-139566666D01*
X156680000Y-139566666D01*
X156603809Y-139604761D01*
X156565714Y-139642857D01*
X156527619Y-139719047D01*
X156527619Y-139909523D01*
X156565714Y-139985714D01*
X156603809Y-140023809D01*
X156680000Y-140061904D01*
X156908571Y-140061904D01*
X156984761Y-140023809D01*
X157022857Y-139985714D01*
X157632380Y-145611904D02*
X158013333Y-145611904D01*
X158051428Y-145992857D01*
X158013333Y-145954761D01*
X157937142Y-145916666D01*
X157746666Y-145916666D01*
X157670476Y-145954761D01*
X157632380Y-145992857D01*
X157594285Y-146069047D01*
X157594285Y-146259523D01*
X157632380Y-146335714D01*
X157670476Y-146373809D01*
X157746666Y-146411904D01*
X157937142Y-146411904D01*
X158013333Y-146373809D01*
X158051428Y-146335714D01*
X157365714Y-145611904D02*
X157099047Y-146411904D01*
X156832380Y-145611904D01*
X162121904Y-107797619D02*
X162121904Y-107416666D01*
X162502857Y-107378571D01*
X162464761Y-107416666D01*
X162426666Y-107492857D01*
X162426666Y-107683333D01*
X162464761Y-107759523D01*
X162502857Y-107797619D01*
X162579047Y-107835714D01*
X162769523Y-107835714D01*
X162845714Y-107797619D01*
X162883809Y-107759523D01*
X162921904Y-107683333D01*
X162921904Y-107492857D01*
X162883809Y-107416666D01*
X162845714Y-107378571D01*
X162121904Y-108064285D02*
X162921904Y-108330952D01*
X162121904Y-108597619D01*
D11*
X152146000Y-108331000D02*
X151892000Y-108331000D01*
X152781000Y-108331000D02*
X153035000Y-108331000D01*
X152781000Y-107696000D02*
X152781000Y-108966000D01*
X152781000Y-108331000D02*
X152146000Y-107696000D01*
X152146000Y-108966000D02*
X152781000Y-108331000D01*
X152146000Y-107696000D02*
X152146000Y-108966000D01*
D10*
X127831904Y-119773809D02*
X128631904Y-120040476D01*
X127831904Y-120307142D01*
X128631904Y-120573809D02*
X127831904Y-120573809D01*
X128631904Y-120954761D02*
X127831904Y-120954761D01*
X128631904Y-121411904D01*
X127831904Y-121411904D01*
X145650000Y-120135714D02*
X145611904Y-120059523D01*
X145611904Y-119945238D01*
X145650000Y-119830952D01*
X145726190Y-119754761D01*
X145802380Y-119716666D01*
X145954761Y-119678571D01*
X146069047Y-119678571D01*
X146221428Y-119716666D01*
X146297619Y-119754761D01*
X146373809Y-119830952D01*
X146411904Y-119945238D01*
X146411904Y-120021428D01*
X146373809Y-120135714D01*
X146335714Y-120173809D01*
X146069047Y-120173809D01*
X146069047Y-120021428D01*
X145878571Y-120516666D02*
X146411904Y-120516666D01*
X145954761Y-120516666D02*
X145916666Y-120554761D01*
X145878571Y-120630952D01*
X145878571Y-120745238D01*
X145916666Y-120821428D01*
X145992857Y-120859523D01*
X146411904Y-120859523D01*
X146411904Y-121583333D02*
X145611904Y-121583333D01*
X146373809Y-121583333D02*
X146411904Y-121507142D01*
X146411904Y-121354761D01*
X146373809Y-121278571D01*
X146335714Y-121240476D01*
X146259523Y-121202380D01*
X146030952Y-121202380D01*
X145954761Y-121240476D01*
X145916666Y-121278571D01*
X145878571Y-121354761D01*
X145878571Y-121507142D01*
X145916666Y-121583333D01*
X156724285Y-98660000D02*
X156800476Y-98621904D01*
X156914761Y-98621904D01*
X157029047Y-98660000D01*
X157105238Y-98736190D01*
X157143333Y-98812380D01*
X157181428Y-98964761D01*
X157181428Y-99079047D01*
X157143333Y-99231428D01*
X157105238Y-99307619D01*
X157029047Y-99383809D01*
X156914761Y-99421904D01*
X156838571Y-99421904D01*
X156724285Y-99383809D01*
X156686190Y-99345714D01*
X156686190Y-99079047D01*
X156838571Y-99079047D01*
X156343333Y-98888571D02*
X156343333Y-99421904D01*
X156343333Y-98964761D02*
X156305238Y-98926666D01*
X156229047Y-98888571D01*
X156114761Y-98888571D01*
X156038571Y-98926666D01*
X156000476Y-99002857D01*
X156000476Y-99421904D01*
X155276666Y-99421904D02*
X155276666Y-98621904D01*
X155276666Y-99383809D02*
X155352857Y-99421904D01*
X155505238Y-99421904D01*
X155581428Y-99383809D01*
X155619523Y-99345714D01*
X155657619Y-99269523D01*
X155657619Y-99040952D01*
X155619523Y-98964761D01*
X155581428Y-98926666D01*
X155505238Y-98888571D01*
X155352857Y-98888571D01*
X155276666Y-98926666D01*
X149104285Y-98660000D02*
X149180476Y-98621904D01*
X149294761Y-98621904D01*
X149409047Y-98660000D01*
X149485238Y-98736190D01*
X149523333Y-98812380D01*
X149561428Y-98964761D01*
X149561428Y-99079047D01*
X149523333Y-99231428D01*
X149485238Y-99307619D01*
X149409047Y-99383809D01*
X149294761Y-99421904D01*
X149218571Y-99421904D01*
X149104285Y-99383809D01*
X149066190Y-99345714D01*
X149066190Y-99079047D01*
X149218571Y-99079047D01*
X148723333Y-98888571D02*
X148723333Y-99421904D01*
X148723333Y-98964761D02*
X148685238Y-98926666D01*
X148609047Y-98888571D01*
X148494761Y-98888571D01*
X148418571Y-98926666D01*
X148380476Y-99002857D01*
X148380476Y-99421904D01*
X147656666Y-99421904D02*
X147656666Y-98621904D01*
X147656666Y-99383809D02*
X147732857Y-99421904D01*
X147885238Y-99421904D01*
X147961428Y-99383809D01*
X147999523Y-99345714D01*
X148037619Y-99269523D01*
X148037619Y-99040952D01*
X147999523Y-98964761D01*
X147961428Y-98926666D01*
X147885238Y-98888571D01*
X147732857Y-98888571D01*
X147656666Y-98926666D01*
X141484285Y-98660000D02*
X141560476Y-98621904D01*
X141674761Y-98621904D01*
X141789047Y-98660000D01*
X141865238Y-98736190D01*
X141903333Y-98812380D01*
X141941428Y-98964761D01*
X141941428Y-99079047D01*
X141903333Y-99231428D01*
X141865238Y-99307619D01*
X141789047Y-99383809D01*
X141674761Y-99421904D01*
X141598571Y-99421904D01*
X141484285Y-99383809D01*
X141446190Y-99345714D01*
X141446190Y-99079047D01*
X141598571Y-99079047D01*
X141103333Y-98888571D02*
X141103333Y-99421904D01*
X141103333Y-98964761D02*
X141065238Y-98926666D01*
X140989047Y-98888571D01*
X140874761Y-98888571D01*
X140798571Y-98926666D01*
X140760476Y-99002857D01*
X140760476Y-99421904D01*
X140036666Y-99421904D02*
X140036666Y-98621904D01*
X140036666Y-99383809D02*
X140112857Y-99421904D01*
X140265238Y-99421904D01*
X140341428Y-99383809D01*
X140379523Y-99345714D01*
X140417619Y-99269523D01*
X140417619Y-99040952D01*
X140379523Y-98964761D01*
X140341428Y-98926666D01*
X140265238Y-98888571D01*
X140112857Y-98888571D01*
X140036666Y-98926666D01*
X133864285Y-98660000D02*
X133940476Y-98621904D01*
X134054761Y-98621904D01*
X134169047Y-98660000D01*
X134245238Y-98736190D01*
X134283333Y-98812380D01*
X134321428Y-98964761D01*
X134321428Y-99079047D01*
X134283333Y-99231428D01*
X134245238Y-99307619D01*
X134169047Y-99383809D01*
X134054761Y-99421904D01*
X133978571Y-99421904D01*
X133864285Y-99383809D01*
X133826190Y-99345714D01*
X133826190Y-99079047D01*
X133978571Y-99079047D01*
X133483333Y-98888571D02*
X133483333Y-99421904D01*
X133483333Y-98964761D02*
X133445238Y-98926666D01*
X133369047Y-98888571D01*
X133254761Y-98888571D01*
X133178571Y-98926666D01*
X133140476Y-99002857D01*
X133140476Y-99421904D01*
X132416666Y-99421904D02*
X132416666Y-98621904D01*
X132416666Y-99383809D02*
X132492857Y-99421904D01*
X132645238Y-99421904D01*
X132721428Y-99383809D01*
X132759523Y-99345714D01*
X132797619Y-99269523D01*
X132797619Y-99040952D01*
X132759523Y-98964761D01*
X132721428Y-98926666D01*
X132645238Y-98888571D01*
X132492857Y-98888571D01*
X132416666Y-98926666D01*
X154298571Y-98621904D02*
X153841428Y-98621904D01*
X154070000Y-99421904D02*
X154070000Y-98621904D01*
X153117619Y-99345714D02*
X153155714Y-99383809D01*
X153270000Y-99421904D01*
X153346190Y-99421904D01*
X153460476Y-99383809D01*
X153536666Y-99307619D01*
X153574761Y-99231428D01*
X153612857Y-99079047D01*
X153612857Y-98964761D01*
X153574761Y-98812380D01*
X153536666Y-98736190D01*
X153460476Y-98660000D01*
X153346190Y-98621904D01*
X153270000Y-98621904D01*
X153155714Y-98660000D01*
X153117619Y-98698095D01*
X146678571Y-98621904D02*
X146221428Y-98621904D01*
X146450000Y-99421904D02*
X146450000Y-98621904D01*
X145688095Y-99002857D02*
X145573809Y-99040952D01*
X145535714Y-99079047D01*
X145497619Y-99155238D01*
X145497619Y-99269523D01*
X145535714Y-99345714D01*
X145573809Y-99383809D01*
X145650000Y-99421904D01*
X145954761Y-99421904D01*
X145954761Y-98621904D01*
X145688095Y-98621904D01*
X145611904Y-98660000D01*
X145573809Y-98698095D01*
X145535714Y-98774285D01*
X145535714Y-98850476D01*
X145573809Y-98926666D01*
X145611904Y-98964761D01*
X145688095Y-99002857D01*
X145954761Y-99002857D01*
X139039523Y-98621904D02*
X138582380Y-98621904D01*
X138810952Y-99421904D02*
X138810952Y-98621904D01*
X137896666Y-99421904D02*
X138353809Y-99421904D01*
X138125238Y-99421904D02*
X138125238Y-98621904D01*
X138201428Y-98736190D01*
X138277619Y-98812380D01*
X138353809Y-98850476D01*
X131419523Y-98621904D02*
X130962380Y-98621904D01*
X131190952Y-99421904D02*
X131190952Y-98621904D01*
X130543333Y-98621904D02*
X130467142Y-98621904D01*
X130390952Y-98660000D01*
X130352857Y-98698095D01*
X130314761Y-98774285D01*
X130276666Y-98926666D01*
X130276666Y-99117142D01*
X130314761Y-99269523D01*
X130352857Y-99345714D01*
X130390952Y-99383809D01*
X130467142Y-99421904D01*
X130543333Y-99421904D01*
X130619523Y-99383809D01*
X130657619Y-99345714D01*
X130695714Y-99269523D01*
X130733809Y-99117142D01*
X130733809Y-98926666D01*
X130695714Y-98774285D01*
X130657619Y-98698095D01*
X130619523Y-98660000D01*
X130543333Y-98621904D01*
X176682380Y-111321904D02*
X177063333Y-111321904D01*
X177101428Y-111702857D01*
X177063333Y-111664761D01*
X176987142Y-111626666D01*
X176796666Y-111626666D01*
X176720476Y-111664761D01*
X176682380Y-111702857D01*
X176644285Y-111779047D01*
X176644285Y-111969523D01*
X176682380Y-112045714D01*
X176720476Y-112083809D01*
X176796666Y-112121904D01*
X176987142Y-112121904D01*
X177063333Y-112083809D01*
X177101428Y-112045714D01*
X176415714Y-111321904D02*
X176149047Y-112121904D01*
X175882380Y-111321904D01*
X169062380Y-111321904D02*
X169443333Y-111321904D01*
X169481428Y-111702857D01*
X169443333Y-111664761D01*
X169367142Y-111626666D01*
X169176666Y-111626666D01*
X169100476Y-111664761D01*
X169062380Y-111702857D01*
X169024285Y-111779047D01*
X169024285Y-111969523D01*
X169062380Y-112045714D01*
X169100476Y-112083809D01*
X169176666Y-112121904D01*
X169367142Y-112121904D01*
X169443333Y-112083809D01*
X169481428Y-112045714D01*
X168795714Y-111321904D02*
X168529047Y-112121904D01*
X168262380Y-111321904D01*
X169062380Y-101161904D02*
X169443333Y-101161904D01*
X169481428Y-101542857D01*
X169443333Y-101504761D01*
X169367142Y-101466666D01*
X169176666Y-101466666D01*
X169100476Y-101504761D01*
X169062380Y-101542857D01*
X169024285Y-101619047D01*
X169024285Y-101809523D01*
X169062380Y-101885714D01*
X169100476Y-101923809D01*
X169176666Y-101961904D01*
X169367142Y-101961904D01*
X169443333Y-101923809D01*
X169481428Y-101885714D01*
X168795714Y-101161904D02*
X168529047Y-101961904D01*
X168262380Y-101161904D01*
X176682380Y-101161904D02*
X177063333Y-101161904D01*
X177101428Y-101542857D01*
X177063333Y-101504761D01*
X176987142Y-101466666D01*
X176796666Y-101466666D01*
X176720476Y-101504761D01*
X176682380Y-101542857D01*
X176644285Y-101619047D01*
X176644285Y-101809523D01*
X176682380Y-101885714D01*
X176720476Y-101923809D01*
X176796666Y-101961904D01*
X176987142Y-101961904D01*
X177063333Y-101923809D01*
X177101428Y-101885714D01*
X176415714Y-101161904D02*
X176149047Y-101961904D01*
X175882380Y-101161904D01*
X176682380Y-91001904D02*
X177063333Y-91001904D01*
X177101428Y-91382857D01*
X177063333Y-91344761D01*
X176987142Y-91306666D01*
X176796666Y-91306666D01*
X176720476Y-91344761D01*
X176682380Y-91382857D01*
X176644285Y-91459047D01*
X176644285Y-91649523D01*
X176682380Y-91725714D01*
X176720476Y-91763809D01*
X176796666Y-91801904D01*
X176987142Y-91801904D01*
X177063333Y-91763809D01*
X177101428Y-91725714D01*
X176415714Y-91001904D02*
X176149047Y-91801904D01*
X175882380Y-91001904D01*
X169062380Y-91001904D02*
X169443333Y-91001904D01*
X169481428Y-91382857D01*
X169443333Y-91344761D01*
X169367142Y-91306666D01*
X169176666Y-91306666D01*
X169100476Y-91344761D01*
X169062380Y-91382857D01*
X169024285Y-91459047D01*
X169024285Y-91649523D01*
X169062380Y-91725714D01*
X169100476Y-91763809D01*
X169176666Y-91801904D01*
X169367142Y-91801904D01*
X169443333Y-91763809D01*
X169481428Y-91725714D01*
X168795714Y-91001904D02*
X168529047Y-91801904D01*
X168262380Y-91001904D01*
X169424285Y-93580000D02*
X169500476Y-93541904D01*
X169614761Y-93541904D01*
X169729047Y-93580000D01*
X169805238Y-93656190D01*
X169843333Y-93732380D01*
X169881428Y-93884761D01*
X169881428Y-93999047D01*
X169843333Y-94151428D01*
X169805238Y-94227619D01*
X169729047Y-94303809D01*
X169614761Y-94341904D01*
X169538571Y-94341904D01*
X169424285Y-94303809D01*
X169386190Y-94265714D01*
X169386190Y-93999047D01*
X169538571Y-93999047D01*
X169043333Y-93808571D02*
X169043333Y-94341904D01*
X169043333Y-93884761D02*
X169005238Y-93846666D01*
X168929047Y-93808571D01*
X168814761Y-93808571D01*
X168738571Y-93846666D01*
X168700476Y-93922857D01*
X168700476Y-94341904D01*
X167976666Y-94341904D02*
X167976666Y-93541904D01*
X167976666Y-94303809D02*
X168052857Y-94341904D01*
X168205238Y-94341904D01*
X168281428Y-94303809D01*
X168319523Y-94265714D01*
X168357619Y-94189523D01*
X168357619Y-93960952D01*
X168319523Y-93884761D01*
X168281428Y-93846666D01*
X168205238Y-93808571D01*
X168052857Y-93808571D01*
X167976666Y-93846666D01*
X177044285Y-93580000D02*
X177120476Y-93541904D01*
X177234761Y-93541904D01*
X177349047Y-93580000D01*
X177425238Y-93656190D01*
X177463333Y-93732380D01*
X177501428Y-93884761D01*
X177501428Y-93999047D01*
X177463333Y-94151428D01*
X177425238Y-94227619D01*
X177349047Y-94303809D01*
X177234761Y-94341904D01*
X177158571Y-94341904D01*
X177044285Y-94303809D01*
X177006190Y-94265714D01*
X177006190Y-93999047D01*
X177158571Y-93999047D01*
X176663333Y-93808571D02*
X176663333Y-94341904D01*
X176663333Y-93884761D02*
X176625238Y-93846666D01*
X176549047Y-93808571D01*
X176434761Y-93808571D01*
X176358571Y-93846666D01*
X176320476Y-93922857D01*
X176320476Y-94341904D01*
X175596666Y-94341904D02*
X175596666Y-93541904D01*
X175596666Y-94303809D02*
X175672857Y-94341904D01*
X175825238Y-94341904D01*
X175901428Y-94303809D01*
X175939523Y-94265714D01*
X175977619Y-94189523D01*
X175977619Y-93960952D01*
X175939523Y-93884761D01*
X175901428Y-93846666D01*
X175825238Y-93808571D01*
X175672857Y-93808571D01*
X175596666Y-93846666D01*
X177044285Y-103740000D02*
X177120476Y-103701904D01*
X177234761Y-103701904D01*
X177349047Y-103740000D01*
X177425238Y-103816190D01*
X177463333Y-103892380D01*
X177501428Y-104044761D01*
X177501428Y-104159047D01*
X177463333Y-104311428D01*
X177425238Y-104387619D01*
X177349047Y-104463809D01*
X177234761Y-104501904D01*
X177158571Y-104501904D01*
X177044285Y-104463809D01*
X177006190Y-104425714D01*
X177006190Y-104159047D01*
X177158571Y-104159047D01*
X176663333Y-103968571D02*
X176663333Y-104501904D01*
X176663333Y-104044761D02*
X176625238Y-104006666D01*
X176549047Y-103968571D01*
X176434761Y-103968571D01*
X176358571Y-104006666D01*
X176320476Y-104082857D01*
X176320476Y-104501904D01*
X175596666Y-104501904D02*
X175596666Y-103701904D01*
X175596666Y-104463809D02*
X175672857Y-104501904D01*
X175825238Y-104501904D01*
X175901428Y-104463809D01*
X175939523Y-104425714D01*
X175977619Y-104349523D01*
X175977619Y-104120952D01*
X175939523Y-104044761D01*
X175901428Y-104006666D01*
X175825238Y-103968571D01*
X175672857Y-103968571D01*
X175596666Y-104006666D01*
X169424285Y-103740000D02*
X169500476Y-103701904D01*
X169614761Y-103701904D01*
X169729047Y-103740000D01*
X169805238Y-103816190D01*
X169843333Y-103892380D01*
X169881428Y-104044761D01*
X169881428Y-104159047D01*
X169843333Y-104311428D01*
X169805238Y-104387619D01*
X169729047Y-104463809D01*
X169614761Y-104501904D01*
X169538571Y-104501904D01*
X169424285Y-104463809D01*
X169386190Y-104425714D01*
X169386190Y-104159047D01*
X169538571Y-104159047D01*
X169043333Y-103968571D02*
X169043333Y-104501904D01*
X169043333Y-104044761D02*
X169005238Y-104006666D01*
X168929047Y-103968571D01*
X168814761Y-103968571D01*
X168738571Y-104006666D01*
X168700476Y-104082857D01*
X168700476Y-104501904D01*
X167976666Y-104501904D02*
X167976666Y-103701904D01*
X167976666Y-104463809D02*
X168052857Y-104501904D01*
X168205238Y-104501904D01*
X168281428Y-104463809D01*
X168319523Y-104425714D01*
X168357619Y-104349523D01*
X168357619Y-104120952D01*
X168319523Y-104044761D01*
X168281428Y-104006666D01*
X168205238Y-103968571D01*
X168052857Y-103968571D01*
X167976666Y-104006666D01*
X169424285Y-113900000D02*
X169500476Y-113861904D01*
X169614761Y-113861904D01*
X169729047Y-113900000D01*
X169805238Y-113976190D01*
X169843333Y-114052380D01*
X169881428Y-114204761D01*
X169881428Y-114319047D01*
X169843333Y-114471428D01*
X169805238Y-114547619D01*
X169729047Y-114623809D01*
X169614761Y-114661904D01*
X169538571Y-114661904D01*
X169424285Y-114623809D01*
X169386190Y-114585714D01*
X169386190Y-114319047D01*
X169538571Y-114319047D01*
X169043333Y-114128571D02*
X169043333Y-114661904D01*
X169043333Y-114204761D02*
X169005238Y-114166666D01*
X168929047Y-114128571D01*
X168814761Y-114128571D01*
X168738571Y-114166666D01*
X168700476Y-114242857D01*
X168700476Y-114661904D01*
X167976666Y-114661904D02*
X167976666Y-113861904D01*
X167976666Y-114623809D02*
X168052857Y-114661904D01*
X168205238Y-114661904D01*
X168281428Y-114623809D01*
X168319523Y-114585714D01*
X168357619Y-114509523D01*
X168357619Y-114280952D01*
X168319523Y-114204761D01*
X168281428Y-114166666D01*
X168205238Y-114128571D01*
X168052857Y-114128571D01*
X167976666Y-114166666D01*
X177044285Y-113900000D02*
X177120476Y-113861904D01*
X177234761Y-113861904D01*
X177349047Y-113900000D01*
X177425238Y-113976190D01*
X177463333Y-114052380D01*
X177501428Y-114204761D01*
X177501428Y-114319047D01*
X177463333Y-114471428D01*
X177425238Y-114547619D01*
X177349047Y-114623809D01*
X177234761Y-114661904D01*
X177158571Y-114661904D01*
X177044285Y-114623809D01*
X177006190Y-114585714D01*
X177006190Y-114319047D01*
X177158571Y-114319047D01*
X176663333Y-114128571D02*
X176663333Y-114661904D01*
X176663333Y-114204761D02*
X176625238Y-114166666D01*
X176549047Y-114128571D01*
X176434761Y-114128571D01*
X176358571Y-114166666D01*
X176320476Y-114242857D01*
X176320476Y-114661904D01*
X175596666Y-114661904D02*
X175596666Y-113861904D01*
X175596666Y-114623809D02*
X175672857Y-114661904D01*
X175825238Y-114661904D01*
X175901428Y-114623809D01*
X175939523Y-114585714D01*
X175977619Y-114509523D01*
X175977619Y-114280952D01*
X175939523Y-114204761D01*
X175901428Y-114166666D01*
X175825238Y-114128571D01*
X175672857Y-114128571D01*
X175596666Y-114166666D01*
X177291904Y-96081904D02*
X176758571Y-96881904D01*
X176758571Y-96081904D02*
X177291904Y-96881904D01*
X176453809Y-96577142D02*
X175844285Y-96577142D01*
X176149047Y-96881904D02*
X176149047Y-96272380D01*
X177025238Y-106660952D02*
X177025238Y-107041904D01*
X177291904Y-106241904D02*
X177025238Y-106660952D01*
X176758571Y-106241904D01*
X176491904Y-106737142D02*
X175882380Y-106737142D01*
X176187142Y-107041904D02*
X176187142Y-106432380D01*
X169671904Y-96081904D02*
X169138571Y-96881904D01*
X169138571Y-96081904D02*
X169671904Y-96881904D01*
X168833809Y-96577142D02*
X168224285Y-96577142D01*
X169405238Y-106660952D02*
X169405238Y-107041904D01*
X169671904Y-106241904D02*
X169405238Y-106660952D01*
X169138571Y-106241904D01*
X168871904Y-106737142D02*
X168262380Y-106737142D01*
X169671904Y-116401904D02*
X169138571Y-116401904D01*
X169671904Y-117201904D01*
X169138571Y-117201904D01*
X168833809Y-116897142D02*
X168224285Y-116897142D01*
X177291904Y-116401904D02*
X176758571Y-116401904D01*
X177291904Y-117201904D01*
X176758571Y-117201904D01*
X176453809Y-116897142D02*
X175844285Y-116897142D01*
X176149047Y-117201904D02*
X176149047Y-116592380D01*
X184823435Y-125568375D02*
X184257749Y-125002690D01*
X184123062Y-125137377D01*
X184069187Y-125245126D01*
X184069187Y-125352876D01*
X184096125Y-125433688D01*
X184176937Y-125568375D01*
X184257749Y-125649187D01*
X184392436Y-125730000D01*
X184473248Y-125756937D01*
X184580998Y-125756937D01*
X184688748Y-125703062D01*
X184823435Y-125568375D01*
X183772876Y-125595312D02*
X183719001Y-125595312D01*
X183638189Y-125622250D01*
X183503502Y-125756937D01*
X183476564Y-125837749D01*
X183476564Y-125891624D01*
X183503502Y-125972436D01*
X183557377Y-126026311D01*
X183665126Y-126080186D01*
X184311624Y-126080186D01*
X183961438Y-126430372D01*
X182000592Y-124719847D02*
X181650406Y-125070033D01*
X182054467Y-125096971D01*
X181973654Y-125177783D01*
X181946717Y-125258595D01*
X181946717Y-125312470D01*
X181973654Y-125393282D01*
X182108341Y-125527969D01*
X182189154Y-125554906D01*
X182243028Y-125554906D01*
X182323841Y-125527969D01*
X182485465Y-125366345D01*
X182512402Y-125285532D01*
X182512402Y-125231658D01*
X181488781Y-125231658D02*
X181865905Y-125985905D01*
X181111658Y-125608781D01*
X180976971Y-125743468D02*
X180626784Y-126093654D01*
X181030845Y-126120592D01*
X180950033Y-126201404D01*
X180923096Y-126282216D01*
X180923096Y-126336091D01*
X180950033Y-126416903D01*
X181084720Y-126551590D01*
X181165532Y-126578528D01*
X181219407Y-126578528D01*
X181300219Y-126551590D01*
X181461844Y-126389966D01*
X181488781Y-126309154D01*
X181488781Y-126255279D01*
X179743435Y-125568375D02*
X179177749Y-125002690D01*
X179043062Y-125137377D01*
X178989187Y-125245126D01*
X178989187Y-125352876D01*
X179016125Y-125433688D01*
X179096937Y-125568375D01*
X179177749Y-125649187D01*
X179312436Y-125730000D01*
X179393248Y-125756937D01*
X179500998Y-125756937D01*
X179608748Y-125703062D01*
X179743435Y-125568375D01*
X178665938Y-125514500D02*
X178315752Y-125864687D01*
X178719813Y-125891624D01*
X178639001Y-125972436D01*
X178612064Y-126053248D01*
X178612064Y-126107123D01*
X178639001Y-126187935D01*
X178773688Y-126322622D01*
X178854500Y-126349560D01*
X178908375Y-126349560D01*
X178989187Y-126322622D01*
X179150812Y-126160998D01*
X179177749Y-126080186D01*
X179177749Y-126026311D01*
X176610812Y-125083502D02*
X176637749Y-125002690D01*
X176718561Y-124921877D01*
X176826311Y-124868003D01*
X176934061Y-124868003D01*
X177014873Y-124894940D01*
X177149560Y-124975752D01*
X177230372Y-125056564D01*
X177311184Y-125191251D01*
X177338122Y-125272064D01*
X177338122Y-125379813D01*
X177284247Y-125487563D01*
X177230372Y-125541438D01*
X177122622Y-125595312D01*
X177068748Y-125595312D01*
X176880186Y-125406751D01*
X176987935Y-125299001D01*
X176503062Y-125514500D02*
X176880186Y-125891624D01*
X176556937Y-125568375D02*
X176503062Y-125568375D01*
X176422250Y-125595312D01*
X176341438Y-125676125D01*
X176314500Y-125756937D01*
X176341438Y-125837749D01*
X176637749Y-126134061D01*
X176125938Y-126645871D02*
X175560253Y-126080186D01*
X176099001Y-126618934D02*
X176179813Y-126591996D01*
X176287563Y-126484247D01*
X176314500Y-126403435D01*
X176314500Y-126349560D01*
X176287563Y-126268748D01*
X176125938Y-126107123D01*
X176045126Y-126080186D01*
X175991251Y-126080186D01*
X175910439Y-126107123D01*
X175802690Y-126214873D01*
X175775752Y-126295685D01*
X174946277Y-125231658D02*
X174892402Y-125339407D01*
X174757715Y-125474094D01*
X174676903Y-125501032D01*
X174623028Y-125501032D01*
X174542216Y-125474094D01*
X174488341Y-125420219D01*
X174461404Y-125339407D01*
X174461404Y-125285532D01*
X174488341Y-125204720D01*
X174569154Y-125070033D01*
X174596091Y-124989221D01*
X174596091Y-124935346D01*
X174569154Y-124854534D01*
X174515279Y-124800659D01*
X174434467Y-124773722D01*
X174380592Y-124773722D01*
X174299780Y-124800659D01*
X174165093Y-124935346D01*
X174111218Y-125043096D01*
X174030406Y-126093654D02*
X174084280Y-126093654D01*
X174192030Y-126039780D01*
X174245905Y-125985905D01*
X174299780Y-125878155D01*
X174299780Y-125770406D01*
X174272842Y-125689593D01*
X174192030Y-125554906D01*
X174111218Y-125474094D01*
X173976531Y-125393282D01*
X173895719Y-125366345D01*
X173787969Y-125366345D01*
X173680219Y-125420219D01*
X173626345Y-125474094D01*
X173572470Y-125581844D01*
X173572470Y-125635719D01*
X173841844Y-126389966D02*
X173276158Y-125824280D01*
X173518595Y-126713215D02*
X173437783Y-126147529D01*
X172952910Y-126147529D02*
X173599407Y-126147529D01*
X172083028Y-125501032D02*
X172136903Y-125501032D01*
X172244653Y-125447157D01*
X172298528Y-125393282D01*
X172352402Y-125285532D01*
X172352402Y-125177783D01*
X172325465Y-125096971D01*
X172244653Y-124962284D01*
X172163841Y-124881471D01*
X172029154Y-124800659D01*
X171948341Y-124773722D01*
X171840592Y-124773722D01*
X171732842Y-124827597D01*
X171678967Y-124881471D01*
X171625093Y-124989221D01*
X171625093Y-125043096D01*
X171894467Y-125797343D02*
X171328781Y-125231658D01*
X171544280Y-125824280D01*
X170951658Y-125608781D01*
X171517343Y-126174467D01*
X171247969Y-126443841D02*
X170682284Y-125878155D01*
X170547597Y-126012842D01*
X170493722Y-126120592D01*
X170493722Y-126228341D01*
X170520659Y-126309154D01*
X170601471Y-126443841D01*
X170682284Y-126524653D01*
X170816971Y-126605465D01*
X170897783Y-126632402D01*
X171005532Y-126632402D01*
X171113282Y-126578528D01*
X171247969Y-126443841D01*
X169583435Y-125568375D02*
X169017749Y-125002690D01*
X168883062Y-125137377D01*
X168829187Y-125245126D01*
X168829187Y-125352876D01*
X168856125Y-125433688D01*
X168936937Y-125568375D01*
X169017749Y-125649187D01*
X169152436Y-125730000D01*
X169233248Y-125756937D01*
X169340998Y-125756937D01*
X169448748Y-125703062D01*
X169583435Y-125568375D01*
X168721438Y-126430372D02*
X169044687Y-126107123D01*
X168883062Y-126268748D02*
X168317377Y-125703062D01*
X168452064Y-125730000D01*
X168559813Y-125730000D01*
X168640625Y-125703062D01*
X167797682Y-124760253D02*
X167743807Y-124868003D01*
X167609120Y-125002690D01*
X167528308Y-125029627D01*
X167474433Y-125029627D01*
X167393621Y-125002690D01*
X167339746Y-124948815D01*
X167312809Y-124868003D01*
X167312809Y-124814128D01*
X167339746Y-124733316D01*
X167420558Y-124598629D01*
X167447496Y-124517816D01*
X167447496Y-124463942D01*
X167420558Y-124383129D01*
X167366683Y-124329255D01*
X167285871Y-124302317D01*
X167231996Y-124302317D01*
X167151184Y-124329255D01*
X167016497Y-124463942D01*
X166962622Y-124571691D01*
X167258934Y-125352876D02*
X166693248Y-124787190D01*
X166558561Y-124921877D01*
X166504687Y-125029627D01*
X166504687Y-125137377D01*
X166531624Y-125218189D01*
X166612436Y-125352876D01*
X166693248Y-125433688D01*
X166827935Y-125514500D01*
X166908748Y-125541438D01*
X167016497Y-125541438D01*
X167124247Y-125487563D01*
X167258934Y-125352876D01*
X166693248Y-125918561D02*
X166127563Y-125352876D01*
X165992876Y-125487563D01*
X165939001Y-125595312D01*
X165939001Y-125703062D01*
X165965938Y-125783874D01*
X166046751Y-125918561D01*
X166127563Y-125999374D01*
X166262250Y-126080186D01*
X166343062Y-126107123D01*
X166450812Y-126107123D01*
X166558561Y-126053248D01*
X166693248Y-125918561D01*
X165831251Y-126187935D02*
X165642690Y-126376497D01*
X165858189Y-126753621D02*
X166127563Y-126484247D01*
X165561877Y-125918561D01*
X165292503Y-126187935D01*
X165130879Y-126349560D02*
X164807630Y-126672809D01*
X165534940Y-127076870D02*
X164969255Y-126511184D01*
X164503435Y-125568375D02*
X163937749Y-125002690D01*
X163803062Y-125137377D01*
X163749187Y-125245126D01*
X163749187Y-125352876D01*
X163776125Y-125433688D01*
X163856937Y-125568375D01*
X163937749Y-125649187D01*
X164072436Y-125730000D01*
X164153248Y-125756937D01*
X164260998Y-125756937D01*
X164368748Y-125703062D01*
X164503435Y-125568375D01*
X163264314Y-125676125D02*
X163210439Y-125730000D01*
X163183502Y-125810812D01*
X163183502Y-125864687D01*
X163210439Y-125945499D01*
X163291251Y-126080186D01*
X163425938Y-126214873D01*
X163560625Y-126295685D01*
X163641438Y-126322622D01*
X163695312Y-126322622D01*
X163776125Y-126295685D01*
X163830000Y-126241810D01*
X163856937Y-126160998D01*
X163856937Y-126107123D01*
X163830000Y-126026311D01*
X163749187Y-125891624D01*
X163614500Y-125756937D01*
X163479813Y-125676125D01*
X163399001Y-125649187D01*
X163345126Y-125649187D01*
X163264314Y-125676125D01*
X124974285Y-152050714D02*
X125012380Y-152088809D01*
X125126666Y-152126904D01*
X125202857Y-152126904D01*
X125317142Y-152088809D01*
X125393333Y-152012619D01*
X125431428Y-151936428D01*
X125469523Y-151784047D01*
X125469523Y-151669761D01*
X125431428Y-151517380D01*
X125393333Y-151441190D01*
X125317142Y-151365000D01*
X125202857Y-151326904D01*
X125126666Y-151326904D01*
X125012380Y-151365000D01*
X124974285Y-151403095D01*
X124669523Y-152088809D02*
X124555238Y-152126904D01*
X124364761Y-152126904D01*
X124288571Y-152088809D01*
X124250476Y-152050714D01*
X124212380Y-151974523D01*
X124212380Y-151898333D01*
X124250476Y-151822142D01*
X124288571Y-151784047D01*
X124364761Y-151745952D01*
X124517142Y-151707857D01*
X124593333Y-151669761D01*
X124631428Y-151631666D01*
X124669523Y-151555476D01*
X124669523Y-151479285D01*
X124631428Y-151403095D01*
X124593333Y-151365000D01*
X124517142Y-151326904D01*
X124326666Y-151326904D01*
X124212380Y-151365000D01*
X123450476Y-152126904D02*
X123907619Y-152126904D01*
X123679047Y-152126904D02*
X123679047Y-151326904D01*
X123755238Y-151441190D01*
X123831428Y-151517380D01*
X123907619Y-151555476D01*
X124974285Y-145700714D02*
X125012380Y-145738809D01*
X125126666Y-145776904D01*
X125202857Y-145776904D01*
X125317142Y-145738809D01*
X125393333Y-145662619D01*
X125431428Y-145586428D01*
X125469523Y-145434047D01*
X125469523Y-145319761D01*
X125431428Y-145167380D01*
X125393333Y-145091190D01*
X125317142Y-145015000D01*
X125202857Y-144976904D01*
X125126666Y-144976904D01*
X125012380Y-145015000D01*
X124974285Y-145053095D01*
X124669523Y-145738809D02*
X124555238Y-145776904D01*
X124364761Y-145776904D01*
X124288571Y-145738809D01*
X124250476Y-145700714D01*
X124212380Y-145624523D01*
X124212380Y-145548333D01*
X124250476Y-145472142D01*
X124288571Y-145434047D01*
X124364761Y-145395952D01*
X124517142Y-145357857D01*
X124593333Y-145319761D01*
X124631428Y-145281666D01*
X124669523Y-145205476D01*
X124669523Y-145129285D01*
X124631428Y-145053095D01*
X124593333Y-145015000D01*
X124517142Y-144976904D01*
X124326666Y-144976904D01*
X124212380Y-145015000D01*
X123907619Y-145053095D02*
X123869523Y-145015000D01*
X123793333Y-144976904D01*
X123602857Y-144976904D01*
X123526666Y-145015000D01*
X123488571Y-145053095D01*
X123450476Y-145129285D01*
X123450476Y-145205476D01*
X123488571Y-145319761D01*
X123945714Y-145776904D01*
X123450476Y-145776904D01*
D12*
G04 #@! TO.C,J30*
X191830000Y-82490000D02*
X189230000Y-82490000D01*
X191830000Y-82490000D02*
X191830000Y-143570000D01*
X191830000Y-143570000D02*
X186630000Y-143570000D01*
X186630000Y-85090000D02*
X186630000Y-143570000D01*
X189230000Y-85090000D02*
X186630000Y-85090000D01*
X189230000Y-82490000D02*
X189230000Y-85090000D01*
X186630000Y-82490000D02*
X186630000Y-83820000D01*
X187960000Y-82490000D02*
X186630000Y-82490000D01*
G04 #@! TO.C,R20*
X181929721Y-99570000D02*
X182255279Y-99570000D01*
X181929721Y-98550000D02*
X182255279Y-98550000D01*
G04 #@! TO.C,R19*
X192530000Y-121295279D02*
X192530000Y-120969721D01*
X193550000Y-121295279D02*
X193550000Y-120969721D01*
G04 #@! TO.C,D1*
X155895000Y-106706400D02*
X155895000Y-110006400D01*
X155895000Y-110006400D02*
X150495000Y-110006400D01*
X155895000Y-106706400D02*
X150495000Y-106706400D01*
G04 #@! TO.C,J25*
X176590000Y-155000000D02*
X176590000Y-152400000D01*
X176590000Y-155000000D02*
X135830000Y-155000000D01*
X135830000Y-155000000D02*
X135830000Y-149800000D01*
X173990000Y-149800000D02*
X135830000Y-149800000D01*
X173990000Y-152400000D02*
X173990000Y-149800000D01*
X176590000Y-152400000D02*
X173990000Y-152400000D01*
X176590000Y-149800000D02*
X175260000Y-149800000D01*
X176590000Y-151130000D02*
X176590000Y-149800000D01*
G04 #@! TO.C,J17*
X125790000Y-82490000D02*
X123190000Y-82490000D01*
X125790000Y-82490000D02*
X125790000Y-143570000D01*
X125790000Y-143570000D02*
X120590000Y-143570000D01*
X120590000Y-85090000D02*
X120590000Y-143570000D01*
X123190000Y-85090000D02*
X120590000Y-85090000D01*
X123190000Y-82490000D02*
X123190000Y-85090000D01*
X120590000Y-82490000D02*
X120590000Y-83820000D01*
X121920000Y-82490000D02*
X120590000Y-82490000D01*
G04 #@! TO.C,R18*
X193550000Y-116215279D02*
X193550000Y-115889721D01*
X192530000Y-116215279D02*
X192530000Y-115889721D01*
G04 #@! TO.C,R21*
X182255279Y-102110000D02*
X181929721Y-102110000D01*
X182255279Y-101090000D02*
X181929721Y-101090000D01*
G04 #@! TO.C,R22*
X153354721Y-144020000D02*
X153680279Y-144020000D01*
X153354721Y-143000000D02*
X153680279Y-143000000D01*
G04 #@! TO.C,R20*
D10*
X182887857Y-98242380D02*
X183221190Y-97766190D01*
X183459285Y-98242380D02*
X183459285Y-97242380D01*
X183078333Y-97242380D01*
X182983095Y-97290000D01*
X182935476Y-97337619D01*
X182887857Y-97432857D01*
X182887857Y-97575714D01*
X182935476Y-97670952D01*
X182983095Y-97718571D01*
X183078333Y-97766190D01*
X183459285Y-97766190D01*
X182506904Y-97337619D02*
X182459285Y-97290000D01*
X182364047Y-97242380D01*
X182125952Y-97242380D01*
X182030714Y-97290000D01*
X181983095Y-97337619D01*
X181935476Y-97432857D01*
X181935476Y-97528095D01*
X181983095Y-97670952D01*
X182554523Y-98242380D01*
X181935476Y-98242380D01*
X181316428Y-97242380D02*
X181221190Y-97242380D01*
X181125952Y-97290000D01*
X181078333Y-97337619D01*
X181030714Y-97432857D01*
X180983095Y-97623333D01*
X180983095Y-97861428D01*
X181030714Y-98051904D01*
X181078333Y-98147142D01*
X181125952Y-98194761D01*
X181221190Y-98242380D01*
X181316428Y-98242380D01*
X181411666Y-98194761D01*
X181459285Y-98147142D01*
X181506904Y-98051904D01*
X181554523Y-97861428D01*
X181554523Y-97623333D01*
X181506904Y-97432857D01*
X181459285Y-97337619D01*
X181411666Y-97290000D01*
X181316428Y-97242380D01*
G04 #@! TO.C,R19*
X194762380Y-120642142D02*
X194286190Y-120308809D01*
X194762380Y-120070714D02*
X193762380Y-120070714D01*
X193762380Y-120451666D01*
X193810000Y-120546904D01*
X193857619Y-120594523D01*
X193952857Y-120642142D01*
X194095714Y-120642142D01*
X194190952Y-120594523D01*
X194238571Y-120546904D01*
X194286190Y-120451666D01*
X194286190Y-120070714D01*
X194762380Y-121594523D02*
X194762380Y-121023095D01*
X194762380Y-121308809D02*
X193762380Y-121308809D01*
X193905238Y-121213571D01*
X194000476Y-121118333D01*
X194048095Y-121023095D01*
X194762380Y-122070714D02*
X194762380Y-122261190D01*
X194714761Y-122356428D01*
X194667142Y-122404047D01*
X194524285Y-122499285D01*
X194333809Y-122546904D01*
X193952857Y-122546904D01*
X193857619Y-122499285D01*
X193810000Y-122451666D01*
X193762380Y-122356428D01*
X193762380Y-122165952D01*
X193810000Y-122070714D01*
X193857619Y-122023095D01*
X193952857Y-121975476D01*
X194190952Y-121975476D01*
X194286190Y-122023095D01*
X194333809Y-122070714D01*
X194381428Y-122165952D01*
X194381428Y-122356428D01*
X194333809Y-122451666D01*
X194286190Y-122499285D01*
X194190952Y-122546904D01*
G04 #@! TO.C,D1*
X153233095Y-106308780D02*
X153233095Y-105308780D01*
X152995000Y-105308780D01*
X152852142Y-105356400D01*
X152756904Y-105451638D01*
X152709285Y-105546876D01*
X152661666Y-105737352D01*
X152661666Y-105880209D01*
X152709285Y-106070685D01*
X152756904Y-106165923D01*
X152852142Y-106261161D01*
X152995000Y-106308780D01*
X153233095Y-106308780D01*
X151709285Y-106308780D02*
X152280714Y-106308780D01*
X151995000Y-106308780D02*
X151995000Y-105308780D01*
X152090238Y-105451638D01*
X152185476Y-105546876D01*
X152280714Y-105594495D01*
G04 #@! TO.C,R18*
X194762380Y-115409642D02*
X194286190Y-115076309D01*
X194762380Y-114838214D02*
X193762380Y-114838214D01*
X193762380Y-115219166D01*
X193810000Y-115314404D01*
X193857619Y-115362023D01*
X193952857Y-115409642D01*
X194095714Y-115409642D01*
X194190952Y-115362023D01*
X194238571Y-115314404D01*
X194286190Y-115219166D01*
X194286190Y-114838214D01*
X194762380Y-116362023D02*
X194762380Y-115790595D01*
X194762380Y-116076309D02*
X193762380Y-116076309D01*
X193905238Y-115981071D01*
X194000476Y-115885833D01*
X194048095Y-115790595D01*
X194190952Y-116933452D02*
X194143333Y-116838214D01*
X194095714Y-116790595D01*
X194000476Y-116742976D01*
X193952857Y-116742976D01*
X193857619Y-116790595D01*
X193810000Y-116838214D01*
X193762380Y-116933452D01*
X193762380Y-117123928D01*
X193810000Y-117219166D01*
X193857619Y-117266785D01*
X193952857Y-117314404D01*
X194000476Y-117314404D01*
X194095714Y-117266785D01*
X194143333Y-117219166D01*
X194190952Y-117123928D01*
X194190952Y-116933452D01*
X194238571Y-116838214D01*
X194286190Y-116790595D01*
X194381428Y-116742976D01*
X194571904Y-116742976D01*
X194667142Y-116790595D01*
X194714761Y-116838214D01*
X194762380Y-116933452D01*
X194762380Y-117123928D01*
X194714761Y-117219166D01*
X194667142Y-117266785D01*
X194571904Y-117314404D01*
X194381428Y-117314404D01*
X194286190Y-117266785D01*
X194238571Y-117219166D01*
X194190952Y-117123928D01*
G04 #@! TO.C,R21*
X182887857Y-103322380D02*
X183221190Y-102846190D01*
X183459285Y-103322380D02*
X183459285Y-102322380D01*
X183078333Y-102322380D01*
X182983095Y-102370000D01*
X182935476Y-102417619D01*
X182887857Y-102512857D01*
X182887857Y-102655714D01*
X182935476Y-102750952D01*
X182983095Y-102798571D01*
X183078333Y-102846190D01*
X183459285Y-102846190D01*
X182506904Y-102417619D02*
X182459285Y-102370000D01*
X182364047Y-102322380D01*
X182125952Y-102322380D01*
X182030714Y-102370000D01*
X181983095Y-102417619D01*
X181935476Y-102512857D01*
X181935476Y-102608095D01*
X181983095Y-102750952D01*
X182554523Y-103322380D01*
X181935476Y-103322380D01*
X180983095Y-103322380D02*
X181554523Y-103322380D01*
X181268809Y-103322380D02*
X181268809Y-102322380D01*
X181364047Y-102465238D01*
X181459285Y-102560476D01*
X181554523Y-102608095D01*
G04 #@! TO.C,R22*
X154160357Y-145392380D02*
X154493690Y-144916190D01*
X154731785Y-145392380D02*
X154731785Y-144392380D01*
X154350833Y-144392380D01*
X154255595Y-144440000D01*
X154207976Y-144487619D01*
X154160357Y-144582857D01*
X154160357Y-144725714D01*
X154207976Y-144820952D01*
X154255595Y-144868571D01*
X154350833Y-144916190D01*
X154731785Y-144916190D01*
X153779404Y-144487619D02*
X153731785Y-144440000D01*
X153636547Y-144392380D01*
X153398452Y-144392380D01*
X153303214Y-144440000D01*
X153255595Y-144487619D01*
X153207976Y-144582857D01*
X153207976Y-144678095D01*
X153255595Y-144820952D01*
X153827023Y-145392380D01*
X153207976Y-145392380D01*
X152827023Y-144487619D02*
X152779404Y-144440000D01*
X152684166Y-144392380D01*
X152446071Y-144392380D01*
X152350833Y-144440000D01*
X152303214Y-144487619D01*
X152255595Y-144582857D01*
X152255595Y-144678095D01*
X152303214Y-144820952D01*
X152874642Y-145392380D01*
X152255595Y-145392380D01*
G04 #@! TD*
M02*
